<?xml version="1.0" standalone="no"?>
<!DOCTYPE svg PUBLIC "-//W3C//DTD SVG 1.1//EN" "http://www.w3.org/Graphics/SVG/1.1/DTD/svg11.dtd" >
<svg xmlns="http://www.w3.org/2000/svg">
<metadata></metadata>
<defs>
<font id="ag_foreigner_light-boldbold" horiz-adv-x="1138" >
<font-face units-per-em="2048" ascent="1638" descent="-410" />
<missing-glyph horiz-adv-x="569" />
<glyph horiz-adv-x="2048" />
<glyph horiz-adv-x="2048" />
<glyph unicode="&#xd;" horiz-adv-x="0" />
<glyph unicode=" "  horiz-adv-x="569" />
<glyph unicode="&#x09;" horiz-adv-x="569" />
<glyph unicode="&#xa0;" horiz-adv-x="569" />
<glyph unicode="!" horiz-adv-x="796" d="M242 1430h315l-43 -1010h-234zM256 0v286h286v-286h-286z" />
<glyph unicode="&#x22;" horiz-adv-x="985" d="M180 918v512h250v-512h-250zM555 918v512h250v-512h-250z" />
<glyph unicode="#" d="M68 420v164h206l35 262h-180v164h205l57 420h183l-58 -420h209l57 420h180l-57 -420h166v-164h-191l-34 -262h166v-164h-188l-60 -420h-180l59 420h-209l-62 -420h-180l60 420h-184zM456 584h210l34 262h-208z" />
<glyph unicode="$" d="M119 1018q0 134 55.5 226.5t147.5 142t208 63.5v152h96v-148q182 0 334 -51l-26 -235q-142 62 -291 61q-11 0 -17 -2v-379q146 -58 221 -97t136 -123t61 -220q0 -190 -114 -296q-114 -104 -304 -128v-168h-96v162q-8 -2 -22 -2q-106 0 -165 10t-201 44l26 259 q162 -89 324 -89q24 0 38 5v383q-110 43 -167 69.5t-115 72t-93.5 117t-35.5 171.5zM418 1030q0 -83 112 -141v319q-112 -52 -112 -178zM626 230q120 50 120 155q0 99 -120 157v-312z" />
<glyph unicode="%" horiz-adv-x="2048" d="M217 1077q0 117 40.5 202.5t118.5 130t185 44.5q164 0 252 -98.5t88 -278.5t-88 -278.5t-252 -98.5q-108 0 -185.5 45t-118 130t-40.5 202zM430 1077q0 -85 29 -149t102 -64q72 0 99.5 63t27.5 150q0 88 -27 150.5t-100 62.5t-102 -64t-29 -149zM502 -45l884 1519h168 l-884 -1519h-168zM1149 352q0 117 40.5 202.5t118.5 130t185 44.5q164 0 252 -98.5t88 -278.5t-88 -278t-252 -98q-108 0 -185.5 44t-118 130t-40.5 202zM1362 352q0 -86 29 -149t102 -63q127 0 127 212q0 87 -27 150t-100 63t-102 -63.5t-29 -149.5z" />
<glyph unicode="&#x26;" horiz-adv-x="1478" d="M123 391q0 135 69 229q68 94 232 164q-77 72 -113.5 113t-60.5 98t-24 133q0 102 64 176.5t164 112t206 37.5q107 0 200.5 -34t152 -107t58.5 -183q0 -135 -69.5 -216.5t-207.5 -161.5l263 -287q82 94 90 311h249q-12 -286 -182 -490l256 -286h-352l-96 127 q-73 -74 -176.5 -112.5t-212.5 -38.5q-142 0 -258.5 48t-184 143t-67.5 224zM398 400q0 -60 32 -109t88 -76t121 -27q161 0 250 86l-317 354q-174 -90 -174 -228zM500 1102q0 -28 12.5 -55.5t30 -50t42 -47l50.5 -50.5q67 34 126.5 92t59.5 115q0 71 -45.5 109.5 t-111.5 38.5q-68 0 -116 -39t-48 -113z" />
<glyph unicode="'" horiz-adv-x="569" d="M160 918v512h250v-512h-250z" />
<glyph unicode="(" horiz-adv-x="682" d="M80 631q0 182 38 336.5t109 291.5t181 289h260q-71 -113 -124 -214.5t-92 -210.5t-60.5 -231t-21.5 -261q0 -246 77 -468.5t221 -448.5h-260q-162 221 -245 443.5t-83 473.5z" />
<glyph unicode=")" horiz-adv-x="682" d="M14 -286q92 148 158 292t103 300t37 325q0 263 -74 469t-224 448h258q110 -154 181 -289.5t110 -291t39 -336.5q0 -252 -84.5 -474t-245.5 -443h-258z" />
<glyph unicode="*" d="M148 1036l67 214l273 -118l-34 298h234l-34 -296l272 116l65 -214l-285 -63l197 -219l-188 -136l-145 254l-156 -254l-186 136l200 219z" />
<glyph unicode="+" horiz-adv-x="1229" d="M94 412v212h414v412h213v-412h413v-212h-413v-412h-213v412h-414z" />
<glyph unicode="," horiz-adv-x="569" d="M47 -226l131 512h297l-186 -512h-242z" />
<glyph unicode="-" horiz-adv-x="682" d="M72 438v226h538v-226h-538z" />
<glyph unicode="." horiz-adv-x="569" d="M142 0v286h286v-286h-286z" />
<glyph unicode="/" horiz-adv-x="796" d="M43 -24l499 1478h214l-500 -1478h-213z" />
<glyph unicode="0" d="M72 710q0 314 115 529t381 215q150 0 249 -66t153 -173.5t75.5 -235t21.5 -269.5q0 -191 -42 -354.5t-153.5 -271.5t-303.5 -108q-496 0 -496 734zM358 710q0 -220 37 -371t173 -151q139 0 175.5 151t36.5 371q0 225 -37 378t-175 153q-136 0 -173 -152.5t-37 -378.5z " />
<glyph unicode="1" d="M162 1094l418 336h254v-1430h-287v1104l-242 -196z" />
<glyph unicode="2" d="M84 0v240q76 70 174.5 162t201 204t172.5 226t70 204q0 92 -69 142.5t-164 50.5q-153 0 -329 -115l-24 238q98 50 207 76t217 26q138 0 239 -46.5t155.5 -140t54.5 -231.5q0 -107 -48.5 -215.5t-123.5 -205.5t-137 -161t-230 -228h584v-226h-950z" />
<glyph unicode="3" d="M92 22l16 244q168 -66 318 -66q64 0 135 22t118.5 68t47.5 114q1 222 -315 222h-140v226h132q148 0 232.5 48t84.5 140q0 100 -69 144.5t-177 44.5q-165 0 -321 -76l-17 229q181 72 399 72q106 0 213 -31t183 -113t76 -222q0 -92 -35 -159t-93 -110t-138 -73v-4 q132 -18 202 -111t70 -229q0 -230 -164 -328t-383 -98q-211 0 -375 46z" />
<glyph unicode="4" d="M33 297v231l535 902h356v-920h182v-213h-182v-297h-275v297h-616zM291 510h358v620h-4z" />
<glyph unicode="5" d="M148 16l6 256q172 -72 292 -72q80 0 150 26.5t113 83t43 142.5q0 129 -94.5 188.5t-233.5 59.5q-132 0 -256 -38l14 768h822v-214h-552l-6 -304q76 14 132 14q186 0 323 -107t137 -358q0 -136 -63 -246.5t-189 -174.5t-304 -64q-162 0 -334 40z" />
<glyph unicode="6" d="M90 641q0 214 54 397.5t185.5 299.5t348.5 116q155 0 301 -51l-37 -231q-134 58 -250 57q-170 0 -251 -128.5t-89 -314.5l4 -4q98 144 277 144q132 0 226.5 -54t142.5 -153t48 -229q0 -239 -119 -376.5t-355 -137.5q-187 0 -295.5 91t-149.5 238t-41 336zM377 442 q0 -70 20.5 -127.5t65.5 -92t113 -34.5q93 0 140 76q48 74 48 180q0 114 -48.5 191t-145.5 77q-99 0 -146 -76t-47 -194z" />
<glyph unicode="7" d="M102 1204v226h922v-238l-508 -1192h-311l530 1204h-633z" />
<glyph unicode="8" d="M72 387q0 227 262 355v4q-110 50 -174 136t-64 195q0 124 58.5 209t161.5 126.5t235 41.5q130 0 239.5 -37t174.5 -115t65 -192q0 -103 -62 -199.5t-176 -142.5v2v-4q274 -128 275 -375q0 -208 -134.5 -311.5t-356.5 -103.5q-144 0 -258 43t-180 136t-66 232zM358 391 q0 -88 65 -145.5t153 -57.5t146 52t58 139q0 169 -240 247q-87 -42 -134.5 -96t-47.5 -139zM370 1069q0 -82 62 -129.5t164 -85.5q63 23 111.5 83.5t48.5 123.5q0 81 -48 130.5t-128 49.5q-84 0 -147 -45.5t-63 -126.5z" />
<glyph unicode="9" d="M90 940q0 158 52 273t158.5 178t264.5 63q272 0 379 -184q106 -186 106 -482q0 -214 -53.5 -397t-185 -299t-348.5 -116q-156 0 -301 50l36 232q134 -58 250 -58t191 63t110 163t39 217l-4 4q-50 -74 -118 -108.5t-158 -34.5q-200 0 -309 117.5t-109 318.5zM377 985 q0 -114 49 -191t146 -77q98 0 145 76.5t47 193.5q0 110 -49.5 182t-149.5 72q-94 0 -141 -75.5t-47 -180.5z" />
<glyph unicode=":" horiz-adv-x="569" d="M142 0v286h286v-286h-286zM142 768v286h286v-286h-286z" />
<glyph unicode=";" horiz-adv-x="569" d="M47 -226l131 512h297l-186 -512h-242zM142 768v286h286v-286h-286z" />
<glyph unicode="&#x3c;" horiz-adv-x="1229" d="M94 430v176l1040 446v-208l-764 -326l764 -326v-208z" />
<glyph unicode="=" horiz-adv-x="1229" d="M94 188v214h1040v-214h-1040zM94 635v213h1040v-213h-1040z" />
<glyph unicode="&#x3e;" horiz-adv-x="1229" d="M94 -16v208l764 326l-764 326v208l1040 -446v-176z" />
<glyph unicode="?" horiz-adv-x="1024" d="M102 1386q226 68 406 68q124 0 231 -39t171.5 -121t64.5 -206q0 -94 -44 -167t-130.5 -170t-130.5 -169t-44 -164h-251q0 131 39.5 218.5t109.5 166.5q28 30 57 60.5t49 58.5t33 61t13 71q0 96 -68 141.5t-168 45.5q-138 0 -315 -82zM358 0v286h287v-286h-287z" />
<glyph unicode="@" horiz-adv-x="1638" d="M76 715q0 200 102.5 370.5t284 269.5t405.5 99q174 0 334 -65.5t260 -202t100 -334.5q0 -148 -57 -258t-143 -178.5t-172 -101t-144 -32.5q-46 0 -77 28t-33 79h-4q-96 -107 -207 -107q-84 0 -157.5 43.5t-116.5 121.5q-43 77 -43 173q0 132 56 246t154 181t212 67 q150 0 237 -131l25 99h172l-113 -498q-15 -54 -15 -70q0 -30 32 -30q54 0 108 39t88.5 121t34.5 202q0 155 -77.5 249.5t-197.5 132.5t-256 38q-126 0 -233 -44.5t-184.5 -122t-119.5 -177t-42 -207.5q0 -156 68.5 -282t189.5 -197.5t272 -71.5q319 0 473 129h174 q-215 -317 -647 -317q-186 0 -357 84.5t-278.5 252.5t-107.5 402zM620 652q0 -74 42 -121t112 -47q62 0 115 38.5t83 100.5q30 63 30 127q0 74 -41.5 119t-110.5 45q-64 0 -117 -39.5t-83 -100.5q-30 -60 -30 -122z" />
<glyph unicode="A" horiz-adv-x="1478" d="M18 0l558 1430h323l561 -1430h-317l-123 328h-580l-124 -328h-298zM522 553h418l-207 590h-4z" />
<glyph unicode="B" horiz-adv-x="1251" d="M166 0v1430h500q184 0 322 -79t138 -288q0 -126 -77 -210.5t-207 -108.5v-4q96 -9 171 -53.5t116 -115.5t41 -157q0 -238 -156 -326t-348 -88h-500zM452 226h136q294 0 294 198q0 88 -41 135t-105 63.5t-148 16.5h-136v-413zM452 852h118q270 0 270 174q0 111 -74 144.5 t-203 33.5h-111v-352z" />
<glyph unicode="C" horiz-adv-x="1251" d="M96 690q0 181 54 324.5t156.5 241.5t247 148t326.5 50q172 0 324 -60l-20 -241q-134 76 -310 76q-109 0 -197 -38.5t-151.5 -109.5t-96.5 -166t-33 -205q0 -144 58 -261t168 -183t258 -66q84 0 174 17t140 43l12 -240q-192 -44 -326 -44q-234 0 -411 79t-275 240t-98 395 z" />
<glyph unicode="D" horiz-adv-x="1478" d="M166 0v1430h391q825 0 825 -715q0 -206 -64.5 -346t-178.5 -220.5t-260.5 -114.5t-321.5 -34h-391zM452 226h160q122 0 231 58.5t175 170t66 260.5q0 114 -39 205.5t-105.5 154.5t-151 96t-176.5 33h-160v-978z" />
<glyph unicode="E" d="M166 0v1430h844v-226h-558v-352h510v-226h-510v-400h562v-226h-848z" />
<glyph unicode="F" horiz-adv-x="1024" d="M166 0v1430h794v-226h-508v-352h484v-226h-484v-626h-286z" />
<glyph unicode="G" horiz-adv-x="1478" d="M96 690q0 181 54 324.5t156.5 241.5t247 148t326.5 50q222 0 420 -60l-18 -241q-164 76 -368 76q-162 0 -280 -67.5t-178 -185.5t-60 -266q0 -144 58 -261t168 -183t258 -66q105 0 189 21v373h-303v225h578v-770q-272 -73 -464 -73q-234 0 -411 79t-275 240t-98 395z" />
<glyph unicode="H" horiz-adv-x="1478" d="M166 0v1430h286v-578h574v578h287v-1430h-287v626h-574v-626h-286z" />
<glyph unicode="I" horiz-adv-x="569" d="M142 0v1430h286v-1430h-286z" />
<glyph unicode="J" horiz-adv-x="796" d="M45 2v248q65 -24 137 -24q122 0 154 68.5t32 182.5v953h288v-1090q0 -84 -40 -168t-128 -140t-224 -56q-115 0 -219 26z" />
<glyph unicode="K" horiz-adv-x="1366" d="M166 0v1430h286v-615l516 615h353l-588 -674l613 -756h-375l-515 664h-4v-664h-286z" />
<glyph unicode="L" horiz-adv-x="1024" d="M166 0v1430h286v-1204h556v-226h-842z" />
<glyph unicode="M" horiz-adv-x="1933" d="M166 0v1430h458l340 -1084h4l340 1084h460v-1430h-275v1180h-4l-385 -1180h-274l-386 1180l-4 -4v-1176h-274z" />
<glyph unicode="N" horiz-adv-x="1478" d="M152 0v1430h352l544 -1070h4v1070h275v-1430h-350l-547 1069h-4v-1069h-274z" />
<glyph unicode="O" horiz-adv-x="1593" d="M96 719q0 220 81 386t239 257.5t380 91.5q218 0 377.5 -93t241.5 -260t82 -382q0 -217 -81.5 -386t-240.5 -263t-379 -94q-224 0 -381.5 93t-238 261t-80.5 389zM396 719q0 -137 41 -255t131 -191t228 -73t229 73t132 191t41 255q0 132 -43 249t-133 189q-92 72 -226 72 t-224.5 -72t-133 -189t-42.5 -249z" />
<glyph unicode="P" d="M142 0v1430h362q266 0 431 -98t165 -334t-151 -346t-400 -110h-121v-542h-286zM428 768h100q272 0 273 213q0 118 -75.5 170.5t-197.5 52.5h-100v-436z" />
<glyph unicode="Q" horiz-adv-x="1593" d="M96 719q0 220 81 386t239 257.5t380 91.5q218 0 377.5 -93t241.5 -260t82 -382q0 -153 -41 -284t-122.5 -230t-197.5 -154l324 -321h-346l-250 250q-20 -4 -68 -4q-224 0 -381.5 93t-238 261t-80.5 389zM396 719q0 -137 41 -255t131 -191t228 -73t229 73t132 191t41 255 q0 132 -43 249t-133 189q-92 72 -226 72t-224.5 -72t-133 -189t-42.5 -249z" />
<glyph unicode="R" horiz-adv-x="1251" d="M142 0v1430h308h46q146 0 245 -9.5t188 -46t142 -116.5t53 -216q0 -84 -35.5 -155t-103 -118t-155.5 -59v-4q88 -7 151 -147l229 -559h-319l-172 446q-21 54 -44 86.5t-59 47t-96 14.5h-92v-594h-286zM428 819h94q136 0 220 39.5t84 159.5q0 116 -82 151t-222 35h-94 v-385z" />
<glyph unicode="S" d="M119 1018q0 151 69.5 249.5t183.5 142.5q112 44 246 44q188 0 342 -51l-26 -235q-140 61 -286 61h-5q-90 0 -157.5 -46.5t-67.5 -152.5q0 -80 50.5 -108t229.5 -102t262.5 -162t83.5 -250q0 -149 -71 -246.5t-192 -141.5t-273 -44q-106 0 -165 10t-201 44l26 259 q162 -89 324 -89q95 0 174.5 48t79.5 137q0 90 -62 126.5t-230 106.5t-251.5 155t-83.5 245z" />
<glyph unicode="T" d="M16 1204v226h1106v-226h-410v-1204h-286v1204h-410z" />
<glyph unicode="U" horiz-adv-x="1478" d="M156 516v914h286v-826q0 -404 298 -404q296 0 296 404v826h287v-914q1 -540 -583 -540t-584 540z" />
<glyph unicode="V" horiz-adv-x="1366" d="M20 1430h308l366 -1123h4l363 1123h285l-482 -1430h-352z" />
<glyph unicode="W" horiz-adv-x="2048" d="M20 1430h302l266 -1144h4l244 1144h388l252 -1144h4l269 1144h279l-373 -1430h-369l-258 1143h-4l-254 -1143h-370z" />
<glyph unicode="X" horiz-adv-x="1366" d="M20 0l470 744l-426 686h332l298 -510l306 510h306l-430 -686l470 -744h-338l-330 557l-334 -557h-324z" />
<glyph unicode="Y" horiz-adv-x="1366" d="M22 1430h336l338 -600l344 600h304l-512 -865v-565h-287v565z" />
<glyph unicode="Z" d="M74 0v234l672 970h-646v226h950v-234l-678 -970h693v-226h-991z" />
<glyph unicode="[" horiz-adv-x="682" d="M148 -286v1834h458v-200h-196v-1434h196v-200h-458z" />
<glyph unicode="\" horiz-adv-x="796" d="M41 1454h213l500 -1478h-214z" />
<glyph unicode="]" horiz-adv-x="682" d="M76 -86h196v1434h-196v200h458v-1834h-458v200z" />
<glyph unicode="^" horiz-adv-x="1229" d="M135 641l383 789h192l384 -789h-214l-266 573l-266 -573h-213z" />
<glyph unicode="_" horiz-adv-x="1024" d="M0 -154h1024v-102h-1024v102z" />
<glyph unicode="`" horiz-adv-x="569" d="M60 1497h280l170 -299h-170z" />
<glyph unicode="a" d="M74 289q0 212 180 301q126 62 354 62h152q0 124 -57 175t-181 51q-56 0 -114 -14t-112 -39.5t-100 -60.5l-8 236q80 36 179 58t188 22q162 0 261.5 -46.5t146.5 -144t47 -254.5v-135q0 -124 4 -264q2 -108 12 -236h-242q-5 27 -7 56.5t-2.5 46.5t-2.5 55h-4 q-46 -84 -137 -133t-189 -49q-95 0 -180 37t-136.5 108.5t-51.5 167.5zM336 305q0 -64 48 -96.5t126 -32.5q122 0 192 94q58 76 58 218h-119q-305 0 -305 -183z" />
<glyph unicode="b" horiz-adv-x="1251" d="M142 0v1536h274v-616h4q120 160 315 160q118 0 202.5 -43t138 -119.5t78 -175t24.5 -212.5q0 -112 -24.5 -211.5t-78 -177t-138.5 -121.5t-202 -44q-94 0 -180.5 37t-142.5 116h-4v-129h-266zM418 530q0 -83 24 -161t78 -129.5t140 -51.5q84 0 135.5 52t73.5 130t22 160 q0 80 -21.5 157t-72.5 128t-133 51q-64 0 -111 -30t-76.5 -79t-44 -109t-14.5 -118z" />
<glyph unicode="c" horiz-adv-x="909" d="M74 532q0 154 59.5 279t175 197t275.5 72q148 0 266 -36l-24 -216q-86 38 -187 38q-83 0 -146.5 -41.5t-98.5 -117.5q-34 -77 -34 -175q0 -152 73 -248t212 -96q98 0 211 50l12 -228q-112 -34 -274 -34q-168 0 -285.5 71t-176.5 197q-58 124 -58 288z" />
<glyph unicode="d" horiz-adv-x="1251" d="M74 530q0 114 24 212t77 174.5t138 120t203 43.5q194 0 316 -148h4v604h274v-1536h-266v119h-4q-114 -143 -324 -143q-118 0 -203 44t-138 122t-77 177t-24 211zM360 530q0 -133 55 -237.5t177 -104.5q86 0 140 52t78 130t24 160q0 57 -15 117.5t-44 109.5t-76 79 t-111 30q-84 0 -134.5 -51t-72 -128t-21.5 -157z" />
<glyph unicode="e" d="M74 522q0 155 55 282.5t166 201.5t268 74q276 0 389 -167t113 -471h-729q9 -126 90.5 -196t210.5 -70q158 0 350 106v-222q-153 -84 -363 -84q-130 0 -232 36t-173 107t-108 173t-37 230zM336 631h467q-6 110 -60.5 178.5t-162.5 68.5q-110 0 -172 -67.5t-72 -179.5z" />
<glyph unicode="f" horiz-adv-x="796" d="M39 854v200h203v148q0 162 88 260t248 98q105 0 200 -22l-22 -228q-62 38 -119 38q-121 0 -121 -162v-132h240v-200h-240v-854h-274v854h-203z" />
<glyph unicode="g" horiz-adv-x="1251" d="M74 532q0 135 48 260.5t149 206.5t249 81q218 0 324 -168h4v142h262v-952q0 -248 -126 -402t-431 -154q-197 0 -365 71l23 233q67 -36 157 -64t150 -28q140 0 210 60t89 145t19 205h-4q-40 -72 -128.5 -120t-199.5 -48q-113 0 -195.5 42t-134.5 116.5t-76 170t-24 203.5z M360 532q0 -121 62 -220t172 -99q122 0 182 91.5t60 233.5q0 94 -25 168t-76.5 117t-128.5 43q-128 0 -187 -97t-59 -237z" />
<glyph unicode="h" horiz-adv-x="1251" d="M142 0v1536h274v-624h4q54 79 140 123.5t192 44.5q120 0 201 -53t119 -147q38 -92 38 -214v-666h-274v563q0 139 -31 221t-147 82q-92 0 -146 -55t-75 -135.5t-21 -159.5v-516h-274z" />
<glyph unicode="i" horiz-adv-x="569" d="M148 0v1054h274v-1054h-274zM148 1247v263h274v-263h-274z" />
<glyph unicode="j" horiz-adv-x="569" d="M-30 -438l10 196q76 4 110 20t46 56t12 125v1095h274v-1132q0 -93 -25 -176.5t-95 -141.5t-198 -58q-80 0 -134 16zM148 1247v263h274v-263h-274z" />
<glyph unicode="k" d="M148 0v1536h274v-903h4l328 421h323l-393 -470l442 -584h-348l-352 512h-4v-512h-274z" />
<glyph unicode="l" horiz-adv-x="569" d="M148 0v1536h274v-1536h-274z" />
<glyph unicode="m" horiz-adv-x="1820" d="M137 0v1054h256v-146h5q60 90 143 131t169 41q227 0 312 -187q46 90 137 138.5t193 48.5q184 0 259 -110t75 -304v-666h-275v628q0 70 -8 118.5t-42.5 84t-106.5 35.5q-206 0 -206 -354v-512h-274v628q0 70 -8 118.5t-43 84t-107 35.5q-204 0 -204 -354v-512h-275z" />
<glyph unicode="n" horiz-adv-x="1251" d="M142 0v1054h260v-142h4q120 168 346 168q120 0 201 -53t119 -147q38 -92 38 -214v-666h-274v563q0 139 -31 221t-147 82q-92 0 -146 -55t-75 -135.5t-21 -159.5v-516h-274z" />
<glyph unicode="o" horiz-adv-x="1251" d="M74 520q0 170 71.5 297t198 195t280.5 68q156 0 283 -68t199 -195t72 -297q0 -152 -66 -276.5t-192 -195.5q-126 -72 -296 -72q-169 0 -293.5 71t-190.5 196t-66 277zM360 553q0 -154 61 -259.5t203 -105.5q144 0 205.5 105t61.5 260q0 84 -29.5 155.5t-89.5 114.5 q-62 43 -148 43q-85 0 -144.5 -44t-89.5 -115.5t-30 -153.5z" />
<glyph unicode="p" horiz-adv-x="1251" d="M142 -430v1484h262v-149h4q104 175 327 175q118 0 202.5 -43t138 -119.5t78 -175t24.5 -212.5q0 -112 -25 -212t-78.5 -177t-139.5 -121t-206 -44q-96 0 -168.5 31t-140.5 114h-4v-551h-274zM418 530q0 -83 24 -161t78 -129.5t140 -51.5q84 0 135.5 52t73.5 130t22 160 q0 80 -21.5 157t-72 128t-133.5 51q-64 0 -111 -30t-76.5 -79t-44 -109t-14.5 -118z" />
<glyph unicode="q" horiz-adv-x="1251" d="M74 530q0 114 24 211.5t78 174.5t140 120.5t206 43.5q216 0 322 -175h4v149h262v-1484h-274v551h-4q-68 -83 -141 -114t-169 -31q-120 0 -206 44t-140 122t-78 177t-24 211zM360 530q0 -133 55 -237.5t177 -104.5q86 0 140 52t78 130t24 160q0 57 -15 117.5t-44 109.5 t-76 79t-111 30q-84 0 -134.5 -51t-72 -128t-21.5 -157z" />
<glyph unicode="r" horiz-adv-x="796" d="M148 0v1054h243v-239h5q6 53 45 115t103 106t140 44q56 0 84 -9v-277q-38 22 -123 23q-102 0 -151.5 -69.5t-60.5 -157.5t-11 -203v-387h-274z" />
<glyph unicode="s" horiz-adv-x="909" d="M74 752q0 108 57 182t151 110t206 36q116 0 298 -40l-18 -206q-132 44 -246 44q-66 0 -114 -27.5t-48 -88.5q0 -54 84 -86t174.5 -63t155 -97t64.5 -196q0 -117 -62 -194.5t-163 -113.5t-217 -36q-141 0 -312 44l16 226q140 -70 270 -70q67 0 124 30t57 99 q0 68 -44.5 89.5t-174.5 62.5t-194 103q-64 64 -64 192z" />
<glyph unicode="t" horiz-adv-x="796" d="M28 854v200h204v212l274 88v-300h244v-200h-244v-492q0 -174 129 -174q80 0 125 29l8 -217q-86 -24 -203 -24q-106 0 -180.5 41t-113.5 118.5t-39 182.5v536h-204z" />
<glyph unicode="u" horiz-adv-x="1251" d="M142 389v665h274v-562q0 -87 9 -150.5t48.5 -108.5t120.5 -45q92 0 146 56t75 134t21 160v516h274v-1054h-260v144h-4q-138 -168 -346 -168q-120 0 -201 52t-119 146t-38 215z" />
<glyph unicode="v" d="M24 1054h296l262 -768h4l254 768h274l-389 -1054h-309z" />
<glyph unicode="w" horiz-adv-x="1820" d="M22 1054h292l233 -780h4l213 780h320l229 -780h4l219 780h262l-324 -1054h-323l-229 805h-4l-226 -805h-313z" />
<glyph unicode="x" d="M18 0l363 553l-325 501h323l207 -344l202 344h292l-316 -501l356 -553h-328l-235 393l-237 -393h-302z" />
<glyph unicode="y" d="M22 1054h304l254 -770h4l254 770h278l-395 -1046q-59 -156 -81 -209t-68 -116t-117 -100t-173 -37q-96 0 -194 28l18 203q52 -19 142 -19q82 0 130 52t48 137z" />
<glyph unicode="z" horiz-adv-x="1024" d="M74 0v223l534 619h-512v212h836v-224l-524 -617h542v-213h-876z" />
<glyph unicode="{" horiz-adv-x="682" d="M37 542v177q67 0 117.5 45.5t50.5 145.5v362q0 90 43.5 153t112.5 93t147 30h154v-164h-92q-63 0 -83 -35.5t-20 -113.5v-355q0 -128 -70.5 -183.5t-158.5 -63.5v-5q230 -22 229 -262v-340q0 -79 19.5 -114t83.5 -35h92v-163h-154q-80 0 -149.5 31t-111.5 94t-42 151v348 q0 108 -50 156t-118 48z" />
<glyph unicode="|" horiz-adv-x="454" d="M121 -24v1560h213v-1560h-213z" />
<glyph unicode="}" horiz-adv-x="682" d="M20 -123h92q64 0 83.5 35.5t19.5 113.5v340q-1 240 229 262v5q-89 8 -159 64q-70 55 -70 183v355q0 78 -19.5 113.5t-83.5 35.5h-92v164h154q81 0 150 -30t111 -93t42 -153v-362q0 -100 51 -145.5t117 -45.5v-177q-68 0 -118 -48t-50 -156v-348q0 -90 -42 -153t-111 -93 t-150 -30h-154v163z" />
<glyph unicode="~" horiz-adv-x="1229" d="M142 516q94 180 247 180q107 0 239 -70q36 -18 59.5 -29t51 -21.5t52.5 -16.5t53 -6q48 0 86 38.5t84 108.5l74 -180q-106 -180 -236 -180q-63 0 -113 17q-51 17 -125 55q-68 36 -115 54t-108 18q-108 0 -176 -148z" />
<glyph unicode="&#xa3;" horiz-adv-x="796" d="M45 2v248q65 -24 137 -24q122 0 154 68.5t32 182.5v953h288v-1090q0 -84 -40 -168t-128 -140t-224 -56q-115 0 -219 26z" />
<glyph unicode="&#xa4;" d="M37 307l119 119q-94 133 -94 293q0 159 94 293l-119 118l121 122l118 -120q132 94 294 95q158 -1 292 -95l119 120l121 -122l-119 -118q94 -132 94 -291q0 -158 -94 -295l119 -119l-121 -121l-119 119q-134 -94 -292 -94t-294 94l-118 -119zM286 719q0 -121 84 -208 t200 -87q76 0 141 40t103 108t38 147t-38 147t-103 108t-141 40q-78 0 -142.5 -40t-103 -108t-38.5 -147z" />
<glyph unicode="&#xa6;" horiz-adv-x="454" d="M121 -24v562h213v-562h-213zM121 973v563h213v-563h-213z" />
<glyph unicode="&#xa7;" d="M135 584q0 184 158 276q-74 52 -108.5 108t-34.5 136q0 114 65 193.5t167 118t214 38.5q111 0 328 -41l-23 -223q-137 51 -293 51q-196 0 -196 -139q0 -69 57 -99t217 -89.5t240 -129.5t80 -196q0 -83 -40 -152.5t-112 -109.5q66 -38 103 -100t37 -134q0 -116 -65 -200 t-170 -127t-219 -43q-140 0 -378 59l18 233q194 -80 344 -80q206 0 207 142q0 68 -58 98.5t-219.5 92t-239.5 129.5q-79 68 -79 188zM348 633q0 -60 60 -99.5t171 -82.5t140 -60q73 63 73 154q0 64 -49.5 100.5t-164.5 78.5q-116 40 -156 60q-30 -21 -52 -63t-22 -88z" />
<glyph unicode="&#xa8;" d="M166 0v1430h844v-226h-558v-352h510v-226h-510v-400h564v-226h-850zM240 1571v237h237v-237h-237zM662 1571v237h237v-237h-237z" />
<glyph unicode="&#xa9;" horiz-adv-x="1638" d="M80 715q0 200 99.5 370t270 269.5t369.5 99.5q200 0 370.5 -99.5t269.5 -270t99 -369.5q0 -200 -99 -370.5t-269.5 -269.5t-370.5 -99t-370 99t-269.5 269.5t-99.5 370.5zM293 715q0 -125 39.5 -232t112 -184t168 -118t206.5 -41q110 0 205.5 41t168 118t113 183.5 t40.5 232.5t-40.5 231.5t-113 182.5t-168 119t-205.5 42t-206.5 -42t-168.5 -119t-111.5 -183t-39.5 -231zM430 721q0 126 50 224.5t144 155t220 56.5q93 0 168.5 -35.5t124.5 -104.5t63 -167h-164q-13 70 -65.5 107t-126.5 37q-102 0 -157.5 -74t-55.5 -197 q0 -116 60.5 -195.5t156.5 -79.5q78 0 129 39t59 109h170q-16 -98 -66.5 -168t-126 -107t-165.5 -37q-124 0 -219 57t-147 157t-52 223z" />
<glyph unicode="&#xab;" d="M100 551l242 420h258l-225 -420l225 -420h-258zM557 551l241 420h259l-225 -420l225 -420h-259z" />
<glyph unicode="&#xac;" horiz-adv-x="1229" d="M94 635v213h1040v-627h-212v414h-828z" />
<glyph unicode="&#xad;" horiz-adv-x="569" d="M-10 1266v164h590v-164h-590z" />
<glyph unicode="&#xae;" horiz-adv-x="1638" d="M80 715q0 200 99.5 370t270 269.5t369.5 99.5q200 0 370.5 -99.5t269.5 -270t99 -369.5q0 -200 -99 -370.5t-269.5 -269.5t-370.5 -99t-370 99t-269.5 269.5t-99.5 370.5zM293 715q0 -125 39.5 -232t112 -184t168 -118t206.5 -41q110 0 205.5 41t168 118t113 184 t40.5 232q0 126 -40.5 231.5t-113 182.5t-168 119t-205.5 42t-206.5 -42t-168.5 -119t-111.5 -183.5t-39.5 -230.5zM522 307v821h310q164 0 245.5 -56t81.5 -190q0 -200 -217 -218l217 -357h-180l-197 349h-84v-349h-176zM698 790h144q72 0 106.5 22t34.5 87q1 95 -159 95 h-126v-204z" />
<glyph unicode="&#xaf;" horiz-adv-x="569" d="M-45 1571v237h237v-237h-237zM142 0v1430h286v-1430h-286zM377 1571v237h237v-237h-237z" />
<glyph unicode="&#xb0;" horiz-adv-x="819" d="M80 1124q0 66 25 127t71 106.5t106 71t128 25.5q89 0 165 -44t121 -120q44 -78 44 -166q0 -91 -44 -166.5t-120 -119.5t-166 -44q-142 0 -236 94t-94 236zM230 1124q0 -80 50 -130t130 -50q52 0 93 23t64 64t23 93q0 53 -23 94t-64 63.5t-93 22.5q-79 0 -129.5 -50 t-50.5 -130z" />
<glyph unicode="&#xb1;" horiz-adv-x="1229" d="M94 0v213h1040v-213h-1040zM94 553v213h414v270h213v-270h413v-213h-413v-273h-213v273h-414z" />
<glyph unicode="&#xb2;" horiz-adv-x="569" d="M142 0v1430h286v-1430h-286z" />
<glyph unicode="&#xb3;" horiz-adv-x="569" d="M148 0v1054h274v-1054h-274zM148 1247v263h274v-263h-274z" />
<glyph unicode="&#xb5;" horiz-adv-x="1251" d="M142 -430v1484h274v-562q0 -87 9 -150.5t48.5 -108.5t120.5 -45q92 0 146 56t75 134t21 160v516h274v-1054h-260v144h-4q-26 -64 -90 -116t-138 -52q-64 0 -111 13t-87 56h-4v-475h-274z" />
<glyph unicode="&#xb6;" horiz-adv-x="1270" d="M4 1057q0 202 130 287q130 86 362 86h600v-1684h-214v1520h-216v-1520h-214v952q-210 0 -329 97t-119 262z" />
<glyph unicode="&#xb8;" d="M74 522q0 156 55 283t166.5 201t269.5 74q275 0 387.5 -167t112.5 -471h-729q9 -126 90.5 -196t210.5 -70q156 0 352 106v-222q-155 -84 -363 -84q-130 0 -232.5 36t-174 107t-108.5 173t-37 230zM240 1247v240h237v-240h-237zM336 631h467q-6 110 -60.5 178.5 t-162.5 68.5q-110 0 -172 -68t-72 -179zM662 1247v240h237v-240h-237z" />
<glyph unicode="&#xb9;" horiz-adv-x="813" d="M43 1122q0 99 50 174.5t135 116.5t182 41q72 0 138 -23.5t116 -67t78 -105.5t28 -136q0 -152 -104 -244t-258 -92q-100 0 -184 41t-132.5 118t-48.5 177zM244 1122q0 -212 166 -212q160 0 160 212q0 86 -37.5 147.5t-118.5 61.5q-88 0 -129 -58.5t-41 -150.5z" />
<glyph unicode="&#xbb;" d="M82 131l225 420l-225 420h258l242 -420l-242 -420h-258zM538 131l226 420l-226 420h258l242 -420l-242 -420h-258z" />
<glyph unicode="&#xbc;" horiz-adv-x="569" d="M-30 -438l10 196q76 4 110 20t46 56t12 125v1095h274v-1132q0 -93 -25 -176.5t-95 -141.5t-198 -58q-80 0 -134 16zM148 1247v263h274v-263h-274z" />
<glyph unicode="&#xbd;" d="M119 1018q0 151 69.5 249.5t183.5 142.5q112 44 246 44q188 0 342 -51l-26 -235q-142 62 -291 61q-90 0 -157.5 -46.5t-67.5 -152.5q0 -80 50.5 -108t229.5 -102t262.5 -162t83.5 -250q0 -149 -71 -246.5t-192 -141.5t-273 -44q-106 0 -165 10t-201 44l26 259 q162 -89 324 -89q95 0 174.5 48t79.5 137q0 90 -62 126.5t-230 106.5t-251.5 155t-83.5 245z" />
<glyph unicode="&#xbe;" horiz-adv-x="909" d="M74 752q0 108 57 182t151 110t206 36q116 0 298 -40l-18 -206q-132 44 -246 44q-66 0 -114 -27.5t-48 -88.5q0 -54 84 -86t174.5 -63t155 -97t64.5 -196q0 -117 -62 -194.5t-163 -113.5t-217 -36q-141 0 -312 44l16 226q140 -70 270 -70q67 0 124 30t57 99 q0 68 -44.5 89.5t-174.5 62.5t-194 103q-64 64 -64 192z" />
<glyph unicode="&#xbf;" horiz-adv-x="569" d="M-45 1247v238h237v-238h-237zM148 0v1054h274v-1054h-274zM377 1247v238h237v-238h-237z" />
<glyph unicode="&#xc0;" horiz-adv-x="1478" d="M18 0l558 1430h323l561 -1430h-317l-123 328h-580l-124 -328h-298zM522 553h418l-207 590h-4z" />
<glyph unicode="&#xc1;" horiz-adv-x="1251" d="M166 0v1430h934v-226h-648v-340h174q550 0 550 -454q0 -146 -81 -238.5t-214 -132t-301 -39.5h-414zM452 226h154q126 0 198 43t72 157q0 213 -270 213h-154v-413z" />
<glyph unicode="&#xc2;" horiz-adv-x="1251" d="M166 0v1430h502q185 0 321.5 -78t136.5 -289q0 -126 -77 -210.5t-207 -108.5v-4q96 -9 171 -53.5t116 -115.5t41 -157q0 -238 -156 -326t-346 -88h-502zM452 226h136q294 0 294 198q0 88 -41 135t-105 63.5t-148 16.5h-136v-413zM452 852h118q270 0 270 174q0 78 -39 117 t-96.5 50t-139.5 11h-113v-352z" />
<glyph unicode="&#xc3;" horiz-adv-x="1024" d="M166 0v1430h842v-226h-556v-1204h-286z" />
<glyph unicode="&#xc4;" horiz-adv-x="1290" d="M16 226q96 0 138 55t42 198v951h942v-1204h93v-472h-275v246h-663v-246h-277v472zM402 226h450v978h-381v-725q0 -129 -25.5 -185t-43.5 -68z" />
<glyph unicode="&#xc5;" d="M166 0v1430h844v-226h-558v-352h510v-226h-510v-400h564v-226h-850z" />
<glyph unicode="&#xc6;" horiz-adv-x="1933" d="M47 0l498 756l-473 674h352l402 -615v615h286v-615l404 615h350l-474 -674l498 -756h-374l-398 664h-6v-664h-286v664h-5l-399 -664h-375z" />
<glyph unicode="&#xc7;" horiz-adv-x="1063" d="M53 22l17 244q168 -66 317 -66q64 0 135.5 22t119.5 68t48 114q0 222 -305 222h-159v226h130q145 0 220 48q76 46 76 140q0 68 -33 110t-88 60.5t-125 18.5q-166 0 -322 -76l-16 231q186 70 399 70q76 0 156.5 -16t152.5 -56t118 -113t46 -181q0 -138 -63 -217t-183 -125 v-4q130 -24 206 -116q77 -92 77 -224q0 -230 -164.5 -328t-384.5 -98q-211 0 -375 46z" />
<glyph unicode="&#xc8;" horiz-adv-x="1478" d="M152 0v1430h274v-1070h4l545 1070h352v-1430h-275v1071h-2l-548 -1071h-350z" />
<glyph unicode="&#xc9;" horiz-adv-x="1478" d="M152 0v1430h274v-1070h4l545 1070h352v-1430h-275v1071h-2l-548 -1071h-350zM385 1808h127q18 -78 71 -121t134 -43q82 0 136.5 43t74.5 121h124q-6 -90 -50.5 -161t-119 -109.5t-165.5 -38.5q-90 0 -164.5 39t-119.5 109.5t-48 160.5z" />
<glyph unicode="&#xca;" horiz-adv-x="1366" d="M166 0v1430h286v-615l516 615h355l-590 -674l613 -756h-375l-515 664h-4v-664h-286z" />
<glyph unicode="&#xcb;" horiz-adv-x="1290" d="M10 226q86 0 127 38t50 89t9 124v953h942v-1430h-286v1204h-381v-844q0 -84 -39.5 -173t-127.5 -150t-224 -61z" />
<glyph unicode="&#xcc;" horiz-adv-x="1933" d="M166 0v1430h460l338 -1084h4l342 1084h458v-1430h-273v1180h-6l-385 -1180h-272l-388 1180l-4 -4v-1176h-274z" />
<glyph unicode="&#xcd;" horiz-adv-x="1478" d="M166 0v1430h286v-578h574v578h287v-1430h-287v626h-574v-626h-286z" />
<glyph unicode="&#xce;" horiz-adv-x="1593" d="M96 719q0 220 81 386.5t239 257.5t380 91q220 0 378 -92t240.5 -259t82.5 -384t-81.5 -386t-240.5 -263t-379 -94q-224 0 -381.5 93t-238 261t-80.5 389zM396 719q0 -137 41 -255t131 -191t228 -73q140 0 231 73t132 191t41 255q0 133 -43 249.5t-134 188.5t-227 72 q-134 0 -224.5 -72t-133 -188.5t-42.5 -249.5z" />
<glyph unicode="&#xcf;" horiz-adv-x="1478" d="M166 0v1430h1147v-1430h-287v1204h-574v-1204h-286z" />
<glyph unicode="&#xd0;" horiz-adv-x="1251" d="M166 0v1430h404q266 0 431 -98t165 -334t-151 -346t-401 -110h-162v-542h-286zM452 770h142q272 0 272 211q0 118 -75 170.5t-197 52.5h-142v-434z" />
<glyph unicode="&#xd1;" horiz-adv-x="1251" d="M96 690q0 181 54 324.5t156.5 241.5t247 148t326.5 50q172 0 324 -60l-20 -241q-132 76 -310 76q-109 0 -197 -38.5t-151.5 -109.5t-96.5 -166t-33 -205q0 -144 58 -261t168 -183t258 -66q84 0 173.5 17t140.5 43l12 -240q-192 -44 -326 -44q-234 0 -411 79t-275 240 t-98 395z" />
<glyph unicode="&#xd2;" d="M16 1204v226h1106v-226h-410v-1204h-286v1204h-410z" />
<glyph unicode="&#xd3;" horiz-adv-x="1366" d="M14 1430h324l381 -797l323 797h298l-607 -1430h-297l144 328z" />
<glyph unicode="&#xd4;" horiz-adv-x="1822" d="M88 715q0 134 51 244.5t142.5 188.5t215.5 118t269 40v124h286v-124q145 0 269.5 -40t216.5 -118t142 -188t50 -245q0 -136 -50 -245.5t-142 -187t-216 -118.5t-270 -41v-123h-286v123q-145 0 -269 41t-215.5 118.5t-142.5 188.5t-51 244zM387 715q0 -110 51.5 -194.5 t139.5 -130.5t188 -46v742q-100 0 -188 -46t-139.5 -131t-51.5 -194zM1052 344q100 0 188 46t140 130t52 195q0 110 -52 194.5t-140 130.5t-188 46v-742z" />
<glyph unicode="&#xd5;" horiz-adv-x="1366" d="M20 0l470 744l-426 686h332l298 -510l306 510h306l-430 -686l470 -744h-336l-332 557l-334 -557h-324z" />
<glyph unicode="&#xd6;" horiz-adv-x="1478" d="M166 0v1430h286v-1204h574v1204h287v-1204h92v-508h-277v282h-962z" />
<glyph unicode="&#xd7;" horiz-adv-x="1366" d="M108 956v474h288v-449q0 -110 60 -169.5t164 -59.5q156 0 294 104v574h286v-1430h-286v622q-86 -50 -190 -80t-200 -30q-120 0 -214 48.5t-148 149t-54 246.5z" />
<glyph unicode="&#xd8;" horiz-adv-x="1896" d="M166 0v1430h286v-1204h353v1204h287v-1204h352v1204h286v-1430h-1564z" />
<glyph unicode="&#xd9;" horiz-adv-x="1896" d="M166 0v1430h286v-1204h355v1204h287v-1204h352v1204h286v-1204h93v-472h-275v246h-1384z" />
<glyph unicode="&#xda;" horiz-adv-x="139" d="M16 1204v226h512v-543h164q250 0 399.5 -109t149.5 -346q0 -124 -47.5 -208.5t-129 -133t-187 -69.5t-232.5 -21h-403v1204h-226zM528 226h144q120 0 195 53t75 169q0 214 -270 214h-144v-436z" />
<glyph unicode="&#xdb;" horiz-adv-x="1822" d="M162 0v1430h286v-543h172q250 0 402 -109.5t152 -345.5q0 -237 -166 -334q-164 -98 -432 -98h-414zM448 226h152q122 0 197 53t75 169q0 214 -272 214h-152v-436zM1368 0v1430h287v-1430h-287z" />
<glyph unicode="&#xdc;" horiz-adv-x="1251" d="M166 0v1430h286v-543h174q250 0 400 -109t150 -346q0 -124 -47.5 -208.5t-129 -133t-187.5 -69.5q-104 -21 -232 -21h-414zM452 226h154q120 0 195 53t75 169q0 214 -270 214h-154v-436z" />
<glyph unicode="&#xdd;" horiz-adv-x="1251" d="M60 20l12 240q52 -26 141 -43t172 -17q134 0 237.5 54t165.5 150t78 222h-640v226h628q-25 112 -87.5 197t-158.5 132.5t-217 47.5q-175 0 -309 -76l-20 241q76 30 161.5 45t161.5 15q183 0 328 -50.5t247 -148t156 -240.5t54 -325q0 -234 -98 -395t-275 -240t-412 -79 q-133 0 -325 44z" />
<glyph unicode="&#xde;" horiz-adv-x="2048" d="M166 0v1430h286v-578h187q33 281 202 441.5t453 160.5q209 0 359.5 -92t228.5 -259t78 -384q0 -218 -78 -386.5t-228 -262.5q-152 -94 -360 -94q-198 0 -341.5 80t-223.5 226.5t-94 343.5h-183v-626h-286zM928 719q0 -136 37 -254.5t119.5 -191.5t209.5 -73q128 0 211 73 t120.5 191t37.5 255q0 132 -39.5 249t-122.5 189t-207 72q-123 0 -205.5 -72t-121.5 -188t-39 -250z" />
<glyph unicode="&#xdf;" horiz-adv-x="1251" d="M30 0l230 559q64 139 152 149v2q-134 18 -215 111t-81 221q0 134 54 215t142.5 117.5t188 46t245.5 9.5h44h310v-1430h-287v594h-92q-88 0 -127 -32q-38 -32 -72 -116l-172 -446h-320zM416 1018q0 -120 83.5 -159.5t219.5 -39.5h94v385h-94q-140 0 -221.5 -35t-81.5 -151 z" />
<glyph unicode="&#xe0;" d="M74 289q0 212 180 301q126 62 354 62h152q0 124 -57 175t-181 51q-56 0 -114 -14t-112 -40q-54 -25 -100 -60l-8 236q79 38 177.5 59t189.5 21q161 0 261 -46t147 -143.5t47 -255.5v-135q0 -152 6 -264q0 -99 10 -236h-242q-5 27 -7 56.5t-2.5 46.5t-2.5 55h-2 q-47 -84 -138.5 -133t-189.5 -49q-95 0 -180 37t-136.5 108.5t-51.5 167.5zM336 305q0 -64 48 -96.5t126 -32.5q122 0 192 94q58 72 58 218h-119q-305 0 -305 -183z" />
<glyph unicode="&#xe1;" horiz-adv-x="1251" d="M86 549q0 280 62 477.5t210 319.5q66 54 150 86t200.5 60.5t161.5 43t64 43.5l154 -153q-37 -55 -105.5 -86.5t-192 -64.5t-194 -57t-123.5 -69q-125 -105 -155 -231h4q57 70 144.5 116t187.5 46q150 0 270 -68t188 -195t68 -297q0 -152 -67 -276t-191 -196t-289 -72 q-126 0 -228.5 40.5t-173.5 116t-108 182t-37 234.5zM372 553q0 -151 62 -258t199 -107q92 0 150.5 52t84 134.5t25.5 178.5q0 129 -70.5 221t-189.5 92q-120 0 -190.5 -93.5t-70.5 -219.5z" />
<glyph unicode="&#xe2;" d="M142 0v1054h486q404 0 404 -280q0 -82 -47 -142.5t-129 -80.5v-4q98 -22 156.5 -84.5t58.5 -146.5q0 -128 -71 -198.5t-166 -94t-189 -23.5h-503zM404 184h235q68 0 119 38q51 40 51 100q0 64 -48 101.5t-122 37.5h-235v-277zM404 637h224q61 0 103.5 29.5t42.5 81.5 q0 58 -40 90t-106 32h-224v-233z" />
<glyph unicode="&#xe3;" horiz-adv-x="872" d="M142 0v1054h714v-212h-440v-842h-274z" />
<glyph unicode="&#xe4;" d="M16 205q76 0 108 46.5t32 150.5v652h842v-849h75v-451h-264v246h-533v-246h-260v451zM354 205h369v645h-309v-469q0 -114 -60 -176z" />
<glyph unicode="&#xe5;" d="M74 522q0 156 55 283t166.5 201t269.5 74q275 0 387.5 -167t112.5 -471h-729q9 -126 90.5 -196t210.5 -70q156 0 352 106v-222q-155 -84 -363 -84q-130 0 -232.5 36t-174 107t-108.5 173t-37 230zM336 631h467q-6 110 -60.5 178.5t-162.5 68.5q-110 0 -172 -68t-72 -179z " />
<glyph unicode="&#xe6;" horiz-adv-x="1593" d="M-6 0l422 559l-373 498h323l288 -449h4v449h276v-449h2l286 449h326l-374 -498l424 -559h-351l-311 488h-2v-488h-276v488h-4l-312 -488h-348z" />
<glyph unicode="&#xe7;" horiz-adv-x="909" d="M49 20l17 222q94 -32 147 -44t127 -12q94 0 159.5 39t65.5 105q0 70 -50.5 98t-174.5 28h-150v185h119q124 0 173.5 28.5t49.5 88.5q0 110 -174 110q-78 0 -135 -13.5t-145 -49.5l-16 209q86 30 168 43.5t188 13.5q162 0 276.5 -60.5t114.5 -220.5q0 -164 -172 -235v-4 q89 -27 146 -94t57 -152q0 -321 -459 -321q-180 0 -332 36z" />
<glyph unicode="&#xe8;" horiz-adv-x="1251" d="M131 0v1054h265v-724h4l384 724h336v-1054h-264v731h-4l-387 -731h-334z" />
<glyph unicode="&#xe9;" horiz-adv-x="1251" d="M131 0v1054h265v-724h4l384 724h336v-1054h-264v731h-4l-387 -731h-334zM291 1495h127q18 -78 71 -121t133 -43q82 0 137 43.5t73 120.5h126q-9 -138 -103.5 -224.5t-232.5 -86.5q-90 0 -164 39t-118.5 110.5t-48.5 161.5z" />
<glyph unicode="&#xea;" d="M142 0v1057h274v-449h4l330 449h321l-393 -492l442 -565h-348l-352 488h-4v-488h-274z" />
<glyph unicode="&#xeb;" d="M4 196q97 0 124 54q28 56 28 152v652h842v-1054h-275v850h-309v-568q0 -66 -35.5 -137t-114 -120t-198.5 -49z" />
<glyph unicode="&#xec;" horiz-adv-x="1593" d="M137 0v1054h397l260 -753h4l261 753h397v-1054h-254v786h-4l-276 -786h-250l-276 786h-5v-786h-254z" />
<glyph unicode="&#xed;" horiz-adv-x="1251" d="M142 0v1054h274v-402h420v402h274v-1054h-274v438h-420v-438h-274z" />
<glyph unicode="&#xee;" horiz-adv-x="1251" d="M74 520q0 170 72 297t198 195t282 68q154 0 282 -68t200 -195t72 -297q0 -152 -66.5 -276.5t-192 -196t-295.5 -71.5t-295 71.5t-191 196t-66 276.5zM360 553q0 -154 61 -259.5t205 -105.5t205.5 105.5t61.5 259.5q0 84 -30.5 155.5t-90.5 114.5t-146 43t-146 -44 t-90 -116t-30 -153z" />
<glyph unicode="&#xef;" horiz-adv-x="1251" d="M142 0v1054h968v-1054h-274v850h-420v-850h-274z" />
<glyph unicode="&#xf0;" horiz-adv-x="1251" d="M142 -430v1487h262v-152h4q102 175 327 175q118 0 203.5 -43.5t138.5 -120t78 -174.5t25 -212q0 -113 -25 -212.5t-79 -176.5t-140.5 -121t-206.5 -44q-96 0 -168.5 31t-140.5 114h-4v-551h-274zM418 530q0 -83 24 -161t78 -129.5t140 -51.5q84 0 136 52.5t74.5 131 t22.5 158.5t-21.5 157t-73.5 128q-50 51 -134 51q-64 0 -111 -30t-76.5 -79t-44 -109t-14.5 -118z" />
<glyph unicode="&#xf1;" horiz-adv-x="909" d="M72 532q0 154 59.5 279t175 197t277.5 72q145 0 266 -36l-26 -216q-79 38 -187 38q-83 0 -146.5 -41.5t-98.5 -117.5q-34 -77 -34 -175q0 -153 73 -248.5t214 -95.5q102 0 209 50l12 -228q-110 -34 -274 -34q-168 0 -285.5 71t-176.5 197q-58 124 -58 288z" />
<glyph unicode="&#xf2;" horiz-adv-x="948" d="M16 842v212h916v-212h-320v-842h-274v842h-322z" />
<glyph unicode="&#xf3;" d="M22 1057h304l254 -773h6l252 773h280l-397 -1049q-59 -156 -81 -209t-68 -116t-117 -100t-173 -37q-96 0 -194 28l18 203q52 -19 142 -19q82 0 130 52t48 137z" />
<glyph unicode="&#xf4;" horiz-adv-x="1782" d="M74 530q0 152 43 277t135 199t232 74q182 0 266 -162h4v618h274v-618h4q84 162 266 162q140 0 232 -74t135 -199t43 -277q0 -150 -43 -276.5t-135 -202t-232 -75.5q-98 0 -156 35.5t-110 107.5h-4v-549h-274v549h-4q-50 -72 -110 -107.5t-156 -35.5q-138 0 -231 75 t-136 201t-43 278zM360 530q0 -83 18.5 -160.5t62 -129.5t114.5 -52q112 0 155 100q44 100 44 242q0 136 -47.5 236t-155.5 100q-70 0 -112.5 -51.5t-60.5 -128t-18 -156.5zM1028 530q0 -140 44 -241t155 -101q103 0 149 104t46 238q0 132 -44.5 234t-146.5 102 q-108 0 -155 -100q-48 -102 -48 -236z" />
<glyph unicode="&#xf5;" d="M18 0l363 553l-325 504h323l207 -347l204 347h290l-316 -504l356 -553h-328l-235 393l-237 -393h-302z" />
<glyph unicode="&#xf6;" horiz-adv-x="1251" d="M142 0v1054h274v-849h420v849h274v-849h74v-451h-266v246h-776z" />
<glyph unicode="&#xf7;" horiz-adv-x="1175" d="M110 698v356h275v-339q3 -135 160 -139q116 0 215 63v415h274v-1054h-274v426q-148 -64 -293 -64q-155 0 -256 87t-101 249z" />
<glyph unicode="&#xf8;" horiz-adv-x="1593" d="M142 0v1054h274v-849h244v849h274v-849h244v849h274v-1054h-1310z" />
<glyph unicode="&#xf9;" horiz-adv-x="1593" d="M142 0v1054h274v-849h244v849h274v-849h244v849h274v-849h76v-451h-264v246h-1122z" />
<glyph unicode="&#xfa;" horiz-adv-x="1126" d="M20 850v204h457v-392h149q196 0 311 -79t115 -255q0 -124 -59.5 -197t-160 -102t-236.5 -29h-393v850h-183zM477 194h133q74 0 123 35.5t49 106.5q0 68 -48 101.5t-124 33.5h-133v-277z" />
<glyph unicode="&#xfb;" horiz-adv-x="1593" d="M142 0v1054h274v-392h149q196 0 311 -79t115 -255q0 -124 -59.5 -197t-159.5 -102q-102 -29 -238 -29h-392zM416 194h133q74 0 123 35.5t49 106.5q0 68 -48.5 101.5t-123.5 33.5h-133v-277zM1176 0v1054h274v-1054h-274z" />
<glyph unicode="&#xfc;" horiz-adv-x="1063" d="M142 0v1054h274v-392h149q196 0 311 -79t115 -255q0 -124 -59.5 -197t-159.5 -102q-102 -29 -238 -29h-392zM416 194h133q74 0 123 35.5t49 106.5q0 68 -48.5 101.5t-123.5 33.5h-133v-277z" />
<glyph unicode="&#xfd;" horiz-adv-x="909" d="M45 10l13 222q108 -50 212 -50q122 0 194.5 70.5t92.5 189.5h-367v197h363q-26 109 -98.5 171t-176.5 62q-108 0 -190 -38l-26 210q122 36 266 36q160 0 276 -72t176 -197t60 -279q0 -164 -59 -289t-176 -196t-285 -71q-164 0 -275 34z" />
<glyph unicode="&#xfe;" horiz-adv-x="1669" d="M142 0v1054h274v-402h143q24 132 96 228.5t179.5 148t236.5 51.5q146 0 266.5 -68t189.5 -195.5t69 -296.5q0 -152 -63 -276.5t-182 -196t-280 -71.5q-146 0 -258.5 59t-178.5 164t-83 239h-135v-438h-274zM834 553q0 -154 53.5 -259.5t183.5 -105.5q88 0 141.5 52 t74.5 134t21 179q0 84 -26.5 155.5t-80 114.5t-130.5 43q-78 0 -131.5 -44t-79.5 -116t-26 -153z" />
<glyph unicode="&#xff;" d="M30 0l200 428q28 62 94 86v4q-96 26 -154 92.5t-58 149.5q0 136 67 200t164 79t253 15h402v-1054h-275v430h-123q-68 0 -110 -102l-138 -328h-322zM391 735q0 -59 44.5 -90t106.5 -31h181v236h-187q-146 0 -145 -115z" />
<glyph unicode="&#x2000;" horiz-adv-x="904" />
<glyph unicode="&#x2001;" horiz-adv-x="1808" />
<glyph unicode="&#x2002;" horiz-adv-x="904" />
<glyph unicode="&#x2003;" horiz-adv-x="1808" />
<glyph unicode="&#x2004;" horiz-adv-x="602" />
<glyph unicode="&#x2005;" horiz-adv-x="452" />
<glyph unicode="&#x2006;" horiz-adv-x="301" />
<glyph unicode="&#x2007;" horiz-adv-x="301" />
<glyph unicode="&#x2008;" horiz-adv-x="226" />
<glyph unicode="&#x2009;" horiz-adv-x="361" />
<glyph unicode="&#x200a;" horiz-adv-x="100" />
<glyph unicode="&#x2010;" horiz-adv-x="682" d="M72 438v226h538v-226h-538z" />
<glyph unicode="&#x2011;" horiz-adv-x="682" d="M72 438v226h538v-226h-538z" />
<glyph unicode="&#x2012;" horiz-adv-x="682" d="M72 438v226h538v-226h-538z" />
<glyph unicode="&#x2013;" horiz-adv-x="1024" d="M0 456v189h1024v-189h-1024z" />
<glyph unicode="&#x2014;" horiz-adv-x="2048" d="M0 456v189h2048v-189h-2048z" />
<glyph unicode="&#x2018;" horiz-adv-x="569" d="M70 918l186 512h244l-130 -512h-300z" />
<glyph unicode="&#x2019;" horiz-adv-x="569" d="M70 918l130 512h300l-188 -512h-242z" />
<glyph unicode="&#x201a;" horiz-adv-x="569" d="M70 -226l130 512h300l-188 -512h-242z" />
<glyph unicode="&#x201c;" horiz-adv-x="985" d="M70 918l186 512h244l-130 -512h-300zM486 918l186 512h244l-130 -512h-300z" />
<glyph unicode="&#x201d;" horiz-adv-x="985" d="M70 918l130 512h300l-188 -512h-242zM486 918l130 512h300l-189 -512h-241z" />
<glyph unicode="&#x201e;" horiz-adv-x="985" d="M70 -226l130 512h300l-188 -512h-242zM486 -226l130 512h300l-189 -512h-241z" />
<glyph unicode="&#x2022;" horiz-adv-x="1024" d="M156 715q0 97 48 178.5t129.5 129.5t178.5 48q96 0 179 -48t131 -130t48 -178t-48 -178.5t-131 -131.5t-179 -49t-178 48.5t-130 131t-48 179.5z" />
<glyph unicode="&#x2026;" horiz-adv-x="2048" d="M198 0v286h288v-286h-288zM880 0v286h288v-286h-288zM1562 0v286h288v-286h-288z" />
<glyph unicode="&#x202f;" horiz-adv-x="361" />
<glyph unicode="&#x2039;" horiz-adv-x="682" d="M100 551l242 420h258l-225 -420l225 -420h-258z" />
<glyph unicode="&#x203a;" horiz-adv-x="682" d="M82 131l225 420l-225 420h258l242 -420l-242 -420h-258z" />
<glyph unicode="&#x205f;" horiz-adv-x="452" />
<glyph unicode="&#x2122;" horiz-adv-x="2048" d="M98 1266v164h692v-164h-239v-688h-213v688h-240zM952 578v852h298l202 -533l200 533h298v-852h-201v602h-4l-217 -602h-154l-217 602h-4v-602h-201z" />
<glyph unicode="&#xe000;" horiz-adv-x="1055" d="M0 0v1055h1055v-1055h-1055z" />
</font>
</defs>
</svg>
