<?xml version="1.0" standalone="no"?>
<!DOCTYPE svg PUBLIC "-//W3C//DTD SVG 1.1//EN" "http://www.w3.org/Graphics/SVG/1.1/DTD/svg11.dtd" >
<svg xmlns="http://www.w3.org/2000/svg">
<metadata></metadata>
<defs>
<font id="ag_foreigner-romanmedium" horiz-adv-x="1138" >
<font-face units-per-em="2048" ascent="1638" descent="-410" />
<missing-glyph horiz-adv-x="569" />
<glyph horiz-adv-x="2048" />
<glyph horiz-adv-x="2048" />
<glyph unicode="&#xd;" horiz-adv-x="0" />
<glyph unicode=" "  horiz-adv-x="569" />
<glyph unicode="&#x09;" horiz-adv-x="569" />
<glyph unicode="&#xa0;" horiz-adv-x="569" />
<glyph unicode="!" horiz-adv-x="796" d="M284 0v230h230v-230h-230zM284 1430h230l-26 -1028h-176z" />
<glyph unicode="&#x22;" d="M326 928v502h180v-502h-180zM633 928v502h180v-502h-180z" />
<glyph unicode="#" d="M58 426v156h216l38 266h-198v156h220l59 426h156l-59 -426h241l59 426h156l-59 -426h195v-156h-218l-36 -266h194v-156h-217l-59 -426h-156l59 426h-241l-60 -426h-156l60 426h-194zM430 582h242l36 266h-241z" />
<glyph unicode="$" d="M154 1065q0 101 46 182t127 132t179 67v204h118v-196q154 -3 294 -51l-29 -189q-102 60 -244 60h-21v-444l120 -66q123 -67 182 -149.5t59 -214.5q0 -82 -25.5 -152t-73.5 -124t-114 -88t-148 -48v-205h-118v193h-24q-168 0 -312 59l24 197q108 -76 283 -76h29v498 l-70 34q-88 44 -150 94t-97 119.5t-35 163.5zM370 1071q0 -58 37 -99t99 -81v367q-69 -26 -102.5 -70t-33.5 -117zM624 178q64 20 104 79.5t40 129.5q0 78 -36.5 124t-107.5 83v-416z" />
<glyph unicode="%" horiz-adv-x="2048" d="M226 1044q0 120 26 211t94 145t186 54t186 -54.5t95 -145t27 -210.5q0 -176 -72.5 -292.5t-235.5 -116.5t-234.5 116.5t-71.5 292.5zM406 1044q0 -266 126 -266q128 0 128 266q0 126 -23 196t-105 70q-58 0 -86 -44t-34 -99t-6 -123zM506 -45l886 1519h148l-886 -1519 h-148zM1208 385q0 120 26.5 210.5t95 144.5t186.5 54t185.5 -54t94 -145t26.5 -210q0 -176 -71.5 -292.5t-234.5 -116.5t-235.5 116t-72.5 293zM1388 385q0 -266 128 -266q126 0 126 266q0 126 -23 196.5t-103 70.5q-58 0 -86 -45t-35 -100t-7 -122z" />
<glyph unicode="&#x26;" horiz-adv-x="1478" d="M170 375q0 154 83 255q83 100 237 162q-72 87 -110 160.5t-38 165.5q0 165 105 250.5t268 85.5q96 0 177 -35t129 -108t48 -181q0 -126 -90 -219q-89 -93 -223 -153l290 -332q42 66 61 143.5t27 202.5h193q-8 -112 -30.5 -197.5t-55.5 -154t-77 -138.5l249 -282h-256 l-117 140q-76 -86 -174 -125t-235 -39q-104 0 -189.5 28t-146.5 81t-93 127t-32 163zM387 389q0 -114 82.5 -186t198.5 -72q144 -1 264 137l-344 404q-70 -48 -110 -83t-65.5 -84t-25.5 -116zM534 1114q0 -64 33 -118t95 -124q84 40 149 105t65 145q0 176 -170 176 q-74 0 -123 -48t-49 -136z" />
<glyph unicode="'" horiz-adv-x="569" d="M194 928v502h181v-502h-181z" />
<glyph unicode="(" horiz-adv-x="682" d="M133 631q0 167 43 320.5t116 295t177 301.5h185q-70 -124 -124 -230t-97 -218.5t-69 -232t-26 -236.5q0 -224 84 -444.5t232 -472.5h-185q-104 156 -176.5 298t-116 298.5t-43.5 320.5z" />
<glyph unicode=")" horiz-adv-x="682" d="M28 -286q96 171 163 312.5t110 296.5t43 308q0 225 -84.5 446t-231.5 471h185q74 -108 135.5 -219t106 -222t69.5 -231.5t25 -244.5q0 -240 -86.5 -452.5t-249.5 -464.5h-185z" />
<glyph unicode="*" d="M148 1057l57 174l309 -127l-32 326h186l-31 -326l299 127l55 -174l-321 -68l219 -251l-154 -103l-165 283l-168 -283l-152 103l225 251z" />
<glyph unicode="+" horiz-adv-x="1229" d="M96 428v180h428v428h180v-428h428v-180h-428v-428h-180v428h-428z" />
<glyph unicode="," horiz-adv-x="569" d="M41 -272l129 502h230l-174 -502h-185z" />
<glyph unicode="-" horiz-adv-x="682" d="M78 473v155h526v-155h-526z" />
<glyph unicode="." horiz-adv-x="569" d="M170 0v230h230v-230h-230z" />
<glyph unicode="/" horiz-adv-x="569" d="M-51 -24l491 1478h180l-491 -1478h-180z" />
<glyph unicode="0" d="M84 715q0 181 42.5 348t151 279t292.5 112q183 0 291.5 -112t150.5 -279t42 -348q0 -132 -22 -259t-75.5 -236t-150 -176.5t-236.5 -67.5q-141 0 -237.5 67t-150 176t-76 236.5t-22.5 259.5zM301 715q0 -125 18.5 -251t78.5 -223t172 -97t171 97t78 223t19 251 q0 208 -57 389.5t-211 181.5t-211.5 -182.5t-57.5 -388.5z" />
<glyph unicode="1" d="M223 1143l351 287h182v-1430h-205v1194l-219 -188z" />
<glyph unicode="2" d="M102 0v219q32 28 86 75.5t90 79.5q34 32 80 74q118 110 201 198t147 198t64 215q0 100 -78 163q-78 64 -196 64q-160 0 -328 -92l-20 176q194 84 374 84q130 0 236 -46.5t167.5 -139t61.5 -222.5q0 -109 -64.5 -225t-147.5 -210.5t-201 -212.5q-40 -40 -78 -74t-82 -74 t-92 -82h686v-168h-906z" />
<glyph unicode="3" d="M104 30l12 191q157 -77 314 -77q84 0 164 24t132 79t52 140q0 148 -99.5 210.5t-256.5 62.5h-125v168h115q84 0 164.5 22t135 74.5t54.5 136.5q0 116 -79 170.5t-201 54.5q-162 0 -318 -78l-12 182q172 64 358 64q130 0 237 -42t169.5 -130t62.5 -217q0 -128 -88 -214.5 t-219 -110.5v-5q96 -20 168.5 -65t112 -117.5t39.5 -171.5q0 -405 -564 -405q-140 0 -328 54z" />
<glyph unicode="4" d="M39 326v168l577 936h294v-936h180v-168h-180v-326h-206v326h-665zM254 494h450v768h-4z" />
<glyph unicode="5" d="M166 22l6 193q128 -71 297 -71q86 0 163.5 33t124 97.5t46.5 151.5q0 98 -45.5 167t-123.5 103q-80 35 -178 35q-152 0 -276 -53l12 752h787v-168h-594l-13 -384q76 20 185 21q124 0 231 -58t169.5 -159.5t62.5 -225.5q0 -152 -73 -260t-198 -164t-276 -56 q-178 0 -307 46z" />
<glyph unicode="6" d="M106 662q0 213 54 391t183.5 289.5t342.5 111.5q75 0 166.5 -14.5t128.5 -30.5l-29 -182q-114 59 -254 59q-128 0 -217 -70.5t-134 -189t-48 -260.5l4 2q133 131 313 131q134 0 232 -58.5t148 -161.5t50 -231q0 -108 -34 -196t-97 -150t-146 -94t-181 -32 q-188 0 -294.5 97.5t-147 250t-40.5 338.5zM324 444q0 -71 29 -140.5t86 -114.5t137 -45q82 0 139 41.5t86 110t29 148.5q0 111 -64 199t-176 88q-82 0 -143 -37.5t-92 -102.5t-31 -147z" />
<glyph unicode="7" d="M100 1262v168h906v-168l-529 -1262h-225l544 1262h-696z" />
<glyph unicode="8" d="M78 375q0 136 84 233q84 98 219 144v4q-144 51 -206.5 146t-62.5 210q0 92 56 170.5t162 125.5q106 46 246 46q134 0 235 -46t154 -120t53 -156q0 -122 -58 -207t-200 -161q136 -46 218.5 -144t82.5 -235t-66 -229.5t-178 -136t-252 -43.5q-124 0 -236.5 46t-181.5 136.5 t-69 216.5zM295 387q0 -75 41.5 -130.5t107.5 -84t140 -28.5q108 0 182.5 60.5t77.5 163.5q0 72 -25.5 120.5t-68 79t-98.5 55.5t-120 53q-58 -38 -116 -77t-89.5 -87t-31.5 -125zM318 1084q0 -70 68 -127t226 -133q84 64 123.5 108t52.5 82.5t13 91.5q0 92 -74.5 136 t-167.5 44q-50 0 -107.5 -24t-95.5 -70t-38 -108z" />
<glyph unicode="9" d="M92 981q0 144 60 251.5t164.5 164.5t234.5 57q187 0 294 -98t147 -250t40 -338q0 -338 -134 -565t-446 -227q-74 0 -164 13.5t-130 30.5l28 183q112 -59 254 -59q128 0 217 70t135 189t48 261l-4 -2q-134 -132 -314 -132q-134 0 -231.5 58.5t-148 161t-50.5 231.5z M309 985q0 -70 27.5 -136t81.5 -108.5t131 -42.5q82 0 142.5 38t92 103t31.5 146q0 71 -29.5 141t-86 115t-136.5 45q-82 0 -139.5 -42t-86 -110.5t-28.5 -148.5z" />
<glyph unicode=":" horiz-adv-x="569" d="M170 0v230h230v-230h-230zM170 815v229h230v-229h-230z" />
<glyph unicode=";" horiz-adv-x="569" d="M41 -272l129 502h230l-174 -502h-185zM170 815v229h230v-229h-230z" />
<glyph unicode="&#x3c;" horiz-adv-x="1229" d="M94 440v156l1040 456v-180l-806 -354l806 -354v-180z" />
<glyph unicode="=" horiz-adv-x="1229" d="M96 213v180h1036v-180h-1036zM96 643v181h1036v-181h-1036z" />
<glyph unicode="&#x3e;" horiz-adv-x="1229" d="M94 -16v180l807 354l-807 354v180l1040 -456v-156z" />
<glyph unicode="?" horiz-adv-x="1024" d="M152 1386q156 68 340 68q86 0 164.5 -24t142 -72t99.5 -118t36 -158q0 -98 -40 -172.5t-126 -175.5q-84 -102 -114 -146q-44 -64 -44 -150v-36h-192v42q0 96 26 157t101 149q67 78 94 112t52.5 89.5t25.5 115.5q0 69 -34 115.5t-90.5 69t-123.5 22.5q-190 0 -303 -82z M400 0v230h228v-230h-228z" />
<glyph unicode="@" horiz-adv-x="1638" d="M102 715q0 162 59 300.5t162 236t239 150t290 52.5q134 0 258.5 -44t220 -125t150.5 -193.5t55 -245.5q0 -138 -50.5 -246t-128.5 -180t-161.5 -108t-145.5 -36q-48 0 -81.5 30.5t-36.5 84.5h-4q-110 -115 -224 -115q-83 0 -152.5 45t-109.5 120t-40 163q0 130 55 248.5 t156 192t229 73.5q151 0 233 -135l31 107h154l-138 -520q-16 -56 -16 -86q4 -52 37 -52q59 0 117 53t95 141.5t37 188.5q0 154 -72 266.5t-195.5 170.5t-274.5 58q-127 0 -234 -45t-184.5 -128t-119.5 -192t-42 -235q0 -190 77 -323t213 -200.5t310 -67.5q86 0 168 22 t153 63.5t124 96.5h155q-49 -76 -115.5 -136.5t-144.5 -102.5t-166.5 -64t-181.5 -22q-212 0 -386 88t-274 256t-100 395zM582 631q0 -83 45.5 -135t122.5 -52q72 0 132 52.5t95 130.5t35 151q0 74 -45.5 123t-112.5 49q-77 0 -139.5 -49t-97.5 -123t-35 -147z" />
<glyph unicode="A" horiz-adv-x="1478" d="M24 0l611 1430h215l604 -1430h-223l-145 360h-701l-145 -360h-216zM450 528h570l-285 709z" />
<glyph unicode="B" horiz-adv-x="1251" d="M170 0v1430h387q154 0 266 -36t174 -116.5t62 -208.5q0 -266 -295 -340v-4q98 -8 173 -51.5t117 -118.5t42 -174q0 -146 -72.5 -230.5t-193 -117.5t-279.5 -33h-381zM375 168h153q160 0 255 50t95 182q0 149 -102 200.5t-268 51.5h-133v-484zM375 819h113 q118 0 194.5 14.5t123.5 64.5q48 50 48 150q0 116 -77.5 165t-186.5 49h-215v-443z" />
<glyph unicode="C" horiz-adv-x="1251" d="M108 721q0 216 97 382.5t271 258.5q172 92 388 92q182 0 322 -62l-16 -198q-136 80 -296 80q-120 0 -222.5 -42t-175 -116.5t-111.5 -178t-39 -222.5q0 -163 72 -291t195 -198t271 -70q78 0 169 19t143 51l12 -200q-123 -50 -326 -50q-168 0 -307 52t-239 150.5t-154 237 t-54 305.5z" />
<glyph unicode="D" horiz-adv-x="1478" d="M170 0v1430h422q158 0 297.5 -48t244 -139.5t162.5 -222t58 -293.5q0 -178 -52 -314.5t-151 -228.5t-240 -138t-319 -46h-422zM375 180h215q546 0 546 539q0 162 -67.5 282.5t-186.5 184.5q-120 64 -268 64h-239v-1070z" />
<glyph unicode="E" d="M192 0v1430h802v-180h-596v-418h542v-180h-542v-472h596v-180h-802z" />
<glyph unicode="F" horiz-adv-x="1024" d="M170 0v1430h760v-180h-555v-418h530v-180h-530v-652h-205z" />
<glyph unicode="G" horiz-adv-x="1478" d="M108 721q0 216 97 382.5t271 258.5q172 92 388 92q142 0 226 -17t194 -55l-16 -206q-150 98 -394 98q-160 0 -285.5 -72.5t-194 -200t-68.5 -286.5q0 -163 72 -291t195 -198t271 -70q104 0 230 24v434h-302v168h506v-743q-187 -63 -436 -63q-168 0 -307 52t-239 150.5 t-154 237t-54 305.5z" />
<glyph unicode="H" horiz-adv-x="1478" d="M192 0v1430h206v-598h684v598h204v-1430h-204v652h-684v-652h-206z" />
<glyph unicode="I" horiz-adv-x="569" d="M182 0v1430h205v-1430h-205z" />
<glyph unicode="J" horiz-adv-x="796" d="M43 0v176q56 -20 129 -20q132 0 183 69t51 209v996h204v-1062q0 -80 -20 -149t-66 -124t-125 -87t-190 -32q-102 0 -166 24z" />
<glyph unicode="K" horiz-adv-x="1366" d="M192 0v1430h206v-629l610 629h272l-672 -676l725 -754h-299l-636 700v-700h-206z" />
<glyph unicode="L" horiz-adv-x="1024" d="M180 0v1430h205v-1250h598v-180h-803z" />
<glyph unicode="M" horiz-adv-x="1933" d="M184 0v1430h338l449 -1188l440 1188h338v-1430h-205v1237h-4l-473 -1237h-201l-473 1237h-4v-1237h-205z" />
<glyph unicode="N" horiz-adv-x="1478" d="M180 0v1430h279l631 -1152h4v1152h204v-1430h-262l-647 1176h-4v-1176h-205z" />
<glyph unicode="O" horiz-adv-x="1593" d="M108 715q0 212 82.5 380.5t239 263.5t366.5 95q211 0 367.5 -95t239 -263t82.5 -381q0 -217 -81.5 -385t-237.5 -261t-370 -93q-213 0 -368.5 93t-237.5 261t-82 385zM326 715q0 -149 50.5 -276.5t157 -205t262.5 -77.5t263 77.5t158 205t51 276.5q0 150 -54 277.5 t-160 204.5t-258 77q-150 0 -257 -77t-160 -204.5t-53 -277.5z" />
<glyph unicode="P" d="M170 0v1430h375q243 0 390 -100t147 -328q0 -150 -70 -247t-185 -140t-251 -43h-201v-572h-205zM375 752h203q113 0 199.5 61t86.5 191q0 83 -49 138.5t-123 81.5t-143 26h-174v-498z" />
<glyph unicode="Q" horiz-adv-x="1593" d="M108 715q0 212 82.5 380.5t239 263.5t366.5 95q211 0 367.5 -95t239 -263t82.5 -381q0 -160 -44.5 -293.5t-131.5 -232.5t-209 -152l332 -301h-254l-266 248q-50 -8 -116 -8q-213 0 -368.5 93t-237.5 261t-82 385zM326 715q0 -149 50.5 -276.5t157 -205t262.5 -77.5 t263 77.5t158 205t51 276.5q0 150 -54 277.5t-160 204.5t-258 77q-150 0 -257 -77t-160 -204.5t-53 -277.5z" />
<glyph unicode="R" horiz-adv-x="1251" d="M170 0v1430h350q165 0 284.5 -28t195.5 -114q75 -86 75 -246q0 -86 -38.5 -154t-105.5 -112t-151 -59v-5q48 -18 77 -48t63 -94l270 -570h-234l-218 496q-30 66 -64 96t-72 36q-36 7 -104 7h-123v-635h-205zM375 815h174q96 0 165.5 27t106.5 77.5t37 118.5 q0 99 -74 155.5t-212 56.5h-197v-435z" />
<glyph unicode="S" horiz-adv-x="1024" d="M96 1065q0 123 60 211t164.5 133t234.5 45q160 0 305 -51l-28 -189q-86 34 -139 47t-130 13q-103 0 -176 -44t-73 -146q0 -89 58 -130t225 -125.5t249 -176.5t82 -250q0 -146 -69 -242t-187 -140t-266 -44q-69 0 -136.5 15t-157.5 44l21 191q169 -70 297 -70 q65 0 129.5 25t107.5 77t43 131q0 106 -71 159.5t-227 128.5t-236 157t-80 231z" />
<glyph unicode="T" d="M22 1250v180h1094v-180h-444v-1250h-205v1250h-445z" />
<glyph unicode="U" horiz-adv-x="1478" d="M184 592v838h205v-812q0 -144 33.5 -246.5t111.5 -159t206 -56.5q126 0 204 56.5t112 159t34 246.5v812h204v-838q0 -198 -65 -337t-189 -209t-300 -70t-301 70t-190 209t-65 337z" />
<glyph unicode="V" horiz-adv-x="1366" d="M12 1430h230l440 -1250h4l452 1250h216l-547 -1430h-256z" />
<glyph unicode="W" horiz-adv-x="2048" d="M4 1430h226l342 -1225h4l304 1225h292l308 -1225h5l342 1225h217l-440 -1430h-264l-312 1250h-4l-314 -1250h-274z" />
<glyph unicode="X" horiz-adv-x="1366" d="M16 0l526 744l-478 686h245l381 -550l379 550h233l-481 -682l529 -748h-258l-422 606l-408 -606h-246z" />
<glyph unicode="Y" horiz-adv-x="1366" d="M22 1430h240l426 -642l416 642h240l-558 -832v-598h-204v598z" />
<glyph unicode="Z" d="M66 0v184l741 1066h-717v180h952v-185l-739 -1065h751v-180h-988z" />
<glyph unicode="[" horiz-adv-x="682" d="M194 -286v1834h388v-143h-207v-1549h207v-142h-388z" />
<glyph unicode="\" horiz-adv-x="569" d="M-51 1454h180l491 -1478h-180z" />
<glyph unicode="]" horiz-adv-x="682" d="M100 -144h207v1549h-207v143h388v-1834h-388v142z" />
<glyph unicode="^" horiz-adv-x="1229" d="M123 602l407 828h168l408 -828h-184l-308 639l-307 -639h-184z" />
<glyph unicode="_" horiz-adv-x="1024" d="M0 -154h1024v-102h-1024v102z" />
<glyph unicode="`" horiz-adv-x="569" d="M14 1485h224l182 -295h-138z" />
<glyph unicode="a" d="M94 301q0 94 45 160.5t119 107.5t157 58.5t165 17.5q128 0 204 -4q0 140 -58 206.5t-200 66.5q-82 0 -163.5 -29t-139.5 -78l-10 164q165 98 344 98q220 0 320 -106.5t100 -325.5v-432q0 -144 8 -205h-180v135h-4q-45 -62 -125 -110.5t-199 -48.5q-176 0 -279.5 80.5 t-103.5 244.5zM299 301q0 -77 61 -123q62 -47 134 -47q92 0 158 35.5t99 98.5t33 141v92q-20 0 -58 2q-36 2 -64 2q-132 0 -247.5 -40.5t-115.5 -160.5z" />
<glyph unicode="b" horiz-adv-x="1251" d="M164 0v1536h192v-635h4q104 168 346 168q110 0 195.5 -41.5t142 -115t85 -168t28.5 -204.5q0 -151 -48 -279t-149 -207q-102 -78 -252 -78q-128 0 -219 51t-137 121h-4v-148h-184zM356 520q0 -92 33.5 -182.5t103 -148.5t171.5 -58q96 0 161.5 61.5t96 152.5t30.5 181 q0 101 -29 189t-94 143.5t-163 55.5q-100 0 -170 -56t-105 -146t-35 -192z" />
<glyph unicode="c" horiz-adv-x="909" d="M78 522q0 156 66.5 281.5t188 195.5t277.5 70q58 0 126 -12t108 -29l-16 -160q-110 46 -210 46q-104 0 -180 -55t-116 -145.5t-40 -191.5q0 -99 37 -188.5t116 -146t196 -56.5h4q115 0 203 59l14 -172q-94 -42 -242 -42q-116 0 -214 42t-169 118t-110 175t-39 211z" />
<glyph unicode="d" horiz-adv-x="1251" d="M94 540q0 142 50.5 263.5t153 193.5t247.5 72q242 0 346 -168h4v635h193v-1536h-185v148h-4q-46 -70 -137.5 -121t-219.5 -51q-149 0 -250.5 79t-149.5 207t-48 278zM299 526q0 -90 30.5 -181t96.5 -152.5t162 -61.5q102 0 171 58t102.5 148.5t33.5 182.5 q0 102 -34.5 192t-104.5 146t-170 56q-98 0 -163 -55t-94.5 -143t-29.5 -190z" />
<glyph unicode="e" d="M94 540q0 153 61 273.5t173 188.5q112 67 256 67q167 0 269.5 -74.5t146.5 -206.5t44 -309h-745q0 -100 47.5 -179.5t126.5 -124t170 -44.5q86 0 182.5 35.5t138.5 69.5v-193q-25 -10 -59.5 -22.5t-72.5 -22.5t-86.5 -16t-110.5 -6q-180 0 -301.5 69t-180.5 195t-59 300z M299 622h541q0 80 -31 147t-90 106t-139 39q-88 0 -149 -42.5t-92.5 -108.5t-39.5 -141z" />
<glyph unicode="f" horiz-adv-x="796" d="M43 889v155h246v96q0 138 29.5 229t106.5 141t214 50q51 0 129 -12l-8 -156q-32 12 -92 13q-79 0 -119.5 -30.5t-53.5 -84.5t-13 -133v-113h276v-155h-276v-889h-193v889h-246z" />
<glyph unicode="g" horiz-adv-x="1251" d="M94 514q0 139 53 267t159 208t255 80q253 0 344 -180h5v155h178v-999q0 -121 -32 -213t-98 -156t-168 -97t-241 -33q-166 0 -375 71l20 178q116 -52 196 -73t182 -21q151 0 237 95.5t86 263.5v102h-4q-60 -80 -153.5 -121t-197.5 -41q-143 0 -244 70t-151.5 188 t-50.5 256zM299 524q0 -100 35.5 -184t102 -134t153.5 -50q88 0 157.5 47t108.5 129t39 178q0 111 -34.5 203t-103.5 146.5t-167 54.5q-136 0 -213.5 -120t-77.5 -270z" />
<glyph unicode="h" horiz-adv-x="1251" d="M164 0v1536h192v-641h4q52 84 140 129t196 45q198 0 295 -116q97 -117 97 -333v-620h-193v540q0 125 -20.5 205.5t-69.5 121.5t-131 47q-158 0 -238 -116t-80 -314v-484h-192z" />
<glyph unicode="i" horiz-adv-x="569" d="M176 1278v217h217v-217h-217zM188 0v1044h193v-1044h-193z" />
<glyph unicode="j" horiz-adv-x="569" d="M-33 -446l7 166q36 -6 77 -6q66 0 101 58q36 58 36 162v1110h193v-1081q0 -110 -16 -197t-81.5 -153.5t-197.5 -66.5q-83 0 -119 8zM176 1278v217h217v-217h-217z" />
<glyph unicode="k" d="M164 0v1536h192v-916l420 424h262l-485 -462l547 -582h-276l-468 536v-536h-192z" />
<glyph unicode="l" horiz-adv-x="569" d="M188 0v1536h193v-1536h-193z" />
<glyph unicode="m" horiz-adv-x="1820" d="M162 0v1044h180v-151h4q56 90 136 133t196 43q96 0 177 -51.5t120 -151.5q32 68 89 114.5t120.5 67.5t113.5 21q189 0 276 -108q87 -107 87 -291v-670h-193v622q0 122 -40.5 207t-145.5 85q-138 0 -206 -113t-68 -275v-526h-193v622q0 122 -40.5 207t-146.5 85 q-138 0 -206 -113t-68 -275v-526h-192z" />
<glyph unicode="n" horiz-adv-x="1251" d="M164 0v1044h186v-166h4q42 88 137 139.5t205 51.5q198 0 295 -116q97 -117 97 -333v-620h-193v540q0 125 -20.5 205.5t-69.5 121.5t-131 47q-158 0 -238 -116t-80 -314v-484h-192z" />
<glyph unicode="o" horiz-adv-x="1251" d="M94 522q0 156 66.5 281.5t188 195.5t277.5 70t277 -70t187.5 -195.5t66.5 -281.5q0 -110 -38.5 -210.5t-109.5 -175.5t-169 -117.5t-214 -42.5t-214 42.5t-169 118t-110 174.5t-39 211zM299 522q0 -98 35.5 -188t109.5 -146.5t182 -56.5q107 0 181 56.5t109.5 146.5 t35.5 188q0 100 -39 191t-113 146t-174 55q-74 0 -135 -32t-104 -88t-65.5 -126.5t-22.5 -145.5z" />
<glyph unicode="p" horiz-adv-x="1251" d="M164 -430v1474h184v-147h4q45 69 136.5 120.5t217.5 51.5q110 0 195.5 -41.5t142 -115t85 -168t28.5 -204.5q0 -151 -48 -279t-149 -207q-102 -78 -252 -78q-244 0 -348 168h-4v-574h-192zM356 520q0 -92 33.5 -182.5t103 -148.5t171.5 -58q96 0 161.5 61.5t96 152.5 t30.5 181q0 101 -29 189t-94 143.5t-163 55.5q-100 0 -170 -56t-105 -146t-35 -192z" />
<glyph unicode="q" horiz-adv-x="1251" d="M94 540q0 142 50.5 263.5t153 193.5t247.5 72q126 0 217.5 -51.5t136.5 -122.5h4v149h185v-1474h-193v567h-4q-44 -74 -138.5 -117.5t-210.5 -43.5q-149 0 -250.5 79t-149.5 207t-48 278zM299 526q0 -90 30.5 -181t96.5 -152.5t162 -61.5q102 0 171 58t102.5 148.5 t33.5 182.5q0 102 -34.5 192t-104.5 146t-170 56q-98 0 -163 -55t-94.5 -143t-29.5 -190z" />
<glyph unicode="r" horiz-adv-x="796" d="M164 0v1044h180v-162h4q39 82 114.5 134.5t157.5 52.5q58 -1 128 -15v-172q-44 18 -107 19q-85 0 -149.5 -51.5t-100 -148.5t-35.5 -226v-475h-192z" />
<glyph unicode="s" horiz-adv-x="796" d="M70 748q0 156 103 238.5t265 82.5q101 0 240 -41l-16 -168q-31 20 -98.5 37t-104.5 17q-80 0 -132.5 -33t-52.5 -95q0 -70 48.5 -103t167 -88.5t178 -118t59.5 -175.5q0 -106 -50.5 -179.5t-134.5 -109.5t-180 -36q-180 0 -286 57l10 172q53 -34 122.5 -54t117.5 -20 q78 0 137 36.5t59 112.5q0 62 -50 97.5t-167 94t-176 118.5t-59 158z" />
<glyph unicode="t" horiz-adv-x="796" d="M14 889v155h236v242l192 62v-304h277v-155h-277v-571q0 -87 46.5 -137t115.5 -50q74 0 131 37v-164q-101 -28 -163 -28q-154 0 -238 75t-84 227v611h-236z" />
<glyph unicode="u" horiz-adv-x="1251" d="M164 424v620h192v-540q0 -125 21 -205t69 -121.5t132 -46.5q159 0 238 115.5t79 314.5v483h193v-1044h-187v166h-4q-28 -59 -81 -102t-120.5 -65.5t-140.5 -22.5q-391 0 -391 448z" />
<glyph unicode="v" horiz-adv-x="1024" d="M22 1044h212l282 -852h4l289 852h193l-376 -1044h-228z" />
<glyph unicode="w" horiz-adv-x="1706" d="M24 1044h212l239 -864h4l267 864h227l262 -864h4l254 864h189l-336 -1044h-224l-270 876h-4l-264 -876h-224z" />
<glyph unicode="x" horiz-adv-x="1024" d="M20 0l378 547l-340 497h239l227 -372l232 372h215l-336 -497l369 -547h-238l-258 410l-258 -410h-230z" />
<glyph unicode="y" horiz-adv-x="1024" d="M14 1044h212l280 -864h4l286 864h195l-385 -1066q-49 -138 -90.5 -224t-117.5 -147t-193 -61q-49 0 -131 14l12 158q48 -16 90 -17q77 0 128.5 54t76.5 118.5t25 85.5q0 9 -38 111z" />
<glyph unicode="z" horiz-adv-x="1024" d="M88 0v168l602 721h-574v155h798v-168l-602 -720h624v-156h-848z" />
<glyph unicode="{" horiz-adv-x="682" d="M76 559v143q67 0 121.5 57t54.5 149v382q0 80 36 139t90 89t106 30h159v-143h-109q-102 1 -102 -155v-372q0 -118 -62 -176q-62 -57 -126 -69v-5q64 -7 126 -64.5t62 -186.5v-365q0 -156 102 -156h109v-142h-159q-52 0 -106 30t-90 88q-36 60 -36 140v372q0 66 -26 115 t-67 74.5t-83 25.5z" />
<glyph unicode="|" horiz-adv-x="454" d="M137 -24v1560h181v-1560h-181z" />
<glyph unicode="}" horiz-adv-x="682" d="M39 -144h109q102 0 102 156v371q0 82 33 135.5t75 77.5t80 32v5q-36 4 -79 27.5t-76 79.5q-33 54 -33 144v366q0 156 -102 155h-109v143h159q51 0 105.5 -30t90.5 -89t36 -139v-372q0 -98 55 -157t121 -59v-143q-41 0 -82.5 -24.5t-67.5 -71.5t-26 -109v-382 q0 -80 -36 -139t-90 -89t-106 -30h-159v142z" />
<glyph unicode="~" horiz-adv-x="1229" d="M142 498q92 174 256 174q86 0 226 -64q38 -17 78 -35.5t72 -29.5t60 -11q55 0 93.5 39t86.5 111l74 -144q-90 -174 -256 -174q-86 0 -228 64q-44 20 -81 37t-69 28t-58 11q-54 0 -94 -39t-87 -111z" />
<glyph unicode="&#xa3;" horiz-adv-x="796" d="M43 0v176q56 -20 129 -20q132 0 183 69t51 209v996h204v-1062q0 -80 -20 -149t-66 -124t-125 -87t-190 -32q-102 0 -166 24z" />
<glyph unicode="&#xa4;" d="M49 299l115 117q-102 122 -102 299q0 192 102 303l-115 110l105 107l112 -113q58 47 140 74q82 26 164 26q178 0 306 -100l111 113l103 -107l-111 -110q98 -110 98 -303q0 -183 -98 -299l111 -117l-103 -105l-111 118q-120 -104 -306 -105q-89 0 -168 26.5t-136 78.5 l-112 -118zM242 715q0 -91 44 -170t119 -124.5t165 -45.5q91 0 166 46.5t118 125.5t43 168q0 90 -43.5 168t-118.5 124.5t-165 46.5q-89 0 -165 -46t-119.5 -123.5t-43.5 -169.5z" />
<glyph unicode="&#xa6;" horiz-adv-x="454" d="M137 -24v566h181v-566h-181zM137 968v568h181v-568h-181z" />
<glyph unicode="&#xa7;" d="M172 624q0 164 150 254q-142 78 -142 244q0 106 63 182t163 113t204 37q138 0 295 -39l-18 -186q-130 57 -250 57q-101 0 -183 -34t-82 -122q0 -81 67 -117.5t227 -93.5t241.5 -125t81.5 -196q0 -86 -34 -140t-111 -118q60 -38 95.5 -100t35.5 -134q0 -122 -70.5 -203.5 t-177.5 -119t-215 -37.5q-186 0 -330 51l18 189q138 -72 338 -72q98 0 171 48t73 138q0 70 -61 102t-224 91t-244 130t-81 201zM352 664q0 -57 41 -98.5t99 -68.5t138 -53t105 -38q74 86 74 153q0 60 -40.5 101.5t-91.5 64.5t-136 53t-113 46q-76 -58 -76 -160z" />
<glyph unicode="&#xa8;" d="M192 0v1430h802v-180h-596v-418h542v-180h-542v-472h596v-180h-802zM305 1548v205h193v-205h-193zM641 1548v205h193v-205h-193z" />
<glyph unicode="&#xa9;" horiz-adv-x="1638" d="M80 715q0 200 99.5 370t270 269.5t369.5 99.5q200 0 370.5 -99.5t269.5 -270t99 -369.5q0 -200 -99 -370.5t-269.5 -269.5t-370.5 -99t-370 99t-269.5 269.5t-99.5 370.5zM260 715q0 -169 75 -305.5t203 -213.5t281 -77t282 77t203 213.5t74 305.5q0 168 -74 304.5 t-203 213.5t-282 77q-152 0 -280.5 -77t-203.5 -213.5t-75 -304.5zM418 715q0 128 49.5 229.5t143 159t221.5 57.5q90 0 168 -36t128 -105t64 -166h-150q-15 76 -71.5 120t-136.5 44q-125 0 -192.5 -83t-67.5 -216q0 -137 71 -224t193 -87q84 0 139 47t65 129h150 q-24 -149 -122 -234q-98 -86 -232 -86q-125 0 -220.5 58.5t-147.5 161.5t-52 231z" />
<glyph unicode="&#xab;" d="M104 551l294 413h180l-266 -413l266 -414h-180zM518 551l293 413h180l-266 -413l266 -414h-180z" />
<glyph unicode="&#xac;" horiz-adv-x="1229" d="M96 643v181h1036v-611h-180v430h-856z" />
<glyph unicode="&#xad;" horiz-adv-x="569" d="M-18 1260v118h606v-118h-606z" />
<glyph unicode="&#xae;" horiz-adv-x="1638" d="M80 715q0 200 99.5 370t270 269.5t369.5 99.5q200 0 370.5 -99.5t269.5 -270t99 -369.5q0 -200 -99 -370.5t-269.5 -269.5t-370.5 -99t-370 99t-269.5 269.5t-99.5 370.5zM260 715q0 -169 75 -305.5t203.5 -213.5t280.5 -77q153 0 282 77t203 213.5t74 305.5 q0 168 -74 304.5t-203 213.5t-282 77q-152 0 -280.5 -77t-203.5 -213t-75 -305zM534 299v837h312q154 0 231.5 -58t77.5 -187q0 -205 -219 -225l225 -367h-159l-218 361h-94v-361h-156zM690 778h138q84 0 128 24t44 101q0 115 -170 115h-140v-240z" />
<glyph unicode="&#xaf;" horiz-adv-x="569" d="M20 1548v205h193v-205h-193zM182 0v1430h205v-1430h-205zM356 1548v205h193v-205h-193z" />
<glyph unicode="&#xb0;" horiz-adv-x="819" d="M116 1161q0 80 40 147.5t107 106.5t147 39q79 0 146.5 -39t106.5 -107t39 -147t-39 -146.5t-107 -107t-146 -39.5q-79 0 -146.5 39.5t-107.5 106.5t-40 147zM248 1161q0 -68 47 -114.5t115 -46.5q67 0 114.5 47t47.5 114q0 68 -48 115t-114 47q-68 0 -115 -47t-47 -115z " />
<glyph unicode="&#xb1;" horiz-adv-x="1229" d="M96 0v180h1036v-180h-1036zM96 555v180h428v301h180v-301h428v-180h-428v-301h-180v301h-428z" />
<glyph unicode="&#xb2;" horiz-adv-x="569" d="M182 0v1430h205v-1430h-205z" />
<glyph unicode="&#xb3;" horiz-adv-x="569" d="M176 1278v217h217v-217h-217zM188 0v1044h193v-1044h-193z" />
<glyph unicode="&#xb5;" horiz-adv-x="1251" d="M164 -430v1474h192v-540q0 -125 21 -205t69 -121.5t132 -46.5q159 0 238 115.5t79 314.5v483h193v-1044h-187v166h-4q-28 -59 -81 -102t-120.5 -65.5t-140.5 -22.5q-127 0 -199 40v-446h-192z" />
<glyph unicode="&#xb6;" horiz-adv-x="1229" d="M41 1048q-1 382 483 382h556v-1660h-181v1516h-235v-1516h-180v912q-134 0 -235 46.5t-154.5 129t-53.5 190.5z" />
<glyph unicode="&#xb8;" d="M94 540q0 153 61 273.5t173 188.5q112 67 256 67q167 0 269.5 -74.5t146.5 -206.5t44 -309h-745q0 -100 47.5 -179.5t126.5 -124t170 -44.5q86 0 182.5 35.5t138.5 69.5v-193q-25 -10 -59.5 -22.5t-72.5 -22.5t-86.5 -16t-110.5 -6q-180 0 -301.5 69t-180.5 195t-59 300z M299 622h541q0 80 -31 147t-90 106t-139 39q-88 0 -149 -42.5t-92.5 -108.5t-39.5 -141zM305 1204v205h193v-205h-193zM641 1204v205h193v-205h-193z" />
<glyph unicode="&#xb9;" horiz-adv-x="813" d="M53 1124q0 94 43.5 170t123.5 118t186 42t185.5 -42t123 -117t43.5 -171q0 -90 -44 -165.5t-124 -120t-184 -44.5q-102 0 -183 44.5t-125.5 120t-44.5 165.5zM221 1124q0 -92 43 -151q44 -59 142 -59q184 0 184 210q0 92 -46 152t-138 60q-90 0 -137.5 -60t-47.5 -152z " />
<glyph unicode="&#xbb;" d="M148 137l266 414l-266 413h180l292 -413l-292 -414h-180zM561 137l267 414l-267 413h181l292 -413l-292 -414h-181z" />
<glyph unicode="&#xbc;" horiz-adv-x="569" d="M-33 -446l7 166q36 -6 77 -6q66 0 101 58q36 58 36 162v1110h193v-1081q0 -110 -16 -197t-81.5 -153.5t-197.5 -66.5q-83 0 -119 8zM176 1278v217h217v-217h-217z" />
<glyph unicode="&#xbd;" horiz-adv-x="1024" d="M96 1065q0 123 60 211t164.5 133t234.5 45q160 0 305 -51l-28 -189q-86 34 -139 47t-130 13q-103 0 -176 -44t-73 -146q0 -89 58 -130t225 -125.5t249 -176.5t82 -250q0 -146 -69 -242t-187 -140t-266 -44q-69 0 -136.5 15t-157.5 44l21 191q169 -70 297 -70 q65 0 129.5 25t107.5 77t43 131q0 106 -71 159.5t-227 128.5t-236 157t-80 231z" />
<glyph unicode="&#xbe;" horiz-adv-x="796" d="M70 748q0 156 103 238.5t265 82.5q101 0 240 -41l-16 -168q-31 20 -98.5 37t-104.5 17q-80 0 -132.5 -33t-52.5 -95q0 -70 48.5 -103t167 -88.5t178 -118t59.5 -175.5q0 -106 -50.5 -179.5t-134.5 -109.5t-180 -36q-180 0 -286 57l10 172q53 -34 122.5 -54t117.5 -20 q78 0 137 36.5t59 112.5q0 62 -50 97.5t-167 94t-176 118.5t-59 158z" />
<glyph unicode="&#xbf;" horiz-adv-x="569" d="M20 1204v205h193v-205h-193zM188 0v1044h193v-1044h-193zM356 1204v205h193v-205h-193z" />
<glyph unicode="&#xc0;" horiz-adv-x="1478" d="M24 0l611 1430h215l604 -1430h-223l-145 360h-701l-145 -360h-216zM450 528h570l-285 709z" />
<glyph unicode="&#xc1;" horiz-adv-x="1251" d="M188 0v1430h812v-180h-607v-418h217q104 0 195 -23t161 -72.5t110 -130t40 -190.5q0 -150 -70 -243t-190 -133t-276 -40h-392zM393 168h191q136 0 226 60q89 60 89 182q0 128 -79 185q-80 57 -208 57h-219v-484z" />
<glyph unicode="&#xc2;" horiz-adv-x="1251" d="M182 0v1430h388q502 0 501 -361q0 -266 -295 -340v-4q98 -8 173 -51.5t117 -118.5t42 -174q0 -146 -72 -230.5t-193 -117.5t-280 -33h-381zM387 168h153q160 0 255.5 50t95.5 182q0 149 -102.5 200.5t-268.5 51.5h-133v-484zM387 819h113q182 0 274 43q92 42 92 186 q0 116 -78 165t-186 49h-215v-443z" />
<glyph unicode="&#xc3;" horiz-adv-x="1024" d="M180 0v1430h803v-180h-598v-1250h-205z" />
<glyph unicode="&#xc4;" horiz-adv-x="1251" d="M41 180h49q72 25 101.5 90.5t29.5 173.5v986h861v-1250h92v-426h-206v246h-722v-246h-205v426zM348 180h528v1070h-456v-820q0 -176 -72 -250z" />
<glyph unicode="&#xc5;" d="M192 0v1430h802v-180h-596v-418h542v-180h-542v-472h596v-180h-802z" />
<glyph unicode="&#xc6;" horiz-adv-x="1896" d="M6 0l635 754l-581 676h258l528 -629v629h204v-629l529 629h258l-581 -676l634 -754h-284l-556 700v-700h-204v700l-555 -700h-285z" />
<glyph unicode="&#xc7;" horiz-adv-x="1100" d="M64 30l12 191q156 -77 313 -77q146 0 247.5 67t101.5 197q0 96 -49.5 149t-131.5 74q-83 21 -197 21h-126v180h126q90 0 170 22t130 73t50 134q0 79 -38 131t-103 77t-147 25q-172 0 -336 -86l-12 182q164 64 366 64q97 0 182.5 -23.5t152.5 -71t105 -120.5t38 -166 q0 -121 -88 -211t-216 -114v-4q98 -14 175 -59t121 -119t44 -166q0 -110 -44.5 -191.5t-122 -132.5t-179.5 -75.5t-217 -24.5q-139 0 -327 54z" />
<glyph unicode="&#xc8;" horiz-adv-x="1478" d="M180 0v1430h205v-1152h4l631 1152h278v-1430h-204v1176h-4l-648 -1176h-262z" />
<glyph unicode="&#xc9;" horiz-adv-x="1478" d="M180 0v1430h205v-1152h4l631 1152h278v-1430h-204v1176h-4l-648 -1176h-262zM424 1864h100q32 -160 216 -160t214 160h100q-14 -132 -97 -205.5t-217 -73.5t-218 73.5t-98 205.5z" />
<glyph unicode="&#xca;" horiz-adv-x="1327" d="M182 0v1430h205v-629l611 629h272l-672 -676l725 -754h-299l-637 700v-700h-205z" />
<glyph unicode="&#xcb;" horiz-adv-x="1251" d="M0 166q125 0 173 70t48 208v986h861v-1430h-206v1250h-456v-840q0 -109 -36.5 -208t-123 -162.5t-227.5 -63.5z" />
<glyph unicode="&#xcc;" horiz-adv-x="1933" d="M184 0v1430h338l449 -1188l440 1188h338v-1430h-205v1237h-4l-473 -1237h-201l-473 1237h-4v-1237h-205z" />
<glyph unicode="&#xcd;" horiz-adv-x="1478" d="M192 0v1430h206v-598h684v598h204v-1430h-204v652h-684v-652h-206z" />
<glyph unicode="&#xce;" horiz-adv-x="1593" d="M108 715q0 212 82.5 380.5t239 263.5t366.5 95q211 0 367.5 -95t239 -263t82.5 -381q0 -217 -81.5 -385t-237.5 -261t-370 -93q-213 0 -368.5 93t-237.5 261t-82 385zM326 715q0 -149 50.5 -276.5t157 -205t262.5 -77.5t263 77.5t158 205t51 276.5q0 150 -54 277.5 t-160 204.5t-258 77q-150 0 -257 -77t-160 -204.5t-53 -277.5z" />
<glyph unicode="&#xcf;" horiz-adv-x="1478" d="M192 0v1430h1094v-1430h-204v1250h-684v-1250h-206z" />
<glyph unicode="&#xd0;" d="M170 0v1430h375q243 0 390 -100t147 -328q0 -150 -70 -247t-185 -140t-251 -43h-201v-572h-205zM375 752h203q113 0 199.5 61t86.5 191q0 126 -92 186t-223 60h-174v-498z" />
<glyph unicode="&#xd1;" horiz-adv-x="1251" d="M108 721q0 216 97 382.5t271 258.5q172 92 388 92q182 0 322 -62l-16 -198q-136 80 -296 80q-120 0 -222.5 -42t-175 -116.5t-111.5 -178t-39 -222.5q0 -163 72 -291t195 -198t271 -70q78 0 169 19t143 51l12 -200q-123 -50 -326 -50q-168 0 -307 52t-239 150.5t-154 237 t-54 305.5z" />
<glyph unicode="&#xd2;" d="M22 1250v180h1094v-180h-444v-1250h-205v1250h-445z" />
<glyph unicode="&#xd3;" horiz-adv-x="1366" d="M-12 1430h246l497 -873l407 873h222l-692 -1430h-222l187 360z" />
<glyph unicode="&#xd4;" horiz-adv-x="1820" d="M102 715q0 170 85 304.5t245.5 210.5t374.5 76v124h205v-124q214 0 375 -76t246 -210.5t85 -304.5q0 -174 -84.5 -308.5t-245 -209t-376.5 -74.5v-123h-205v123q-216 0 -376.5 74.5t-244.5 209.5t-84 308zM318 715q0 -110 52 -205t163 -153t274 -58v831 q-156 0 -267.5 -57t-166.5 -152t-55 -206zM1012 299q166 0 276 58t161.5 152.5t51.5 205.5q0 83 -30.5 158t-92 133t-154 91t-212.5 33v-831z" />
<glyph unicode="&#xd5;" horiz-adv-x="1366" d="M16 0l526 744l-478 686h245l381 -550l379 550h233l-481 -682l529 -748h-258l-422 606l-408 -606h-246z" />
<glyph unicode="&#xd6;" horiz-adv-x="1478" d="M192 0v1430h206v-1250h684v1250h204v-1250h92v-426h-204v246h-982z" />
<glyph unicode="&#xd7;" horiz-adv-x="1290" d="M108 930v500h206v-466q0 -120 67 -187t191 -67q172 0 331 126v594h205v-1430h-205v647q-84 -54 -174.5 -89.5t-210.5 -35.5q-114 0 -207 50t-148 143t-55 215z" />
<glyph unicode="&#xd8;" horiz-adv-x="1820" d="M184 0v1430h205v-1250h418v1250h205v-1250h418v1250h204v-1430h-1450z" />
<glyph unicode="&#xd9;" horiz-adv-x="1820" d="M184 0v1430h205v-1250h418v1250h205v-1250h418v1250h204v-1250h92v-426h-204v246h-1338z" />
<glyph unicode="&#xda;" horiz-adv-x="1214" d="M22 1250v180h428v-572h202q134 0 249.5 -46t185.5 -143t70 -241q0 -154 -70.5 -249t-190.5 -137t-276 -42h-374v1250h-224zM450 180h174q127 0 221.5 61t94.5 185q0 130 -85 191t-201 61h-204v-498z" />
<glyph unicode="&#xdb;" horiz-adv-x="1706" d="M182 0v1430h205v-572h201q134 0 250 -46t186 -143t70 -241q0 -154 -71 -249t-190.5 -137t-275.5 -42h-375zM387 180h174q127 0 221 61t94 185q0 130 -85 191t-201 61h-203v-498zM1319 0v1430h205v-1430h-205z" />
<glyph unicode="&#xdc;" d="M170 0v1430h205v-572h201q134 0 249.5 -45.5t186 -143t70.5 -241.5q0 -154 -71 -249t-190.5 -137t-275.5 -42h-375zM375 180h174q127 0 221 61t94 185q0 130 -84 191t-202 61h-203v-498z" />
<glyph unicode="&#xdd;" horiz-adv-x="1251" d="M64 26l12 200q52 -32 142 -51t169 -19q138 0 255.5 61.5t191.5 174t88 260.5h-688v180h682q-23 129 -96.5 229.5t-187.5 156.5t-255 56q-159 0 -295 -80l-16 198q140 62 321 62q216 0 389 -92t270 -258.5t97 -382.5q0 -168 -53.5 -306t-153.5 -236.5t-239 -150.5 t-308 -52q-201 0 -325 50z" />
<glyph unicode="&#xde;" horiz-adv-x="2009" d="M192 0v1430h206v-598h198q20 182 102 323.5t221.5 220t323.5 78.5q203 0 351 -95t225 -263t77 -381q0 -219 -76 -386t-224 -260t-353 -93q-195 0 -338 84t-222 238t-91 354h-194v-652h-206zM807 715q0 -148 45.5 -276t144.5 -205.5t246 -77.5q148 0 246.5 77.5t144.5 205 t46 276.5q0 113 -27 212.5t-82 178t-137 123.5t-191 45q-108 0 -190.5 -45t-137.5 -124t-81.5 -179.5t-26.5 -210.5z" />
<glyph unicode="&#xdf;" horiz-adv-x="1251" d="M62 0l270 570q33 64 62.5 94t76.5 48v5q-128 22 -211.5 110.5t-83.5 214.5q0 160 75 246t195 114t285 28h351v-1430h-206v635h-122q-68 0 -105 -6.5t-71 -36.5t-64 -96l-219 -496h-233zM393 1038q0 -68 36.5 -118t106.5 -77.5t166 -27.5h174v435h-196q-139 0 -213 -56 t-74 -156z" />
<glyph unicode="&#xe0;" d="M94 301q0 94 45 160.5t119 107.5t157 58.5t165 17.5q128 0 204 -4q0 140 -58 206.5t-200 66.5q-82 0 -163.5 -29t-139.5 -78l-10 164q165 98 344 98q220 0 320 -106.5t100 -325.5v-432q0 -144 8 -205h-180v135h-4q-45 -62 -125 -110.5t-199 -48.5q-176 0 -279.5 80.5 t-103.5 244.5zM299 301q0 -77 61 -123q62 -47 134 -47q92 0 158 35.5t99 98.5t33 141v92q-20 0 -58 2q-36 2 -64 2q-132 0 -247.5 -40.5t-115.5 -160.5z" />
<glyph unicode="&#xe1;" horiz-adv-x="1251" d="M127 522q0 148 11 264t37.5 212t72.5 173t114 137q74 66 194 107t230 77t134 74l116 -118q-39 -54 -105 -88t-181.5 -69t-173.5 -56t-109 -61q-66 -50 -109.5 -126t-52.5 -155q129 176 359 176q142 0 255 -70.5t175.5 -195.5t62.5 -281q0 -111 -37.5 -210.5t-106 -175 t-164 -118t-206.5 -42.5q-113 0 -208 42t-164 118.5t-106.5 175.5t-37.5 210zM332 522q0 -156 80 -273.5t231 -117.5q100 0 170.5 56.5t104.5 146.5t34 188q0 102 -37 191.5t-107.5 145t-164.5 55.5t-165 -55t-108.5 -145t-37.5 -192z" />
<glyph unicode="&#xe2;" d="M164 0v1044h440q184 0 290 -63t106 -207q0 -174 -195 -238v-4q108 -23 167.5 -86.5t59.5 -161.5q0 -284 -454 -284h-414zM356 146h203q130 0 200.5 32t70.5 119q0 104 -76 138t-212 34h-186v-323zM356 612h170q99 0 158.5 11t92 43t32.5 94q0 76 -56.5 108.5t-142.5 32.5 h-254v-289z" />
<glyph unicode="&#xe3;" horiz-adv-x="872" d="M164 0v1044h688v-155h-494v-889h-194z" />
<glyph unicode="&#xe4;" d="M39 156h49q100 30 100 182v706h787v-888h75v-332h-192v176h-624v-176h-195v332zM332 156h450v733h-407v-569q0 -96 -43 -164z" />
<glyph unicode="&#xe5;" d="M94 540q0 153 61 273.5t173 188.5q112 67 256 67q167 0 269.5 -74.5t146.5 -206.5t44 -309h-745q0 -100 47.5 -179.5t126.5 -124t170 -44.5q86 0 182.5 35.5t138.5 69.5v-193q-25 -10 -59.5 -22.5t-72.5 -22.5t-86.5 -16t-110.5 -6q-180 0 -301.5 69t-180.5 195t-59 300z M299 622h541q0 80 -31 147t-90 106t-139 39q-88 0 -149 -42.5t-92.5 -108.5t-39.5 -141z" />
<glyph unicode="&#xe6;" horiz-adv-x="1517" d="M0 0l473 553l-409 491h245l355 -456v456h192v-456l354 456h246l-410 -491l474 -553h-268l-396 506v-506h-192v506l-396 -506h-268z" />
<glyph unicode="&#xe7;" horiz-adv-x="909" d="M62 24l12 164l14 -6q140 -62 254 -61q118 0 196 45q76 44 78 133q0 96 -74 132t-222 36h-115v151h115q274 0 274 154q0 78 -61 118t-165 40q-140 0 -268 -66l-16 -8l-12 158l8 2q156 53 303 53q118 0 209.5 -32t143.5 -97q52 -66 52 -160q0 -84 -60 -149t-142 -84v-5 q100 -18 166.5 -84t66.5 -167q0 -315 -475 -315q-72 0 -122 10t-152 36z" />
<glyph unicode="&#xe8;" horiz-adv-x="1251" d="M154 0v1044h194v-788h4l498 788h248v-1044h-193v811h-4l-512 -811h-235z" />
<glyph unicode="&#xe9;" horiz-adv-x="1251" d="M154 0v1044h194v-788h4l498 788h248v-1044h-193v811h-4l-512 -811h-235zM309 1478h101q32 -160 214 -159q184 -1 216 159h100q-14 -130 -98 -204t-218 -74t-217.5 73t-97.5 205z" />
<glyph unicode="&#xea;" horiz-adv-x="1100" d="M164 0v1044h192v-456l426 456h256l-485 -491l549 -553h-278l-468 506v-506h-192z" />
<glyph unicode="&#xeb;" d="M8 152q106 2 143 45t37 141v706h787v-1044h-193v889h-407v-584q0 -138 -80.5 -233.5t-259.5 -95.5z" />
<glyph unicode="&#xec;" horiz-adv-x="1626" d="M164 0v1044h299l354 -827l347 827h298v-1044h-192v844h-4l-365 -844h-176l-365 844h-4v-844h-192z" />
<glyph unicode="&#xed;" horiz-adv-x="1251" d="M164 0v1044h192v-424h539v424h193v-1044h-193v465h-539v-465h-192z" />
<glyph unicode="&#xee;" horiz-adv-x="1251" d="M94 522q0 156 66.5 281.5t188 195.5t277.5 70t277 -70t187.5 -195.5t66.5 -281.5q0 -110 -38.5 -210.5t-109.5 -175.5t-169 -117.5t-214 -42.5t-214 42.5t-169 118t-110 174.5t-39 211zM299 522q0 -98 35.5 -188t109.5 -146.5t182 -56.5q107 0 181 56.5t109.5 146.5 t35.5 188q0 100 -39 191t-113 146t-174 55q-74 0 -135 -32t-104 -88t-65.5 -126.5t-22.5 -145.5z" />
<glyph unicode="&#xef;" horiz-adv-x="1251" d="M164 0v1044h924v-1044h-193v889h-539v-889h-192z" />
<glyph unicode="&#xf0;" horiz-adv-x="1251" d="M164 -430v1474h184v-147h4q45 69 136.5 120.5t217.5 51.5q110 0 195.5 -41.5t142 -115t85 -168t28.5 -204.5q0 -151 -48 -279t-149 -207q-102 -78 -252 -78q-244 0 -348 168h-4v-574h-192zM356 520q0 -92 33.5 -182.5t103 -148.5t171.5 -58q98 0 163 56.5t95 147 t30 191.5t-29 189t-94 143.5t-163 55.5q-100 0 -170 -56t-105 -146t-35 -192z" />
<glyph unicode="&#xf1;" horiz-adv-x="909" d="M78 522q0 156 66.5 281.5t188 195.5t277.5 70q58 0 126 -12t108 -29l-16 -160q-110 46 -210 46q-104 0 -180 -55t-116 -145.5t-40 -191.5q0 -99 37 -188.5t116 -146t196 -56.5q117 -1 207 59l14 -172q-94 -42 -242 -42q-116 0 -214 42t-169 118t-110 175t-39 211z" />
<glyph unicode="&#xf2;" horiz-adv-x="948" d="M22 889v155h904v-155h-354v-889h-195v889h-355z" />
<glyph unicode="&#xf3;" horiz-adv-x="1024" d="M14 1044h212l280 -864h4l286 864h195l-385 -1066q-49 -138 -90.5 -224t-117.5 -147t-193 -61q-49 0 -131 14l12 158q48 -16 90 -17q77 0 128.5 54t76.5 118.5t25 85.5q0 9 -38 111z" />
<glyph unicode="&#xf4;" horiz-adv-x="1820" d="M92 540q0 106 26 201.5t77.5 169.5t128 116t174.5 42q222 0 311 -166h6v633h191v-633h6q90 166 311 166q100 0 176.5 -41.5t127.5 -115.5t76 -169t25 -203q0 -150 -44 -278.5t-135 -207t-226 -78.5q-215 0 -311 166h-6v-572h-191v572h-6q-95 -166 -311 -166 q-134 0 -226 78.5t-136 207t-44 278.5zM297 526q0 -102 27 -191.5t84.5 -146.5t142.5 -57q88 0 147.5 58.5t88 148.5t28.5 184q0 100 -29.5 190.5t-90.5 146t-148 55.5q-86 0 -142 -55t-82 -143t-26 -190zM1006 522q0 -93 29 -183.5t90 -149t149 -58.5q123 0 186.5 117.5 t63.5 277.5q0 101 -26 189.5t-82 143.5t-142 55t-147 -56t-91 -145t-30 -191z" />
<glyph unicode="&#xf5;" horiz-adv-x="1024" d="M20 0l378 547l-340 497h239l227 -372l232 372h215l-336 -497l369 -547h-238l-258 410l-258 -410h-230z" />
<glyph unicode="&#xf6;" horiz-adv-x="1251" d="M164 0v1044h192v-890h539v890h193v-890h76v-330h-193v176h-807z" />
<glyph unicode="&#xf7;" horiz-adv-x="1100" d="M90 676v368h192v-344q4 -166 200 -168q132 0 262 82v430h192v-1044h-192v452q-152 -80 -306 -80q-146 0 -247 83.5t-101 220.5z" />
<glyph unicode="&#xf8;" horiz-adv-x="1554" d="M162 0v1044h192v-888h326v888h192v-888h326v888h192v-1044h-1228z" />
<glyph unicode="&#xf9;" horiz-adv-x="1554" d="M162 0v1044h192v-888h326v888h192v-888h326v888h192v-888h76v-332h-192v176h-1112z" />
<glyph unicode="&#xfa;" horiz-adv-x="1100" d="M20 891v153h371v-407h248q113 0 205 -33.5t147 -105.5t55 -180q0 -318 -432 -318h-416v891h-178zM391 154h227q97 0 161.5 40t64.5 122q0 88 -56 128t-147 40h-250v-330z" />
<glyph unicode="&#xfb;" horiz-adv-x="1554" d="M164 0v1044h192v-407h250q176 0 292 -79.5t116 -239.5q0 -318 -432 -318h-418zM356 154h228q98 0 162.5 40t64.5 122q0 88 -56 128q-57 40 -147 40h-252v-330zM1196 0v1044h194v-1044h-194z" />
<glyph unicode="&#xfc;" horiz-adv-x="1063" d="M164 0v1044h192v-407h252q113 0 205.5 -33.5t147.5 -105.5t55 -180q0 -318 -432 -318h-420zM356 154h230q98 0 162.5 40t64.5 122q0 88 -56 128q-57 40 -147 40h-254v-330z" />
<glyph unicode="&#xfd;" horiz-adv-x="909" d="M58 18l14 172q90 -60 206 -59q107 0 181.5 47.5t114.5 124.5t50 166h-419v147h411q-24 128 -110 213t-215 85q-100 0 -209 -46l-16 160q42 17 108 29t125 12q118 0 216.5 -40.5t169.5 -113.5t109 -173.5t38 -219.5q0 -110 -39 -210t-109.5 -175.5t-169 -118t-215.5 -42.5 q-149 0 -241 42z" />
<glyph unicode="&#xfe;" horiz-adv-x="1630" d="M164 0v1044h192v-426h152q30 203 166 327t346 124q152 0 269.5 -69.5t181 -194.5t63.5 -283q0 -112 -36 -211t-105 -175t-164 -118t-209 -42q-142 0 -256 64t-181.5 176.5t-76.5 248.5h-150v-465h-192zM706 522q0 -99 34 -188.5t104.5 -146t175.5 -56.5q103 0 172.5 56.5 t103 146.5t33.5 188q0 102 -36.5 192t-107 145t-165.5 55q-96 0 -167.5 -55t-109 -145t-37.5 -192z" />
<glyph unicode="&#xff;" d="M28 0l232 424q34 62 90 92v4q-95 22 -157 87t-62 149q0 114 55.5 177t148.5 87t222 24h418v-1044h-193v452h-164q-85 0 -121 -19t-63 -73l-176 -360h-230zM334 754q0 -148 221 -148h227v285h-246q-202 1 -202 -137z" />
<glyph unicode="&#x2000;" horiz-adv-x="932" />
<glyph unicode="&#x2001;" horiz-adv-x="1864" />
<glyph unicode="&#x2002;" horiz-adv-x="932" />
<glyph unicode="&#x2003;" horiz-adv-x="1864" />
<glyph unicode="&#x2004;" horiz-adv-x="621" />
<glyph unicode="&#x2005;" horiz-adv-x="466" />
<glyph unicode="&#x2006;" horiz-adv-x="310" />
<glyph unicode="&#x2007;" horiz-adv-x="310" />
<glyph unicode="&#x2008;" horiz-adv-x="233" />
<glyph unicode="&#x2009;" horiz-adv-x="372" />
<glyph unicode="&#x200a;" horiz-adv-x="103" />
<glyph unicode="&#x2010;" horiz-adv-x="682" d="M78 473v155h526v-155h-526z" />
<glyph unicode="&#x2011;" horiz-adv-x="682" d="M78 473v155h526v-155h-526z" />
<glyph unicode="&#x2012;" horiz-adv-x="682" d="M78 473v155h526v-155h-526z" />
<glyph unicode="&#x2013;" horiz-adv-x="1024" d="M0 479v143h1024v-143h-1024z" />
<glyph unicode="&#x2014;" horiz-adv-x="2048" d="M0 479v143h2048v-143h-2048z" />
<glyph unicode="&#x2018;" horiz-adv-x="569" d="M106 928l174 502h183l-129 -502h-228z" />
<glyph unicode="&#x2019;" horiz-adv-x="569" d="M106 928l128 502h229l-181 -502h-176z" />
<glyph unicode="&#x201a;" horiz-adv-x="569" d="M106 -272l130 502h227l-174 -502h-183z" />
<glyph unicode="&#x201c;" d="M196 928l176 502h181l-127 -502h-230zM586 928l172 502h184l-131 -502h-225z" />
<glyph unicode="&#x201d;" d="M196 928l130 502h227l-174 -502h-183zM586 928l129 502h227l-174 -502h-182z" />
<glyph unicode="&#x201e;" d="M196 -272l130 502h227l-174 -502h-183zM586 -272l129 502h227l-174 -502h-182z" />
<glyph unicode="&#x2022;" horiz-adv-x="1024" d="M156 715q0 98 47.5 179.5t129 129t179.5 47.5q97 0 179.5 -47.5t130.5 -129t48 -179.5t-48 -180.5t-130.5 -130.5t-179.5 -48q-98 0 -179.5 48t-129 130.5t-47.5 180.5z" />
<glyph unicode="&#x2026;" horiz-adv-x="2048" d="M228 0v230h228v-230h-228zM910 0v230h228v-230h-228zM1592 0v230h228v-230h-228z" />
<glyph unicode="&#x202f;" horiz-adv-x="372" />
<glyph unicode="&#x2039;" horiz-adv-x="569" d="M41 551l293 413h180l-266 -413l266 -414h-180z" />
<glyph unicode="&#x203a;" horiz-adv-x="569" d="M56 137l266 414l-266 413h180l292 -413l-292 -414h-180z" />
<glyph unicode="&#x205f;" horiz-adv-x="466" />
<glyph unicode="&#x2122;" horiz-adv-x="2027" d="M110 1286v144h680v-144h-262v-708h-156v708h-262zM991 578v852h242l223 -576l220 576h241v-852h-155v651h-5l-239 -651h-128l-239 651h-4v-651h-156z" />
<glyph unicode="&#xe000;" horiz-adv-x="1045" d="M0 0v1045h1045v-1045h-1045z" />
</font>
</defs>
</svg>
