<?xml version="1.0" standalone="no"?>
<!DOCTYPE svg PUBLIC "-//W3C//DTD SVG 1.1//EN" "http://www.w3.org/Graphics/SVG/1.1/DTD/svg11.dtd" >
<svg>
<metadata>
Created by FontForge 20110222 at Thu Aug  8 05:49:33 2013
 By Orthosie Webhosting
(c) 1992, Tilde Ltd. AG Fonts Collection. Created by Andrejs Grinbergs.
</metadata>
<defs>
<font id="AGHelveticaCyrBold" horiz-adv-x="2277" >
  <font-face 
    font-family="AGHelveticaCyrBold"
    font-weight="700"
    font-stretch="normal"
    units-per-em="4096"
    panose-1="2 11 -30 0 0 0 0 0 0 0"
    ascent="3276"
    descent="-820"
    x-height="2179"
    cap-height="2941"
    bbox="-135 -889 4108 3748"
    underline-thickness="20"
    underline-position="-123"
    unicode-range="U+0020-2122"
  />
<missing-glyph horiz-adv-x="3072" 
d="M512 0v2560h2048v-2560h-2048zM2494 66v2428h-1916v-2428h1916z" />
    <glyph glyph-name=".notdef" horiz-adv-x="3072" 
d="M512 0v2560h2048v-2560h-2048zM2494 66v2428h-1916v-2428h1916z" />
    <glyph glyph-name=".null" horiz-adv-x="0" 
 />
    <glyph glyph-name="nonmarkingreturn" horiz-adv-x="0" 
 />
    <glyph glyph-name="space" unicode=" " horiz-adv-x="2048" 
 />
    <glyph glyph-name="exclam" unicode="!" horiz-adv-x="1364" 
d="M983 578v-578h-598v578h598zM999 2191l-163 -1376h-304l-163 1376v750h630v-750z" />
    <glyph glyph-name="quotedbl" unicode="&#x22;" horiz-adv-x="1942" 
d="M1139 1831v1110h401v-1110h-401zM401 1831v1110h402v-1110h-402z" />
    <glyph glyph-name="numbersign" unicode="#" 
d="M2085 1184l-49 -369h-398l-114 -815h-385l114 815h-397l-115 -815h-385l115 815h-397l49 369h397l70 491h-397l49 369h397l115 815h385l-115 -815h397l115 815h385l-115 -815h398l-50 -369h-397l-69 -491h397zM1372 1675h-397l-70 -491h398z" />
    <glyph glyph-name="dollar" unicode="$" 
d="M2097 2052h-528q-16 256 -102.5 339t-233.5 83v-766q522 -167 684 -324q225 -212 225 -573q0 -153 -49 -300t-156.5 -274t-284 -210t-419.5 -97v-401h-189v401q-251 21 -424.5 86t-283 180t-161.5 283.5t-52 401.5h536q14 -161 45 -260.5t111 -164t229 -91.5v860
q-187 51 -326.5 105t-262 145.5t-197 236t-74.5 344.5q0 358 223 602t637 250v266h189v-266q337 -35 583.5 -206.5t280.5 -649.5zM1044 1765v709q-166 -8 -255 -106t-89 -214q0 -309 344 -389zM1233 1155v-790q84 6 164.5 42.5t138 125.5t57.5 233q0 290 -360 389z" />
    <glyph glyph-name="percent" unicode="%" horiz-adv-x="3641" 
d="M2036 696q0 202 100 373.5t272.5 272t372.5 100.5q199 0 371 -100.5t273.5 -272.5t101.5 -373q0 -202 -101 -373.5t-274 -271.5t-371 -100q-202 0 -373.5 99.5t-271.5 271t-100 374.5zM2458 696q0 -134 95.5 -228.5t227.5 -94.5t228 94t96 229q0 136 -96 230t-228 94
t-227.5 -94.5t-95.5 -229.5zM115 2163q0 153 58 288.5t161 238.5t240 160.5t286 57.5q199 0 371.5 -101t273.5 -272t101 -372q0 -203 -101 -374t-274 -271.5t-371 -100.5q-202 0 -373.5 99.5t-271.5 271t-100 375.5zM537 2163q0 -133 95.5 -228.5t227.5 -95.5t228 95t96 229
q0 135 -96 229t-228 94t-227.5 -94.5t-95.5 -228.5zM2777 2908l-1630 -2986h-303l1630 2986h303z" />
    <glyph glyph-name="ampersand" unicode="&#x26;" horiz-adv-x="2957" 
d="M1589 2265q0 119 -67.5 180.5t-178.5 61.5q-100 0 -168.5 -63t-68.5 -175q0 -137 213 -368q270 170 270 364zM2339 643l532 -643h-692l-201 250q-154 -154 -345 -241t-494 -87q-203 0 -374 67t-292.5 184.5t-186.5 269t-65 315.5q0 158 43 295.5t168 280t354 280.5l62 37
q-266 301 -266 614q0 196 99 350.5t277 240t406 85.5q172 0 338.5 -75t274.5 -229.5t108 -375.5q0 -417 -488 -700l418 -517q125 194 152 484h508q-18 -194 -59.5 -345.5t-106.5 -276t-170 -263.5zM1683 610l-540 676q-140 -101 -209 -164t-104 -139t-35 -188q0 -72 41 -163
t138.5 -158.5t254.5 -67.5q232 0 454 204z" />
    <glyph glyph-name="quotesingle" unicode="'" horiz-adv-x="975" 
d="M287 1831v1110h401v-1110h-401z" />
    <glyph glyph-name="parenleft" unicode="(" horiz-adv-x="1364" 
d="M1286 -852h-422q-324 439 -522.5 906.5t-198.5 1014.5q0 290 56.5 557t155.5 508t226.5 453.5t282.5 418.5h422q-131 -225 -227 -427t-169.5 -432t-115 -500.5t-41.5 -577.5q0 -399 72 -736t188 -606.5t293 -578.5z" />
    <glyph glyph-name="parenright" unicode=")" horiz-adv-x="1364" 
d="M78 3006h422q324 -436 522.5 -905t198.5 -1016q0 -289 -57 -558t-156 -508t-229 -456.5t-279 -414.5h-422q270 460 411.5 905t141.5 1032q0 399 -72 736t-188 606.5t-293 578.5z" />
    <glyph glyph-name="asterisk" unicode="*" horiz-adv-x="1593" 
d="M1384 2593l99 -299l-430 -131l282 -398l-258 -180l-278 373l-283 -373l-258 180l279 398l-426 131l94 299l418 -139v487h348v-487z" />
    <glyph glyph-name="plus" unicode="+" horiz-adv-x="2392" 
d="M967 1266v807h458v-807h803v-459h-803v-807h-458v807h-803v459h803z" />
    <glyph glyph-name="comma" unicode="," horiz-adv-x="1139" 
d="M877 598v-516q0 -352 -160 -526.5t-451 -243.5h-4v217q99 34 167.5 78t117.5 138t59 255h-344v598h615z" />
    <glyph glyph-name="hyphen" unicode="-" horiz-adv-x="1364" 
d="M1253 1413v-532h-1142v532h1142z" />
    <glyph glyph-name="period" unicode="." horiz-adv-x="1139" 
d="M877 598v-598h-615v598h615z" />
    <glyph glyph-name="slash" unicode="/" horiz-adv-x="1139" 
d="M1274 3019l-930 -3097h-479l930 3097h479z" />
    <glyph glyph-name="zero" unicode="0" 
d="M131 1417q0 507 109 839t332.5 492t566.5 160q342 0 565.5 -160t332.5 -492t109 -839q0 -764 -246.5 -1129.5t-760.5 -365.5q-343 0 -566.5 161.5t-332.5 494t-109 839.5zM721 1417q0 -284 20 -480t67.5 -319.5t127 -180t203.5 -56.5q162 0 253 102t127.5 326t36.5 608
q0 299 -19 487t-66 310t-127 178.5t-205 56.5q-165 0 -255 -101t-126.5 -323.5t-36.5 -607.5z" />
    <glyph glyph-name="one" unicode="1" 
d="M283 2003v401h82q374 0 537.5 151t174.5 353h471v-2908h-573v2003h-692z" />
    <glyph glyph-name="two" unicode="2" 
d="M696 1880h-557q0 430 168 658.5t379 299t404 70.5q212 0 392 -60t317.5 -177.5t213.5 -289t76 -390.5q0 -232 -86.5 -408.5t-215 -297.5t-304.5 -241q-199 -139 -284 -199t-162 -120t-128.5 -113t-77.5 -104h1262v-508h-1987q14 229 54 388.5t183.5 356t438.5 410.5
q335 245 463.5 351.5t199.5 226t71 278.5q0 162 -103.5 288t-298.5 126q-184 0 -275.5 -84.5t-116 -199.5t-26.5 -261z" />
    <glyph glyph-name="three" unicode="3" 
d="M872 1274v409h91q200 0 343.5 73.5t143.5 320.5q0 74 -29 158t-110.5 149t-225.5 65q-393 0 -393 -475h-532q0 277 105.5 487.5t322 328.5t534.5 118q159 0 314.5 -42.5t289.5 -138t215.5 -253t81.5 -377.5q0 -203 -103.5 -346t-244.5 -207v-8q80 -24 179.5 -92
t179.5 -214.5t80 -369.5q0 -270 -125.5 -484.5t-352.5 -334t-514 -119.5q-144 0 -303 29.5t-323.5 127t-274.5 297.5t-110 517h561l-4 -4q0 -187 87 -347.5t339 -160.5q183 0 306.5 124.5t123.5 354.5q0 184 -99.5 275t-236.5 115t-316 24z" />
    <glyph glyph-name="four" unicode="4" 
d="M532 1090h725q0 352 2.5 552t6.5 425t4 272h-8zM2154 1090v-447h-323v-643h-574v643h-1146v496l1069 1769h651v-1818h323z" />
    <glyph glyph-name="five" unicode="5" 
d="M815 2376l-102 -631q108 76 219 118t301 42q209 0 412.5 -101t336 -312.5t132.5 -524.5q0 -236 -94.5 -474t-331 -404.5t-631.5 -166.5q-236 0 -447.5 95t-348.5 289.5t-150 471.5h573q42 -397 406 -397q202 0 318 153t116 392q0 214 -107 367t-319 153q-273 0 -385 -209
l-512 25l200 1597h1598v-483h-1184z" />
    <glyph glyph-name="six" unicode="6" 
d="M2073 2171h-570q-13 128 -96.5 203t-239.5 75q-434 0 -479 -802l8 -9q176 242 545 242q285 0 487 -129t302 -336t100 -432q0 -313 -120 -554t-336.5 -374t-493.5 -133q-413 0 -647 203t-320 525t-86 734q0 265 33 513t140.5 480t330.5 381.5t577 149.5q73 0 188 -19
t228 -61.5t178 -107.5q126 -123 179 -225.5t92 -323.5zM1556 934q0 251 -127 369t-290 118q-182 0 -310.5 -123t-128.5 -376q0 -157 56.5 -280t160 -192t238.5 -69q172 0 286.5 138t114.5 415z" />
    <glyph glyph-name="seven" unicode="7" 
d="M2163 2859v-442q-144 -156 -304 -370t-325 -518.5t-286 -696t-146 -832.5h-590q27 527 216.5 1007t414.5 815t405 529h-1446l13 508h2048z" />
    <glyph glyph-name="eight" unicode="8" 
d="M1143 1729q166 0 261 100.5t95 259.5q0 162 -96.5 261t-239.5 99q-188 0 -290.5 -97.5t-102.5 -262.5q0 -141 100 -250.5t273 -109.5zM2146 864q0 -210 -98.5 -427t-325 -366t-583.5 -149q-266 0 -463 79t-316 208.5t-174 284t-55 313.5q0 124 23 246t121 260t298 231
q-352 177 -352 570q0 240 118.5 421t325.5 277t461 96q433 0 677.5 -219.5t244.5 -538.5q0 -408 -336 -585q221 -110 327.5 -270.5t106.5 -430.5zM1556 840q0 182 -102.5 318t-323.5 136q-170 0 -289.5 -114t-119.5 -336q0 -211 113.5 -337t308.5 -126q205 0 309 141
t104 318z" />
    <glyph glyph-name="nine" unicode="9" 
d="M696 1946q0 -533 430 -533q170 0 296 124t126 364q0 254 -110.5 395t-327.5 141q-155 0 -284.5 -108t-129.5 -383zM180 672h570v-4q46 -287 335 -287q128 0 236 79.5t175.5 261t68.5 470.5l-9 8q-164 -246 -552 -246q-269 0 -470 123.5t-306 332t-105 454.5
q0 344 126.5 579.5t350.5 350t514 114.5q352 0 566.5 -161.5t312 -403.5t121.5 -467t24 -463q0 -530 -148.5 -865.5t-387 -480.5t-521.5 -145q-244 0 -441 91t-316.5 261t-143.5 398z" />
    <glyph glyph-name="colon" unicode=":" horiz-adv-x="1364" 
d="M991 598v-598h-614v598h614zM991 2097v-598h-614v598h614z" />
    <glyph glyph-name="semicolon" unicode=";" horiz-adv-x="1364" 
d="M991 598v-516q0 -353 -159.5 -527t-450.5 -243h-4v217q153 53 242 148t102 323h-344v598h614zM991 2097v-598h-614v598h614z" />
    <glyph glyph-name="less" unicode="&#x3c;" horiz-adv-x="2392" 
d="M2236 410v-443l-2080 885v369l2080 884v-442l-1486 -627z" />
    <glyph glyph-name="equal" unicode="=" horiz-adv-x="2392" 
d="M2228 1716v-459h-2064v459h2064zM2228 815v-459h-2064v459h2064z" />
    <glyph glyph-name="greater" unicode="&#x3e;" horiz-adv-x="2392" 
d="M156 410l1486 626l-1486 627v442l2080 -884v-369l-2080 -885v443z" />
    <glyph glyph-name="question" unicode="?" horiz-adv-x="2503" 
d="M1532 852h-541q0 213 27 342.5t116.5 244t274.5 244.5q254 176 254 406q0 217 -119 311t-278 94q-244 0 -332 -133t-111 -338v-4h-577q0 334 145 550t369.5 312.5t468.5 96.5q193 0 429 -60.5t427.5 -255t191.5 -557.5q0 -160 -56 -287t-162.5 -235.5t-276.5 -230.5
q-100 -73 -150.5 -129t-75 -141.5t-24.5 -229.5zM1573 578v-578h-598v578h598z" />
    <glyph glyph-name="at" unicode="@" horiz-adv-x="3994" 
d="M2380 1540q0 152 -91.5 250t-236.5 98q-134 0 -244.5 -83t-172.5 -212.5t-62 -257.5q0 -161 86 -262.5t233 -101.5q139 0 251 84t174.5 217.5t62.5 267.5zM2503 2019l53 217h360l-237 -1044q-29 -109 -29 -172q0 -86 62 -86q111 0 218 89t175.5 254t68.5 378
q0 323 -145.5 558t-401 356.5t-571.5 121.5q-343 0 -609.5 -160.5t-412 -441t-145.5 -627.5q0 -357 157.5 -633.5t436.5 -427.5t631 -151q248 0 470.5 88.5t389.5 243.5h364q-142 -210 -336 -358t-426 -225t-487 -77q-439 0 -807.5 201.5t-583.5 556t-215 790.5
q0 321 123 605.5t343 497.5t507.5 329.5t607.5 116.5q280 0 540.5 -90.5t464 -259t320.5 -403t117 -513.5q0 -309 -114.5 -539.5t-285.5 -373t-348 -211t-296 -68.5q-94 0 -161 56t-73 161l-8 4q-85 -95 -201 -158t-229 -63q-176 0 -327.5 98t-242 263.5t-90.5 351.5
q0 259 110.5 492t311.5 376.5t455 143.5q331 0 496 -267z" />
    <glyph glyph-name="A" unicode="A" horiz-adv-x="2957" 
d="M934 606l-205 -606h-647l1048 2941h709l1036 -2941h-667l-189 606h-1085zM1475 2277l-377 -1163h749l-364 1163h-8z" />
    <glyph glyph-name="B" unicode="B" horiz-adv-x="2957" 
d="M311 0v2941h1430q334 0 537 -117.5t285.5 -288.5t82.5 -348q0 -275 -104 -400t-256 -202q454 -170 454 -713q0 -174 -67 -331.5t-187 -274.5q-99 -95 -197 -149.5t-271 -85.5t-462 -31h-1245zM901 1294v-786h754q471 0 471 430q0 180 -128 268t-315 88h-782zM901 2433
v-643h721q194 0 314 81t120 247q0 172 -113 243.5t-337 71.5h-705z" />
    <glyph glyph-name="C" unicode="C" horiz-adv-x="2957" 
d="M2802 1978h-615q-58 213 -189 360.5t-462 147.5q-284 0 -506.5 -235t-222.5 -793q0 -277 76.5 -504.5t240 -363t412.5 -135.5q171 0 304.5 63t222.5 188.5t124 301.5h615q-63 -326 -225.5 -570.5t-428 -380t-624.5 -135.5q-395 0 -699.5 176.5t-474.5 526t-170 841.5
q0 498 176.5 849t484 527.5t691.5 176.5q313 0 552.5 -96t392.5 -251.5t232.5 -336t92.5 -357.5z" />
    <glyph glyph-name="D" unicode="D" horiz-adv-x="2957" 
d="M311 0v2941h1299q352 0 590.5 -132t369.5 -342t183.5 -450t52.5 -477q0 -265 -58 -527t-197.5 -494.5t-380 -375.5t-585.5 -143h-1274zM913 2433v-1925h598q234 0 385 139.5t217 364.5t66 483q0 397 -105.5 606t-252 270.5t-318.5 61.5h-590z" />
    <glyph glyph-name="E" unicode="E" horiz-adv-x="2732" 
d="M2474 2941v-520h-1561v-619h1434v-520h-1434v-762h1631v-520h-2233v2941h2163z" />
    <glyph glyph-name="F" unicode="F" horiz-adv-x="2503" 
d="M926 1237v-1237h-615v2941h2093v-520h-1478v-664h1294v-520h-1294z" />
    <glyph glyph-name="G" unicode="G" horiz-adv-x="3187" 
d="M1692 1090v495h1228v-1585h-409l-62 369q-109 -128 -214.5 -219.5t-280 -159.5t-422.5 -68q-269 0 -513 97t-434 292t-297.5 485t-107.5 666q0 418 158 773t482.5 569.5t797.5 214.5q324 0 565 -92.5t396.5 -242t235.5 -320.5t93 -336h-614q0 69 -77.5 186.5t-223.5 207
t-342 89.5q-232 0 -422.5 -111t-306 -350t-115.5 -596q0 -378 120.5 -604t312 -317t423.5 -91q106 0 244.5 45t275 190t193.5 413h-684z" />
    <glyph glyph-name="H" unicode="H" horiz-adv-x="2957" 
d="M2052 1319h-1147v-1319h-614v2941h614v-1114h1147v1114h614v-2941h-614v1319z" />
    <glyph glyph-name="I" unicode="I" horiz-adv-x="1139" 
d="M877 2941v-2941h-615v2941h615z" />
    <glyph glyph-name="J" unicode="J" 
d="M1982 2941v-2089q0 -307 -105 -515t-308.5 -309.5t-499.5 -101.5q-348 0 -553 100.5t-294.5 265t-110.5 349.5t-21 469h574q0 -255 23 -398.5t100.5 -216.5t236.5 -73q217 0 280.5 110t63.5 320v2089h614z" />
    <glyph glyph-name="K" unicode="K" horiz-adv-x="2957" 
d="M971 995v-995h-615v2941h615v-1196l1122 1196h795l-1200 -1204l1269 -1737h-790l-910 1290z" />
    <glyph glyph-name="L" unicode="L" horiz-adv-x="2503" 
d="M926 2941v-2409h1462v-532h-2077v2941h615z" />
    <glyph glyph-name="M" unicode="M" horiz-adv-x="3412" 
d="M3133 2941v-2941h-573v2458h-8l-549 -2458h-602l-537 2458h-8v-2458h-573v2941h897l532 -2318h8l525 2318h888z" />
    <glyph glyph-name="N" unicode="N" horiz-adv-x="2957" 
d="M2105 893v2048h574v-2941h-615l-1200 2097h-8v-2097h-573v2941h647l1167 -2048h8z" />
    <glyph glyph-name="O" unicode="O" horiz-adv-x="3187" 
d="M180 1470q0 483 152.5 797.5t381.5 476.5t457 218.5t422 56.5q196 0 422.5 -56.5t455.5 -217.5t382 -476.5t153 -798.5q0 -482 -153 -797.5t-383.5 -477t-458.5 -217.5t-418 -56q-189 0 -418 56.5t-459.5 218.5t-383 476.5t-152.5 796.5zM795 1470q0 -292 73.5 -494
t192.5 -319t257 -166t275 -49q138 0 275.5 48.5t257 166t193 319.5t73.5 494q0 293 -73.5 495.5t-192.5 319.5t-257 165.5t-276 48.5q-137 0 -275.5 -49t-257 -165.5t-192 -319t-73.5 -495.5z" />
    <glyph glyph-name="P" unicode="P" horiz-adv-x="2732" 
d="M926 1061v-1061h-615v2941h1344q281 0 487.5 -114.5t316 -328t109.5 -499.5q0 -177 -79 -393t-289 -380.5t-570 -164.5h-704zM926 1569h569q295 0 377 139t82 320q0 214 -127.5 309.5t-413.5 95.5h-487v-864z" />
    <glyph glyph-name="Q" unicode="Q" horiz-adv-x="3187" 
d="M1630 799l316 331l311 -290q135 249 135 630q0 293 -73.5 495.5t-192.5 319.5t-257 165.5t-276 48.5q-137 0 -275.5 -49t-257 -165.5t-192 -319t-73.5 -495.5q0 -292 73.5 -494t192.5 -319t257 -166t275 -49q181 0 332 78zM3019 119l-324 -332l-348 332
q-128 -75 -269 -119.5t-263 -61t-222 -16.5q-189 0 -418 56.5t-459.5 218.5t-383 476.5t-152.5 796.5q0 483 152.5 797.5t381.5 476.5t457 218.5t422 56.5q196 0 422.5 -56.5t455.5 -217.5t382 -476.5t153 -798.5q0 -343 -81 -603t-226 -445z" />
    <glyph glyph-name="R" unicode="R" horiz-adv-x="2957" 
d="M311 0v2941h1487q356 0 563.5 -142.5t285 -333.5t77.5 -356q0 -247 -120.5 -437.5t-334.5 -262.5q138 -60 214.5 -128t117.5 -209t41 -408q0 -250 6 -352.5t32.5 -156t92.5 -77.5v-78h-680q-65 220 -65 594q0 227 -27.5 338t-128.5 165t-324 54h-635v-1151h-602z
M913 1647h721q244 0 359.5 93.5t115.5 307.5q0 153 -94 269t-336 116h-766v-786z" />
    <glyph glyph-name="S" unicode="S" horiz-adv-x="2732" 
d="M160 905h590q4 -179 137 -327t485 -148q615 0 615 381q0 156 -126 227t-407 138l-315 73q-317 74 -500 148t-308.5 244.5t-125.5 472.5q0 204 93.5 408t346 350.5t690.5 146.5q320 0 544.5 -91t356 -237t188 -309t58.5 -314h-590q-12 102 -54 196.5t-172.5 170.5
t-375.5 76q-206 0 -359 -85t-153 -267q0 -152 86.5 -213t225.5 -95l716 -176q364 -89 567 -259.5t203 -530.5q0 -309 -133 -506t-324 -294t-376.5 -130t-325.5 -33q-377 0 -630.5 95.5t-388 245.5t-186.5 316t-52 326z" />
    <glyph glyph-name="T" unicode="T" horiz-adv-x="2503" 
d="M1561 2421v-2421h-615v2421h-889v520h2392v-520h-888z" />
    <glyph glyph-name="U" unicode="U" horiz-adv-x="2957" 
d="M2666 2941v-1913q0 -564 -315.5 -835t-892.5 -271q-248 0 -502 80t-432 277q-216 245 -229 712v1950h627v-1909q0 -292 147.5 -441t376.5 -149q594 0 594 562v1937h626z" />
    <glyph glyph-name="V" unicode="V" horiz-adv-x="2732" 
d="M1376 713l639 2228h639l-999 -2941h-586l-991 2941h659l631 -2228h8z" />
    <glyph glyph-name="W" unicode="W" horiz-adv-x="3867" 
d="M897 0l-831 2941h655q133 -561 225.5 -969t131 -588t62.5 -310t48 -283h8q21 119 39.5 227.5t82 449t126.5 662t162 811.5h651q356 -1669 438 -2150h8q32 171 49.5 261t61 288t160 702.5t209.5 898.5h622l-827 -2941h-590q-319 1520 -455 2294h-8q-33 -214 -67 -398
t-64.5 -335.5t-101 -492.5t-222.5 -1068h-573z" />
    <glyph glyph-name="X" unicode="X" horiz-adv-x="2732" 
d="M1716 1528l959 -1528h-750l-557 1004l-594 -1004h-717l951 1503l-897 1438h733l524 -950l537 950h708z" />
    <glyph glyph-name="Y" unicode="Y" horiz-adv-x="2732" 
d="M1692 1102v-1102h-615v1110l-1016 1831h725l611 -1278l581 1278h697z" />
    <glyph glyph-name="Z" unicode="Z" horiz-adv-x="2503" 
d="M2400 520v-520h-2298v520l1520 1901h-1479v520h2249v-483l-1540 -1938h1548z" />
    <glyph glyph-name="bracketleft" unicode="[" horiz-adv-x="1364" 
d="M758 2564v-2974h508v-393h-1008v3760h1008v-393h-508z" />
    <glyph glyph-name="backslash" unicode="\" horiz-adv-x="1139" 
d="M795 -78l-930 3097h479l930 -3097h-479z" />
    <glyph glyph-name="bracketright" unicode="]" horiz-adv-x="1364" 
d="M606 -410v2974h-508v393h1008v-3760h-1008v393h508z" />
    <glyph glyph-name="asciicircum" unicode="^" horiz-adv-x="2392" 
d="M700 1323h-446l737 1536h410l737 -1536h-450l-492 1077z" />
    <glyph glyph-name="underscore" unicode="_" 
d="M2277 -512h-2277v205h2277v-205z" />
    <glyph glyph-name="grave" unicode="`" horiz-adv-x="1364" 
d="M508 2474l-602 598h631l385 -598h-414z" />
    <glyph glyph-name="a" unicode="a" 
d="M2032 1606v-1180q0 -178 32.5 -247.5t94.5 -92.5v-86h-619q-40 123 -53 258q-139 -143 -293.5 -229t-411.5 -86q-173 0 -324.5 68t-245 211t-93.5 356q0 205 81 353t222 231.5t332 111.5l516 78q200 27 200 172q0 159 -107.5 206.5t-268.5 47.5q-190 0 -262.5 -86
t-90.5 -217h-553q31 312 172 480t340.5 224.5t462.5 56.5q194 0 389.5 -51t337.5 -192t142 -387zM1470 782v279q-92 -73 -389 -119q-123 -21 -206 -53t-133 -97t-50 -178q0 -135 83 -198.5t183 -63.5q129 0 247 53t191.5 151t73.5 226z" />
    <glyph glyph-name="b" unicode="b" horiz-adv-x="2503" 
d="M1778 1073q0 288 -116.5 478t-371.5 190q-491 0 -491 -701q0 -266 126.5 -446t381.5 -180q170 0 276 104t150.5 254.5t44.5 300.5zM823 2941v-1045h8q221 340 631 340q183 0 346 -70t289.5 -211t198 -352.5t71.5 -488.5q0 -312 -98 -580t-305 -429.5t-514 -161.5
q-443 0 -631 331h-8v-274h-561v2941h573z" />
    <glyph glyph-name="c" unicode="c" 
d="M1561 795h581q-10 -109 -57.5 -246.5t-158 -277.5t-305 -234t-474.5 -94q-291 0 -490 99t-311.5 259t-159.5 348t-47 379q0 362 109.5 633.5t343.5 423t592 151.5q205 0 414.5 -73.5t366 -260.5t181.5 -501h-581q-63 352 -381 352q-167 0 -269.5 -95t-144 -237.5
t-41.5 -298.5q0 -177 24 -325.5t122.5 -265.5t295.5 -117q131 0 219.5 68t129.5 159t41 154z" />
    <glyph glyph-name="d" unicode="d" horiz-adv-x="2503" 
d="M2257 2941v-2941h-561v274h-8q-189 -331 -631 -331q-307 0 -514.5 162t-305.5 429.5t-98 579.5q0 272 72.5 486t198.5 355.5t288.5 211t345.5 69.5q412 0 631 -340h8v1045h574zM729 1073q0 -246 111.5 -452.5t359.5 -206.5q257 0 382.5 180t125.5 446q0 701 -491 701
q-254 0 -371 -190t-117 -478z" />
    <glyph glyph-name="e" unicode="e" 
d="M1548 639h590q-104 -363 -371.5 -529.5t-586.5 -166.5q-237 0 -434.5 62.5t-344 202t-227 372t-80.5 555.5q0 137 36 313.5t141.5 357.5t320 305.5t547.5 124.5q181 0 357.5 -52.5t327.5 -183t245 -370.5t94 -594v-102h-1495q12 -133 46 -243t145.5 -200t320.5 -90
q125 0 231 64t137 174zM684 1307h889q-22 241 -150.5 349.5t-292.5 108.5q-393 0 -446 -458z" />
    <glyph glyph-name="f" unicode="f" horiz-adv-x="1364" 
d="M930 1769v-1769h-574v1769h-315v410h315v176q0 623 639 623q197 0 295 -8v-463h-160q-96 0 -138 -22t-52 -67.5t-10 -152.5v-86h373v-410h-373z" />
    <glyph glyph-name="g" unicode="g" horiz-adv-x="2503" 
d="M1716 2179h549v-2064q0 -268 -61.5 -477.5t-306 -368t-734.5 -158.5q-239 0 -451 70.5t-350 218.5t-149 367h623q23 -107 101 -164.5t300 -57.5q232 0 343.5 119.5t111.5 380.5v262l-9 8q-85 -152 -216 -239.5t-365 -87.5q-269 0 -481.5 125.5t-334.5 380t-122 620.5
q0 272 72.5 486t198.5 355.5t288.5 211t345.5 69.5q454 0 639 -381h8v324zM754 1077q0 -150 45.5 -289t147 -228t261.5 -89q180 0 290 90t154 232t44 309q0 179 -57.5 324.5t-169 230t-265.5 84.5q-117 0 -218.5 -63.5t-166.5 -212t-65 -388.5z" />
    <glyph glyph-name="h" unicode="h" horiz-adv-x="2503" 
d="M2236 1507v-1507h-573v1323q0 113 -20.5 203.5t-103.5 158.5t-249 68q-128 0 -230 -57.5t-161 -172t-59 -274.5v-1249h-574v2941h574v-1045h8q58 142 232.5 241t398.5 99q217 0 389 -84t270 -248t98 -397z" />
    <glyph glyph-name="i" unicode="i" horiz-adv-x="1139" 
d="M283 2179h573v-2179h-573v2179zM856 2970v-533h-573v533h573z" />
    <glyph glyph-name="j" unicode="j" horiz-adv-x="1139" 
d="M856 2179v-2408q0 -273 -80.5 -414.5t-229 -187.5t-390.5 -46h-144v459h103q71 0 119.5 35t48.5 166v2396h573zM856 2970v-533h-573v533h573z" />
    <glyph glyph-name="k" unicode="k" 
d="M856 688v-688h-573v2941h573v-1589l721 827h704l-770 -844l791 -1335h-688l-520 934z" />
    <glyph glyph-name="l" unicode="l" horiz-adv-x="1139" 
d="M856 2941v-2941h-573v2941h573z" />
    <glyph glyph-name="m" unicode="m" horiz-adv-x="3641" 
d="M3383 1507v-1507h-573v1323q0 430 -311 430q-390 0 -390 -446v-1307h-573v1311q0 130 -17.5 219.5t-92 156t-234.5 66.5q-356 0 -356 -426v-1327h-574v2179h549v-319h8q195 376 619 376q227 0 358 -81.5t248 -266.5q98 144 227 246t355 102q217 0 389 -84t270 -248
t98 -397z" />
    <glyph glyph-name="n" unicode="n" horiz-adv-x="2503" 
d="M2236 1507v-1507h-573v1323q0 113 -20.5 203.5t-103.5 158.5t-249 68q-128 0 -230 -57.5t-161 -172t-59 -274.5v-1249h-574v2179h549v-319h8q224 376 656 376q217 0 389 -84t270 -248t98 -397z" />
    <glyph glyph-name="o" unicode="o" horiz-adv-x="2503" 
d="M2367 1090q0 -285 -88.5 -503t-243 -360.5t-356.5 -213t-426 -70.5q-302 0 -556 126.5t-406 384.5t-152 636q0 286 89.5 504.5t245 360.5t354.5 211.5t425 69.5q227 0 426.5 -69.5t355 -212t244 -360.5t88.5 -504zM1778 1090q0 271 -114 467t-411 196q-296 0 -410 -197.5
t-114 -465.5t114 -466t410 -198q297 0 411 197t114 467z" />
    <glyph glyph-name="p" unicode="p" horiz-adv-x="2503" 
d="M803 1040q0 -267 124.5 -446.5t379.5 -179.5q170 0 276 104t150.5 254.5t44.5 300.5q0 288 -116.5 478t-371.5 190q-487 0 -487 -701zM803 2179v-315h8q106 169 250.5 270.5t400.5 101.5q183 0 346 -70t289.5 -211t198 -352.5t71.5 -488.5q0 -312 -98 -580t-305 -429.5
t-514 -161.5q-419 0 -614 336h-9v-1127h-573v3027h549z" />
    <glyph glyph-name="q" unicode="q" horiz-adv-x="2503" 
d="M1712 2179h549v-3027h-573v1118h-9q-175 -327 -618 -327q-319 0 -527 169.5t-301.5 423t-93.5 508.5q0 318 101.5 589.5t316.5 437t537 165.5q245 0 382 -110.5t228 -270.5h8v324zM729 1049q0 -623 492 -623q214 0 346.5 165t132.5 486q0 271 -89.5 420t-200.5 196.5
t-202 47.5q-125 0 -232.5 -62t-177 -215.5t-69.5 -414.5z" />
    <glyph glyph-name="r" unicode="r" horiz-adv-x="1593" 
d="M262 0v2179h549v-377h8q80 146 147 232t177 144t274 58q37 0 111 -8v-581q-49 8 -164 8q-528 0 -528 -520v-1135h-574z" />
    <glyph glyph-name="s" unicode="s" 
d="M2060 1516h-561q-23 134 -99.5 210t-285.5 76q-352 0 -352 -213q0 -110 232.5 -169t496.5 -119.5t449.5 -198t185.5 -410.5q0 -291 -156 -459t-372.5 -229t-426.5 -61q-431 0 -734 176t-314 577h590q0 -319 475 -319q197 0 280.5 71t83.5 154q0 118 -242 179.5t-494 120
t-433.5 194t-181.5 411.5q0 178 83.5 344t281 275.5t515.5 109.5q926 0 979 -720z" />
    <glyph glyph-name="t" unicode="t" horiz-adv-x="1364" 
d="M909 2769v-590h357v-410h-357v-1183q0 -76 12 -109t61.5 -50t164.5 -17q37 0 119 8v-434q-203 -9 -271 -9h-73q-237 0 -365.5 56.5t-174.5 158.5t-46 256v1323h-295v410h295v590h573z" />
    <glyph glyph-name="u" unicode="u" horiz-adv-x="2503" 
d="M2232 2179v-2179h-549v307h-8q-98 -176 -267.5 -270t-395.5 -94q-220 0 -387.5 86t-261 266t-93.5 450v1434h574v-1352q0 -401 373 -401q174 0 308 115.5t134 380.5v1257h573z" />
    <glyph glyph-name="v" unicode="v" 
d="M2224 2179l-786 -2179h-602l-783 2179h639l451 -1606h8l463 1606h610z" />
    <glyph glyph-name="w" unicode="w" horiz-adv-x="3187" 
d="M3150 2179l-627 -2179h-590l-340 1589h-8l-340 -1589h-590l-614 2179h610l340 -1565h8l308 1565h577l328 -1565h8l340 1565h590z" />
    <glyph glyph-name="x" unicode="x" 
d="M1475 1110l741 -1110h-709l-377 655l-376 -655h-693l742 1110l-713 1069h696l369 -635l361 635h675z" />
    <glyph glyph-name="y" unicode="y" 
d="M2208 2179l-750 -2142q-108 -324 -181 -497t-155.5 -263.5t-196 -122t-311.5 -31.5q-73 0 -258 9v458q50 -8 111 -8q177 0 259 60t118 268l-803 2269h639l467 -1606h8l447 1606h606z" />
    <glyph glyph-name="z" unicode="z" horiz-adv-x="2048" 
d="M1925 1708l-1102 -1237h1143v-471h-1884v446l1118 1274h-1040v459h1765v-471z" />
    <glyph glyph-name="braceleft" unicode="{" horiz-adv-x="1593" 
d="M1495 -442v-361h-340q-138 0 -269.5 62.5t-217.5 190t-86 308.5v820q0 166 -128 238.5t-257 72.5v377q128 0 256.5 72t128.5 239v819q0 181 86 308.5t217.5 190t269.5 62.5h340v-360h-184q-140 0 -185 -74.5t-45 -195.5v-803q-26 -227 -170.5 -327t-296.5 -116v-8
q150 -14 295.5 -113.5t171.5 -328.5v-803q0 -121 45 -195.5t185 -74.5h184z" />
    <glyph glyph-name="bar" unicode="|" horiz-adv-x="1147" 
d="M344 -78v3097h459v-3097h-459z" />
    <glyph glyph-name="braceright" unicode="}" horiz-adv-x="1593" 
d="M1397 1266v-377q-130 0 -257.5 -73t-127.5 -238v-820q0 -181 -86 -308.5t-218 -190t-270 -62.5h-340v361h185q140 0 184.5 74.5t44.5 195.5v803q28 229 172.5 328.5t294.5 113.5v8q-152 16 -296 116t-171 327v803q0 121 -44.5 195.5t-184.5 74.5h-185v360h340
q138 0 270 -62.5t218 -190t86 -308.5v-819q0 -166 128 -238.5t257 -72.5z" />
    <glyph glyph-name="asciitilde" unicode="~" horiz-adv-x="2392" 
d="M1995 1405l147 -369q-82 -113 -146 -183.5t-156 -119.5t-210 -49q-170 0 -418 135q-262 148 -471 148q-206 0 -344 -299l-147 368q185 353 512 353q161 0 455 -132q82 -36 159 -71.5t141 -57.5t117 -22q109 0 186 75.5t175 223.5z" />
    <glyph glyph-name="sterling" unicode="&#xa3;" 
d="M1982 2941v-2089q0 -307 -105 -515t-308.5 -309.5t-499.5 -101.5q-348 0 -553 100.5t-294.5 265t-110.5 349.5t-21 469h574q0 -255 23 -398.5t100.5 -216.5t236.5 -73q217 0 280.5 110t63.5 320v2089h614z" />
    <glyph glyph-name="section" unicode="&#xa4;" 
d="M1139 999q123 0 221 61.5t151.5 167.5t53.5 234q0 129 -53.5 232.5t-151 163t-221.5 59.5q-187 0 -302.5 -128.5t-115.5 -326.5t115.5 -330.5t302.5 -132.5zM-12 582l401 401q-127 207 -127 479q0 271 127 471l-401 402l270 270l401 -401q223 135 480 135q270 0 479 -135
l401 401l271 -270l-402 -402q135 -204 135 -471q0 -273 -135 -479l402 -401l-271 -271l-401 402q-206 -135 -479 -135q-260 0 -480 135l-401 -402z" />
    <glyph glyph-name="paragraph" unicode="&#xa6;" horiz-adv-x="1147" 
d="M344 -78v1188h459v-1188h-459zM344 1831v1188h459v-1188h-459z" />
    <glyph glyph-name="germandbls" unicode="&#xa7;" 
d="M983 2097l664 -332q153 -77 259 -160.5t169 -207t63 -299.5q0 -61 -40 -167.5t-129.5 -215t-219.5 -166.5q254 -211 254 -524q0 -248 -123.5 -425t-325 -265.5t-436.5 -88.5q-331 0 -522.5 137t-263.5 313.5t-74 315.5h541q34 -331 360 -331q164 0 229.5 96.5t65.5 193.5
t-56 154.5t-186 124.5l-626 319q-154 78 -251 163t-146.5 203.5t-49.5 293.5q0 329 381 540q-213 195 -213 476q0 191 97.5 359.5t285.5 271t445 102.5q212 0 394 -69.5t302 -237.5t131 -443h-520q-20 316 -320 316q-135 0 -215 -71t-80 -159q0 -140 156 -217zM1397 1266
l-598 303q-82 -29 -129 -106t-47 -132q0 -156 188 -254l643 -344q176 98 176 271q0 141 -233 262z" />
    <glyph glyph-name="registered" unicode="&#xa8;" horiz-adv-x="2732" 
d="M1225 3277h-516v471h516v-471zM2023 3277h-516v471h516v-471zM2474 2421h-1561v-619h1434v-520h-1434v-762h1631v-520h-2233v2941h2163v-520z" />
    <glyph glyph-name="copyright" unicode="&#xa9;" horiz-adv-x="3019" 
d="M3068 1475q0 -356 -125 -648t-343.5 -493.5t-499 -306.5t-589.5 -105q-308 0 -588 105t-499.5 308t-344 493.5t-124.5 646.5q0 357 124.5 646.5t342.5 489.5t498 304t591 104q312 0 592.5 -104t497.5 -303t342 -489.5t125 -647.5zM2621 1475q0 260 -87 481t-241 379
t-355.5 242.5t-426.5 84.5q-306 0 -560.5 -149.5t-402 -420.5t-147.5 -617q0 -347 147.5 -620t401.5 -422.5t561 -149.5v-4q225 0 426 85t356 245.5t241.5 382.5t86.5 483zM1937 1241h369q-46 -300 -251.5 -471.5t-481.5 -171.5q-251 0 -445.5 117t-300.5 320t-106 452
q0 254 102 455.5t294.5 315.5t447.5 114q187 0 339 -71.5t253 -212.5t133 -343h-353q-26 135 -128 202.5t-244 67.5q-130 0 -226 -64t-146 -181.5t-50 -274.5q0 -152 54.5 -275t153 -194.5t222.5 -71.5q156 0 254 73.5t110 213.5z" />
    <glyph glyph-name="acute" unicode="&#xab;" 
d="M1044 1507l-409 -360l409 -361v-475l-684 590v492l684 589v-475zM1917 1507l-410 -360l410 -361v-475l-684 590v492l684 589v-475z" />
    <glyph glyph-name="dieresis" unicode="&#xac;" horiz-adv-x="2392" 
d="M1769 442v815h-1605v459h2064v-1274h-459z" />
    <glyph glyph-name="notequal" unicode="&#xad;" horiz-adv-x="1364" 
d="M1389 2777v-303h-1414v303h1414z" />
    <glyph glyph-name="AE" unicode="&#xae;" horiz-adv-x="3019" 
d="M1253 1339v-700h-356v1667h623q339 0 511.5 -114.5t172.5 -389.5q0 -405 -402 -434l426 -729h-422l-385 700h-168zM1253 1622h316q133 0 193.5 44t60.5 173q0 114 -90 149t-230 35h-250v-401zM3064 1470q0 -355 -124 -645t-341.5 -492t-498.5 -306.5t-589 -104.5
q-307 0 -589.5 105t-500.5 306.5t-342 491.5t-124 645q0 356 124 647t341 491t498.5 305.5t592.5 105.5q312 0 592.5 -105t496.5 -305.5t340 -491.5t124 -647zM2617 1470q0 261 -87 482t-240 378.5t-354 242.5t-425 85q-306 0 -560.5 -149.5t-402 -421.5t-147.5 -617
q0 -346 147.5 -617t402 -420.5t560.5 -149.5v-4q224 0 425.5 85.5t354.5 245t239.5 380.5t86.5 480z" />
    <glyph glyph-name="Oslash" unicode="&#xaf;" horiz-adv-x="1139" 
d="M877 2941v-2941h-615v2941h615zM430 3748v-471h-516v471h516zM1229 3748v-471h-516v471h516z" />
    <glyph glyph-name="infinity" unicode="&#xb0;" horiz-adv-x="1638" 
d="M233 2331q0 159 79 293.5t214 213t293 78.5q244 0 415 -171t171 -414t-171.5 -414.5t-414.5 -171.5q-158 0 -293 78.5t-214 213.5t-79 294zM463 2331q0 -149 104 -253t252 -104q149 0 253 104t104 253q0 147 -104.5 251.5t-252.5 104.5q-147 0 -251.5 -104.5
t-104.5 -251.5z" />
    <glyph glyph-name="plusminus" unicode="&#xb1;" horiz-adv-x="2392" 
d="M967 1561v512h458v-512h803v-459h-803v-516h-458v516h-803v459h803zM164 0v459h2064v-459h-2064z" />
    <glyph glyph-name="lessequal" unicode="&#xb2;" horiz-adv-x="1139" 
d="M877 2941v-2941h-615v2941h615z" />
    <glyph glyph-name="greaterequal" unicode="&#xb3;" horiz-adv-x="1139" 
d="M283 2179h573v-2179h-573v2179zM856 2970v-533h-573v533h573z" />
    <glyph glyph-name="mu" unicode="&#xb5;" horiz-adv-x="2503" 
d="M2232 2179v-2179h-549v307h-8q-93 -172 -235.5 -268t-272.5 -96q-217 0 -323 106v-897h-574v3027h574v-1352q0 -401 373 -401q174 0 308 115.5t134 380.5v1257h573z" />
    <glyph glyph-name="partialdiff" unicode="&#xb6;" 
d="M877 -782v2203q-432 0 -671 189t-239 520q0 407 264 572t736 165h1241v-3649h-459v3301h-414v-3301h-458z" />
    <glyph glyph-name="summation" unicode="&#xb7;" horiz-adv-x="1139" 
d="M238 1036q0 139 96.5 235.5t234.5 96.5q92 0 167.5 -44.5t120 -120t44.5 -167.5q0 -137 -94.5 -234t-237.5 -97q-142 0 -236.5 97t-94.5 234z" />
    <glyph glyph-name="product" unicode="&#xb8;" 
d="M999 2515h-516v471h516v-471zM1798 2515h-516v471h516v-471zM2138 639q-104 -363 -371.5 -529.5t-586.5 -166.5q-237 0 -434.5 62.5t-344 202t-227 372t-80.5 555.5q0 137 36 313.5t141.5 357.5t320 305.5t547.5 124.5q181 0 357.5 -52.5t327.5 -183t245 -370.5t94 -594
v-102h-1495q12 -133 46 -243t145.5 -200t320.5 -90q125 0 231 64t137 174h590zM1573 1307q-22 241 -150.5 349.5t-292.5 108.5q-393 0 -446 -458h889z" />
    <glyph glyph-name="pi" unicode="&#xb9;" horiz-adv-x="1495" 
d="M1475 2331q0 -272 -182.5 -480.5t-542.5 -208.5q-361 0 -543 208.5t-182 480.5q0 172 76 328.5t239.5 258t409.5 101.5t409 -101.5t239.5 -259.5t76.5 -327zM1073 2331q0 168 -86 280.5t-237 112.5t-237.5 -112.5t-86.5 -280.5q0 -167 86.5 -280.5t237.5 -113.5
t237 113.5t86 280.5zM135 1458h1229v-328h-1229v328z" />
    <glyph glyph-name="ordfeminine" unicode="&#xbb;" 
d="M1642 1147l-409 360v475l684 -589v-492l-684 -590v475zM770 1147l-410 360v475l684 -589v-492l-684 -590v475z" />
    <glyph glyph-name="ordmasculine" unicode="&#xbc;" horiz-adv-x="1139" 
d="M856 2179v-2408q0 -273 -80.5 -414.5t-229 -187.5t-390.5 -46h-144v459h103q71 0 119.5 35t48.5 166v2396h573zM856 2970v-533h-573v533h573z" />
    <glyph glyph-name="Omega" unicode="&#xbd;" horiz-adv-x="2732" 
d="M160 905h590q4 -179 137 -327t485 -148q615 0 615 381q0 156 -126 227t-407 138l-315 73q-317 74 -500 148t-308.5 244.5t-125.5 472.5q0 204 93.5 408t346 350.5t690.5 146.5q320 0 544.5 -91t356 -237t188 -309t58.5 -314h-590q-12 102 -54 196.5t-172.5 170.5
t-375.5 76q-206 0 -359 -85t-153 -267q0 -152 86.5 -213t225.5 -95l716 -176q364 -89 567 -259.5t203 -530.5q0 -309 -133 -506t-324 -294t-376.5 -130t-325.5 -33q-377 0 -630.5 95.5t-388 245.5t-186.5 316t-52 326z" />
    <glyph glyph-name="ae" unicode="&#xbe;" 
d="M2060 1516h-561q-23 134 -99.5 210t-285.5 76q-352 0 -352 -213q0 -110 232.5 -169t496.5 -119.5t449.5 -198t185.5 -410.5q0 -291 -156 -459t-372.5 -229t-426.5 -61q-431 0 -734 176t-314 577h590q0 -319 475 -319q197 0 280.5 71t83.5 154q0 118 -242 179.5t-494 120
t-433.5 194t-181.5 411.5q0 178 83.5 344t281 275.5t515.5 109.5q926 0 979 -720z" />
    <glyph glyph-name="oslash" unicode="&#xbf;" horiz-adv-x="1139" 
d="M283 2179h573v-2179h-573v2179zM430 2986v-471h-516v471h516zM1229 2986v-471h-516v471h516z" />
    <glyph glyph-name="questiondown" unicode="&#xc0;" horiz-adv-x="2957" 
d="M729 0h-647l1048 2941h709l1036 -2941h-667l-189 606h-1085zM1098 1114h749l-364 1163h-8z" />
    <glyph glyph-name="questiondown" unicode="&#x410;" horiz-adv-x="2957" 
d="M729 0h-647l1048 2941h709l1036 -2941h-667l-189 606h-1085zM1098 1114h749l-364 1163h-8z" />
    <glyph glyph-name="exclamdown" unicode="&#xc1;" horiz-adv-x="2957" 
d="M901 1798h778q296 0 538 -104.5t382.5 -308.5t140.5 -488q0 -280 -140.5 -483.5t-382.5 -308.5t-538 -105h-1368v2941h2212v-516h-1622v-627zM901 1290v-782h778q204 0 325.5 104.5t121.5 284.5q0 183 -121 290t-326 107z" />
    <glyph glyph-name="exclamdown" unicode="&#x411;" horiz-adv-x="2957" 
d="M901 1798h778q296 0 538 -104.5t382.5 -308.5t140.5 -488q0 -280 -140.5 -483.5t-382.5 -308.5t-538 -105h-1368v2941h2212v-516h-1622v-627zM901 1290v-782h778q204 0 325.5 104.5t121.5 284.5q0 183 -121 290t-326 107z" />
    <glyph glyph-name="logicalnot" unicode="&#xc2;" horiz-adv-x="2957" 
d="M311 2941h1430q334 0 537 -117.5t285.5 -288.5t82.5 -348q0 -275 -104 -400t-256 -202q454 -170 454 -713q0 -174 -67 -331.5t-187 -274.5q-99 -95 -197 -149.5t-271 -85.5t-462 -31h-1245v2941zM901 508h754q471 0 471 430q0 180 -128 268t-315 88h-782v-786zM901 1790
h721q194 0 314 81t120 247q0 172 -113 243.5t-337 71.5h-705v-643z" />
    <glyph glyph-name="logicalnot" unicode="&#x412;" horiz-adv-x="2957" 
d="M311 2941h1430q334 0 537 -117.5t285.5 -288.5t82.5 -348q0 -275 -104 -400t-256 -202q454 -170 454 -713q0 -174 -67 -331.5t-187 -274.5q-99 -95 -197 -149.5t-271 -85.5t-462 -31h-1245v2941zM901 508h754q471 0 471 430q0 180 -128 268t-315 88h-782v-786zM901 1790
h721q194 0 314 81t120 247q0 172 -113 243.5t-337 71.5h-705v-643z" />
    <glyph glyph-name="radical" unicode="&#xc3;" horiz-adv-x="2503" 
d="M926 0h-615v2941h2134v-520h-1519v-2421z" />
    <glyph glyph-name="radical" unicode="&#x413;" horiz-adv-x="2503" 
d="M926 0h-615v2941h2134v-520h-1519v-2421z" />
    <glyph glyph-name="florin" unicode="&#xc4;" horiz-adv-x="2732" 
d="M418 1470v1471h2027v-2421h287v-1069h-573v549h-1622v-549h-574v1069q149 0 249 87t153 298t53 565zM1831 520v1901h-840v-951q0 -409 -58 -614.5t-171 -335.5h1069z" />
    <glyph glyph-name="florin" unicode="&#x414;" horiz-adv-x="2732" 
d="M418 1470v1471h2027v-2421h287v-1069h-573v549h-1622v-549h-574v1069q149 0 249 87t153 298t53 565zM1831 520v1901h-840v-951q0 -409 -58 -614.5t-171 -335.5h1069z" />
    <glyph glyph-name="approxequal" unicode="&#xc5;" horiz-adv-x="2736" 
d="M2474 2421h-1561v-619h1434v-520h-1434v-762h1631v-520h-2233v2941h2163v-520z" />
    <glyph glyph-name="approxequal" unicode="&#x415;" horiz-adv-x="2736" 
d="M2474 2421h-1561v-619h1434v-520h-1434v-762h1631v-520h-2233v2941h2163v-520z" />
    <glyph glyph-name="Delta" unicode="&#xc6;" horiz-adv-x="3871" 
d="M1630 0v995l-160 205l-704 -1200h-786l1060 1696l-995 1245h737l848 -1196v1196h615v-1196l847 1196h738l-996 -1245l1061 -1696h-786l-705 1200l-159 -205v-995h-615z" />
    <glyph glyph-name="Delta" unicode="&#x416;" horiz-adv-x="3871" 
d="M1630 0v995l-160 205l-704 -1200h-786l1060 1696l-995 1245h737l848 -1196v1196h615v-1196l847 1196h738l-996 -1245l1061 -1696h-786l-705 1200l-159 -205v-995h-615z" />
    <glyph glyph-name="guillemotleft" unicode="&#xc7;" horiz-adv-x="2732" 
d="M1921 1561q143 -16 292.5 -104.5t252 -242.5t102.5 -354q0 -244 -116 -457.5t-378 -347t-673 -133.5q-377 0 -630.5 95.5t-389 246.5t-187 316t-51.5 325h590q0 -100 58 -209t204 -187.5t394 -78.5q233 0 399 120t166 310q0 142 -80 239t-211.5 146t-286.5 49h-467v496
h459q226 0 365 94t139 266q0 110 -68 192t-188 125.5t-268 43.5q-234 0 -360.5 -76.5t-168 -175t-41.5 -191.5h-590q0 210 107.5 428t365.5 370.5t674 152.5q424 0 680 -139t357.5 -337.5t101.5 -392.5q0 -257 -161 -396t-392 -193z" />
    <glyph glyph-name="guillemotleft" unicode="&#x417;" horiz-adv-x="2732" 
d="M1921 1561q143 -16 292.5 -104.5t252 -242.5t102.5 -354q0 -244 -116 -457.5t-378 -347t-673 -133.5q-377 0 -630.5 95.5t-389 246.5t-187 316t-51.5 325h590q0 -100 58 -209t204 -187.5t394 -78.5q233 0 399 120t166 310q0 142 -80 239t-211.5 146t-286.5 49h-467v496
h459q226 0 365 94t139 266q0 110 -68 192t-188 125.5t-268 43.5q-234 0 -360.5 -76.5t-168 -175t-41.5 -191.5h-590q0 210 107.5 428t365.5 370.5t674 152.5q424 0 680 -139t357.5 -337.5t101.5 -392.5q0 -257 -161 -396t-392 -193z" />
    <glyph glyph-name="guillemotright" unicode="&#xc8;" horiz-adv-x="2957" 
d="M852 893h8l1168 2048h647v-2941h-574v2097h-8l-1200 -2097h-614v2941h573v-2048z" />
    <glyph glyph-name="guillemotright" unicode="&#x418;" horiz-adv-x="2957" 
d="M852 893h8l1168 2048h647v-2941h-574v2097h-8l-1200 -2097h-614v2941h573v-2048z" />
    <glyph glyph-name="ellipsis" unicode="&#xc9;" horiz-adv-x="2957" 
d="M852 893h8l1168 2048h647v-2941h-574v2097h-8l-1200 -2097h-614v2941h573v-2048zM2204 3547q-19 -218 -175.5 -408t-553.5 -190q-249 0 -392.5 105.5t-197 240t-62.5 252.5h271q23 -123 101.5 -205t303.5 -82q183 0 295.5 54t142.5 233h267z" />
    <glyph glyph-name="ellipsis" unicode="&#x419;" horiz-adv-x="2957" 
d="M852 893h8l1168 2048h647v-2941h-574v2097h-8l-1200 -2097h-614v2941h573v-2048zM2204 3547q-19 -218 -175.5 -408t-553.5 -190q-249 0 -392.5 105.5t-197 240t-62.5 252.5h271q23 -123 101.5 -205t303.5 -82q183 0 295.5 54t142.5 233h267z" />
    <glyph glyph-name="nonbreakingspace" unicode="&#xca;" horiz-adv-x="2957" 
d="M971 0h-615v2941h615v-1196l1122 1196h795l-1200 -1204l1269 -1737h-790l-910 1290l-286 -295v-995z" />
    <glyph glyph-name="nonbreakingspace" unicode="&#x41a;" horiz-adv-x="2957" 
d="M971 0h-615v2941h615v-1196l1122 1196h795l-1200 -1204l1269 -1737h-790l-910 1290l-286 -295v-995z" />
    <glyph glyph-name="Agrave" unicode="&#xcb;" horiz-adv-x="2732" 
d="M991 2421v-1491q0 -496 -239.5 -752t-718.5 -256v537q221 0 303 126t82 345v2011h2027v-2941h-614v2421h-840z" />
    <glyph glyph-name="Agrave" unicode="&#x41b;" horiz-adv-x="2732" 
d="M991 2421v-1491q0 -496 -239.5 -752t-718.5 -256v537q221 0 303 126t82 345v2011h2027v-2941h-614v2421h-840z" />
    <glyph glyph-name="Atilde" unicode="&#xcc;" horiz-adv-x="3412" 
d="M3133 0h-573v2130h-8l-549 -2130h-602l-537 2130h-8v-2130h-573v2941h897l532 -2032h8l525 2032h888v-2941z" />
    <glyph glyph-name="Atilde" unicode="&#x41c;" horiz-adv-x="3412" 
d="M3133 0h-573v2130h-8l-549 -2130h-602l-537 2130h-8v-2130h-573v2941h897l532 -2032h8l525 2032h888v-2941z" />
    <glyph glyph-name="Otilde" unicode="&#xcd;" horiz-adv-x="2957" 
d="M905 1319v-1319h-614v2941h614v-1114h1147v1114h614v-2941h-614v1319h-1147z" />
    <glyph glyph-name="Otilde" unicode="&#x41d;" horiz-adv-x="2957" 
d="M905 1319v-1319h-614v2941h614v-1114h1147v1114h614v-2941h-614v1319h-1147z" />
    <glyph glyph-name="OE" unicode="&#xce;" horiz-adv-x="3187" 
d="M1593 3019q196 0 422.5 -56.5t455.5 -217.5t382 -476.5t153 -798.5q0 -482 -153 -797.5t-383.5 -477t-458.5 -217.5t-418 -56q-189 0 -418 56.5t-459.5 218.5t-383 476.5t-152.5 796.5q0 483 152.5 797.5t381.5 476.5t457 218.5t422 56.5zM1593 442q138 0 275.5 48.5
t257 166t193 319.5t73.5 494q0 293 -73.5 495.5t-192.5 319.5t-257 165.5t-276 48.5q-137 0 -275.5 -49t-257 -165.5t-192 -319t-73.5 -495.5q0 -292 73.5 -494t192.5 -319t257 -166t275 -49z" />
    <glyph glyph-name="OE" unicode="&#x41e;" horiz-adv-x="3187" 
d="M1593 3019q196 0 422.5 -56.5t455.5 -217.5t382 -476.5t153 -798.5q0 -482 -153 -797.5t-383.5 -477t-458.5 -217.5t-418 -56q-189 0 -418 56.5t-459.5 218.5t-383 476.5t-152.5 796.5q0 483 152.5 797.5t381.5 476.5t457 218.5t422 56.5zM1593 442q138 0 275.5 48.5
t257 166t193 319.5t73.5 494q0 293 -73.5 495.5t-192.5 319.5t-257 165.5t-276 48.5q-137 0 -275.5 -49t-257 -165.5t-192 -319t-73.5 -495.5q0 -292 73.5 -494t192.5 -319t257 -166t275 -49z" />
    <glyph glyph-name="oe" unicode="&#xcf;" horiz-adv-x="2957" 
d="M905 2421v-2421h-614v2941h2375v-2941h-614v2421h-1147z" />
    <glyph glyph-name="oe" unicode="&#x41f;" horiz-adv-x="2957" 
d="M905 2421v-2421h-614v2941h2375v-2941h-614v2421h-1147z" />
    <glyph glyph-name="emdash" unicode="&#xd0;" horiz-adv-x="2732" 
d="M926 0h-615v2941h1344q281 0 487.5 -114.5t316 -328t109.5 -499.5q0 -177 -79 -393t-289 -380.5t-570 -164.5h-704v-1061zM1495 1569q295 0 377 139t82 320q0 214 -127.5 309.5t-413.5 95.5h-487v-864h569z" />
    <glyph glyph-name="emdash" unicode="&#x420;" horiz-adv-x="2732" 
d="M926 0h-615v2941h1344q281 0 487.5 -114.5t316 -328t109.5 -499.5q0 -177 -79 -393t-289 -380.5t-570 -164.5h-704v-1061zM1495 1569q295 0 377 139t82 320q0 214 -127.5 309.5t-413.5 95.5h-487v-864h569z" />
    <glyph glyph-name="endash" unicode="&#xd1;" horiz-adv-x="2957" 
d="M2187 1978q-58 213 -189 360.5t-462 147.5q-284 0 -506.5 -235t-222.5 -793q0 -277 76.5 -504.5t240 -363t412.5 -135.5q171 0 304.5 63t222.5 188.5t124 301.5h615q-63 -326 -225.5 -570.5t-428 -380t-624.5 -135.5q-395 0 -699.5 176.5t-474.5 526t-170 841.5
q0 498 176.5 849t484 527.5t691.5 176.5q313 0 552.5 -96t392.5 -251.5t232.5 -336t92.5 -357.5h-615z" />
    <glyph glyph-name="endash" unicode="&#x421;" horiz-adv-x="2957" 
d="M2187 1978q-58 213 -189 360.5t-462 147.5q-284 0 -506.5 -235t-222.5 -793q0 -277 76.5 -504.5t240 -363t412.5 -135.5q171 0 304.5 63t222.5 188.5t124 301.5h615q-63 -326 -225.5 -570.5t-428 -380t-624.5 -135.5q-395 0 -699.5 176.5t-474.5 526t-170 841.5
q0 498 176.5 849t484 527.5t691.5 176.5q313 0 552.5 -96t392.5 -251.5t232.5 -336t92.5 -357.5h-615z" />
    <glyph glyph-name="quotedblleft" unicode="&#xd2;" horiz-adv-x="2503" 
d="M1561 0h-615v2421h-889v520h2392v-520h-888v-2421z" />
    <glyph glyph-name="quotedblleft" unicode="&#x422;" horiz-adv-x="2503" 
d="M1561 0h-615v2421h-889v520h2392v-520h-888v-2421z" />
    <glyph glyph-name="quotedblright" unicode="&#xd3;" horiz-adv-x="2957" 
d="M1225 -45q-262 0 -406 45v524q108 -49 209 -49q192 0 279 168l12 25l-1229 2273h733l791 -1643l598 1643h704l-1061 -2449q-74 -174 -193.5 -295t-240 -181.5t-196.5 -60.5z" />
    <glyph glyph-name="quotedblright" unicode="&#x423;" horiz-adv-x="2957" 
d="M1225 -45q-262 0 -406 45v524q108 -49 209 -49q192 0 279 168l12 25l-1229 2273h733l791 -1643l598 1643h704l-1061 -2449q-74 -174 -193.5 -295t-240 -181.5t-196.5 -60.5z" />
    <glyph glyph-name="quoteleft" unicode="&#xd4;" horiz-adv-x="3641" 
d="M2130 2626q299 0 604 -110t514 -371t209 -675q0 -318 -125 -543.5t-326.5 -359.5t-430 -193t-445.5 -59v-315h-614v315q-216 0 -447.5 59t-436.5 193t-332.5 360t-127.5 543q0 319 127.5 545t333 360t435.5 192.5t448 58.5v315h614v-315zM2130 2150v-1359
q180 0 346.5 59.5t278.5 211.5t112 408t-112 408.5t-278.5 212t-346.5 59.5zM1516 791v1359q-294 0 -516 -153.5t-222 -526.5q0 -371 222.5 -525t515.5 -154z" />
    <glyph glyph-name="quoteleft" unicode="&#x424;" horiz-adv-x="3641" 
d="M2130 2626q299 0 604 -110t514 -371t209 -675q0 -318 -125 -543.5t-326.5 -359.5t-430 -193t-445.5 -59v-315h-614v315q-216 0 -447.5 59t-436.5 193t-332.5 360t-127.5 543q0 319 127.5 545t333 360t435.5 192.5t448 58.5v315h614v-315zM2130 2150v-1359
q180 0 346.5 59.5t278.5 211.5t112 408t-112 408.5t-278.5 212t-346.5 59.5zM1516 791v1359q-294 0 -516 -153.5t-222 -526.5q0 -371 222.5 -525t515.5 -154z" />
    <glyph glyph-name="quoteright" unicode="&#xd5;" horiz-adv-x="2732" 
d="M2675 0h-750l-557 1004l-594 -1004h-717l951 1503l-897 1438h733l524 -950l537 950h708l-897 -1413z" />
    <glyph glyph-name="quoteright" unicode="&#x425;" horiz-adv-x="2732" 
d="M2675 0h-750l-557 1004l-594 -1004h-717l951 1503l-897 1438h733l524 -950l537 950h708l-897 -1413z" />
    <glyph glyph-name="divide" unicode="&#xd6;" horiz-adv-x="2957" 
d="M2380 0h-2089v2941h614v-2421h1147v2421h614v-2421h287v-1069h-573v549z" />
    <glyph glyph-name="divide" unicode="&#x426;" horiz-adv-x="2957" 
d="M2380 0h-2089v2941h614v-2421h1147v2421h614v-2421h287v-1069h-573v549z" />
    <glyph glyph-name="lozenge" unicode="&#xd7;" horiz-adv-x="2957" 
d="M291 1991v950h614v-950q0 -201 122 -295t321 -94q168 0 359.5 61.5t344.5 163.5v1114h614v-2941h-614v1319q-437 -246 -881 -246q-388 0 -634 223.5t-246 694.5z" />
    <glyph glyph-name="lozenge" unicode="&#x427;" horiz-adv-x="2957" 
d="M291 1991v950h614v-950q0 -201 122 -295t321 -94q168 0 359.5 61.5t344.5 163.5v1114h614v-2941h-614v1319q-437 -246 -881 -246q-388 0 -634 223.5t-246 694.5z" />
    <glyph glyph-name="ydieresis" unicode="&#xd8;" horiz-adv-x="3641" 
d="M1516 520v2421h614v-2421h614v2421h615v-2941h-3072v2941h614v-2421h615z" />
    <glyph glyph-name="ydieresis" unicode="&#x428;" horiz-adv-x="3641" 
d="M1516 520v2421h614v-2421h614v2421h615v-2941h-3072v2941h614v-2421h615z" />
    <glyph glyph-name="Ydieresis" unicode="&#xd9;" horiz-adv-x="3641" 
d="M3072 0h-2785v2941h614v-2421h615v2421h614v-2421h614v2421h615v-2421h286v-1069h-573v549z" />
    <glyph glyph-name="Ydieresis" unicode="&#x429;" horiz-adv-x="3641" 
d="M3072 0h-2785v2941h614v-2421h615v2421h614v-2421h614v2421h615v-2421h286v-1069h-573v549z" />
    <glyph glyph-name="fraction" unicode="&#xda;" horiz-adv-x="2957" 
d="M1151 1880h704q360 0 570 -164.5t289 -380.5t79 -393q0 -286 -109.5 -499.5t-316 -328t-487.5 -114.5h-1343v2425h-496v516h1110v-1061zM1151 1372v-864h487q286 0 413.5 95.5t127.5 309.5q0 180 -82 319.5t-377 139.5h-569z" />
    <glyph glyph-name="fraction" unicode="&#x42a;" horiz-adv-x="2957" 
d="M1151 1880h704q360 0 570 -164.5t289 -380.5t79 -393q0 -286 -109.5 -499.5t-316 -328t-487.5 -114.5h-1343v2425h-496v516h1110v-1061zM1151 1372v-864h487q286 0 413.5 95.5t127.5 309.5q0 180 -82 319.5t-377 139.5h-569z" />
    <glyph glyph-name="currency" unicode="&#xdb;" horiz-adv-x="3867" 
d="M926 1880h704q360 0 570 -164.5t289 -380.5t79 -393q0 -286 -109.5 -499.5t-316 -328t-487.5 -114.5h-1344v2941h615v-1061zM3555 0h-614v2941h614v-2941zM926 1372v-864h487q286 0 413.5 95.5t127.5 309.5q0 180 -82 319.5t-377 139.5h-569z" />
    <glyph glyph-name="currency" unicode="&#x42b;" horiz-adv-x="3867" 
d="M926 1880h704q360 0 570 -164.5t289 -380.5t79 -393q0 -286 -109.5 -499.5t-316 -328t-487.5 -114.5h-1344v2941h615v-1061zM3555 0h-614v2941h614v-2941zM926 1372v-864h487q286 0 413.5 95.5t127.5 309.5q0 180 -82 319.5t-377 139.5h-569z" />
    <glyph glyph-name="guilsinglleft" unicode="&#xdc;" horiz-adv-x="2732" 
d="M926 1880h704q360 0 570 -164.5t289 -380.5t79 -393q0 -286 -109.5 -499.5t-316 -328t-487.5 -114.5h-1344v2941h615v-1061zM926 1372v-864h487q286 0 413.5 95.5t127.5 309.5q0 180 -82 319.5t-377 139.5h-569z" />
    <glyph glyph-name="guilsinglleft" unicode="&#x42c;" horiz-adv-x="2732" 
d="M926 1880h704q360 0 570 -164.5t289 -380.5t79 -393q0 -286 -109.5 -499.5t-316 -328t-487.5 -114.5h-1344v2941h615v-1061zM926 1372v-864h487q286 0 413.5 95.5t127.5 309.5q0 180 -82 319.5t-377 139.5h-569z" />
    <glyph glyph-name="guilsinglright" unicode="&#xdd;" horiz-adv-x="2957" 
d="M2126 1802q-47 250 -161 404t-254.5 217t-280.5 63q-331 0 -461 -146.5t-191 -361.5h-614q15 178 94 357.5t232.5 335.5t392.5 252t551 96q385 0 692 -177t483 -527.5t176 -848.5q0 -492 -170 -841.5t-474 -526t-699 -176.5q-359 0 -624.5 135.5t-428 380t-225.5 570.5
h614q37 -180 125.5 -303.5t222 -186.5t304.5 -63q328 0 506 229.5t214 597.5h-1155v520h1131z" />
    <glyph glyph-name="guilsinglright" unicode="&#x42d;" horiz-adv-x="2957" 
d="M2126 1802q-47 250 -161 404t-254.5 217t-280.5 63q-331 0 -461 -146.5t-191 -361.5h-614q15 178 94 357.5t232.5 335.5t392.5 252t551 96q385 0 692 -177t483 -527.5t176 -848.5q0 -492 -170 -841.5t-474 -526t-699 -176.5q-359 0 -624.5 135.5t-428 380t-225.5 570.5
h614q37 -180 125.5 -303.5t222 -186.5t304.5 -63q328 0 506 229.5t214 597.5h-1155v520h1131z" />
    <glyph glyph-name="fi" unicode="&#xde;" horiz-adv-x="4096" 
d="M1331 1319h-426v-1319h-614v2941h614v-1114h447q50 367 203 610.5t346 367t381.5 169t338.5 45.5q176 0 384 -56.5t418.5 -217.5t351.5 -476.5t141 -798.5q0 -482 -141 -797.5t-353 -476.5t-421 -217.5t-380 -56.5q-163 0 -363 51.5t-405 197.5t-351.5 431t-170.5 717z
M2621 442q114 0 230.5 48.5t219.5 166.5t166.5 318.5t63.5 494.5q0 295 -63.5 496t-166.5 318t-219.5 166t-230.5 49q-113 0 -230 -49.5t-218.5 -164.5t-166 -320.5t-64.5 -494.5q0 -288 64.5 -493t166 -321t218.5 -165t230 -49z" />
    <glyph glyph-name="fi" unicode="&#x42e;" horiz-adv-x="4096" 
d="M1331 1319h-426v-1319h-614v2941h614v-1114h447q50 367 203 610.5t346 367t381.5 169t338.5 45.5q176 0 384 -56.5t418.5 -217.5t351.5 -476.5t141 -798.5q0 -482 -141 -797.5t-353 -476.5t-421 -217.5t-380 -56.5q-163 0 -363 51.5t-405 197.5t-351.5 431t-170.5 717z
M2621 442q114 0 230.5 48.5t219.5 166.5t166.5 318.5t63.5 494.5q0 295 -63.5 496t-166.5 318t-219.5 166t-230.5 49q-113 0 -230 -49.5t-218.5 -164.5t-166 -320.5t-64.5 -494.5q0 -288 64.5 -493t166 -321t218.5 -165t230 -49z" />
    <glyph glyph-name="fl" unicode="&#xdf;" horiz-adv-x="2957" 
d="M2646 0h-602v1151h-397l-750 -1151h-754l832 1151q-302 68 -522 305t-220 592q0 234 114.5 439.5t325.5 329.5t486 124h1487v-2941zM2044 1647v786h-766q-146 0 -243 -56.5t-142 -141.5t-45 -171q0 -191 121.5 -304t353.5 -113h721z" />
    <glyph glyph-name="fl" unicode="&#x42f;" horiz-adv-x="2957" 
d="M2646 0h-602v1151h-397l-750 -1151h-754l832 1151q-302 68 -522 305t-220 592q0 234 114.5 439.5t325.5 329.5t486 124h1487v-2941zM2044 1647v786h-766q-146 0 -243 -56.5t-142 -141.5t-45 -171q0 -191 121.5 -304t353.5 -113h721z" />
    <glyph glyph-name="daggerdbl" unicode="&#xe0;" 
d="M2036 426q0 -178 32.5 -247.5t94.5 -92.5v-86h-619q-40 123 -53 258q-139 -143 -293 -229t-412 -86q-173 0 -324.5 68t-245 211t-93.5 356q0 205 81 353t222 231.5t332 111.5l516 78q201 27 201 172q0 159 -108 206.5t-269 47.5q-190 0 -262.5 -86t-90.5 -217h-552
q31 314 171.5 481t340 223.5t462.5 56.5q194 0 389 -51t337.5 -192t142.5 -387v-1180zM1475 1061q-94 -73 -390 -119q-123 -21 -206 -53t-133 -97t-50 -178q0 -135 83 -198.5t184 -63.5q129 0 247 53t191.5 151t73.5 226v279z" />
    <glyph glyph-name="daggerdbl" unicode="&#x430;" 
d="M2036 426q0 -178 32.5 -247.5t94.5 -92.5v-86h-619q-40 123 -53 258q-139 -143 -293 -229t-412 -86q-173 0 -324.5 68t-245 211t-93.5 356q0 205 81 353t222 231.5t332 111.5l516 78q201 27 201 172q0 159 -108 206.5t-269 47.5q-190 0 -262.5 -86t-90.5 -217h-552
q31 314 171.5 481t340 223.5t462.5 56.5q194 0 389 -51t337.5 -192t142.5 -387v-1180zM1475 1061q-94 -73 -390 -119q-123 -21 -206 -53t-133 -97t-50 -178q0 -135 83 -198.5t184 -63.5q129 0 247 53t191.5 151t73.5 226v279z" />
    <glyph glyph-name="periodcentered" unicode="&#xe1;" horiz-adv-x="2503" 
d="M602 2826q162 140 390.5 180.5t596.5 40.5q118 0 153.5 38.5t35.5 64.5h458q0 -77 -23.5 -178.5t-108 -211.5t-244.5 -167q-111 -40 -324 -58.5t-369 -36t-254 -73.5q-144 -84 -197.5 -196t-109.5 -308q102 131 282.5 223t364.5 92q227 0 426.5 -69.5t355 -212
t244 -360.5t88.5 -504q0 -285 -88.5 -503t-243 -360.5t-356.5 -213t-426 -70.5q-222 0 -422.5 70.5t-354 213t-242.5 359.5t-95 504v127q0 654 117 1033t346 576zM1253 1753q-296 0 -410 -197.5t-114 -465.5t114 -466t410 -198q297 0 411 197t114 467q0 271 -114 467
t-411 196z" />
    <glyph glyph-name="periodcentered" unicode="&#x431;" horiz-adv-x="2503" 
d="M602 2826q162 140 390.5 180.5t596.5 40.5q118 0 153.5 38.5t35.5 64.5h458q0 -77 -23.5 -178.5t-108 -211.5t-244.5 -167q-111 -40 -324 -58.5t-369 -36t-254 -73.5q-144 -84 -197.5 -196t-109.5 -308q102 131 282.5 223t364.5 92q227 0 426.5 -69.5t355 -212
t244 -360.5t88.5 -504q0 -285 -88.5 -503t-243 -360.5t-356.5 -213t-426 -70.5q-222 0 -422.5 70.5t-354 213t-242.5 359.5t-95 504v127q0 654 117 1033t346 576zM1253 1753q-296 0 -410 -197.5t-114 -465.5t114 -466t410 -198q297 0 411 197t114 467q0 271 -114 467
t-411 196z" />
    <glyph glyph-name="quotesinglbase" unicode="&#xe2;" 
d="M270 0v2179h897q893 0 893 -565q0 -198 -131.5 -325.5t-314.5 -153.5q127 -21 245 -78t198.5 -170t80.5 -285q0 -310 -250.5 -458t-650.5 -148zM844 926v-549h381q158 0 249 69t91 193q0 142 -89.5 214.5t-250.5 72.5h-381zM844 1802v-512h332q148 0 235.5 68t87.5 194
q0 250 -323 250h-332z" />
    <glyph glyph-name="quotesinglbase" unicode="&#x432;" 
d="M270 0v2179h897q893 0 893 -565q0 -198 -131.5 -325.5t-314.5 -153.5q127 -21 245 -78t198.5 -170t80.5 -285q0 -310 -250.5 -458t-650.5 -148zM844 926v-549h381q158 0 249 69t91 193q0 142 -89.5 214.5t-250.5 72.5h-381zM844 1802v-512h332q148 0 235.5 68t87.5 194
q0 250 -323 250h-332z" />
    <glyph glyph-name="quotedblbase" unicode="&#xe3;" horiz-adv-x="1819" 
d="M1749 1720h-905v-1720h-574v2179h1479v-459z" />
    <glyph glyph-name="quotedblbase" unicode="&#x433;" horiz-adv-x="1819" 
d="M1749 1720h-905v-1720h-574v2179h1479v-459z" />
    <glyph glyph-name="perthousand" unicode="&#xe4;" 
d="M324 1135v1044h1683v-1724h258v-1004h-532v549h-1205v-549h-532v1004q109 0 180.5 56.5t109.5 207.5t38 416zM1434 455v1265h-578v-598q0 -494 -156 -667h734z" />
    <glyph glyph-name="perthousand" unicode="&#x434;" 
d="M324 1135v1044h1683v-1724h258v-1004h-532v549h-1205v-549h-532v1004q109 0 180.5 56.5t109.5 207.5t38 416zM1434 455v1265h-578v-598q0 -494 -156 -667h734z" />
    <glyph glyph-name="Acircumflex" unicode="&#xe5;" 
d="M2154 639q-104 -363 -371.5 -529.5t-586.5 -166.5q-238 0 -434.5 62.5t-343 202t-227 372t-80.5 555.5q0 137 36 313.5t141.5 357.5t319.5 305.5t547 124.5q181 0 357.5 -52.5t327.5 -183t245 -370.5t94 -594v-102h-1495q12 -133 46 -243t145.5 -200t320.5 -90
q126 0 232 64t137 174h589zM1589 1307q-22 241 -150.5 349.5t-291.5 108.5q-394 0 -447 -458h889z" />
    <glyph glyph-name="Acircumflex" unicode="&#x435;" 
d="M2154 639q-104 -363 -371.5 -529.5t-586.5 -166.5q-238 0 -434.5 62.5t-343 202t-227 372t-80.5 555.5q0 137 36 313.5t141.5 357.5t319.5 305.5t547 124.5q181 0 357.5 -52.5t327.5 -183t245 -370.5t94 -594v-102h-1495q12 -133 46 -243t145.5 -200t320.5 -90
q126 0 232 64t137 174h589zM1589 1307q-22 241 -150.5 349.5t-291.5 108.5q-394 0 -447 -458h889z" />
    <glyph glyph-name="Ecircumflex" unicode="&#xe6;" horiz-adv-x="3187" 
d="M1307 0v688l-168 201l-488 -889h-688l791 1335l-770 844h684l639 -807v807h569v-807l639 807h684l-770 -844l790 -1335h-688l-487 889l-168 -201v-688h-569z" />
    <glyph glyph-name="Ecircumflex" unicode="&#x436;" horiz-adv-x="3187" 
d="M1307 0v688l-168 201l-488 -889h-688l791 1335l-770 844h684l639 -807v807h569v-807l639 807h684l-770 -844l790 -1335h-688l-487 889l-168 -201v-688h-569z" />
    <glyph glyph-name="Aacute" unicode="&#xe7;" 
d="M1552 1135q574 -72 574 -484q0 -269 -156 -427.5t-375 -219.5t-424 -61q-431 0 -734 176t-314 577h590q0 -319 475 -319q194 0 279 92t85 182q0 131 -112.5 203t-276.5 72h-401v364h397q144 0 236 65.5t92 188.5q0 258 -352 258q-208 0 -285 -76t-100 -210h-562
q53 720 979 720q319 0 516.5 -102.5t281 -259.5t83.5 -330q0 -322 -496 -409z" />
    <glyph glyph-name="Aacute" unicode="&#x437;" 
d="M1552 1135q574 -72 574 -484q0 -269 -156 -427.5t-375 -219.5t-424 -61q-431 0 -734 176t-314 577h590q0 -319 475 -319q194 0 279 92t85 182q0 131 -112.5 203t-276.5 72h-401v364h397q144 0 236 65.5t92 188.5q0 258 -352 258q-208 0 -285 -76t-100 -210h-562
q53 720 979 720q319 0 516.5 -102.5t281 -259.5t83.5 -330q0 -322 -496 -409z" />
    <glyph glyph-name="Edieresis" unicode="&#xe8;" horiz-adv-x="2503" 
d="M2232 0h-573v1311l-774 -1311h-615v2179h574v-1311l774 1311h614v-2179z" />
    <glyph glyph-name="Edieresis" unicode="&#x438;" horiz-adv-x="2503" 
d="M2232 0h-573v1311l-774 -1311h-615v2179h574v-1311l774 1311h614v-2179z" />
    <glyph glyph-name="Egrave" unicode="&#xe9;" horiz-adv-x="2503" 
d="M2232 0h-573v1311l-774 -1311h-615v2179h574v-1311l774 1311h614v-2179zM1978 3072q-19 -219 -175 -408.5t-554 -189.5q-355 0 -495.5 195.5t-155.5 402.5h270q26 -125 103.5 -206t302.5 -81q182 0 295 54t143 233h266z" />
    <glyph glyph-name="Egrave" unicode="&#x439;" horiz-adv-x="2503" 
d="M2232 0h-573v1311l-774 -1311h-615v2179h574v-1311l774 1311h614v-2179zM1978 3072q-19 -219 -175 -408.5t-554 -189.5q-355 0 -495.5 195.5t-155.5 402.5h270q26 -125 103.5 -206t302.5 -81q182 0 295 54t143 233h266z" />
    <glyph glyph-name="Iacute" unicode="&#xea;" 
d="M844 0h-574v2179h574v-827l721 827h716l-782 -844l815 -1335h-696l-537 934l-237 -246v-688z" />
    <glyph glyph-name="Iacute" unicode="&#x43a;" 
d="M844 0h-574v2179h574v-827l721 827h716l-782 -844l815 -1335h-696l-537 934l-237 -246v-688z" />
    <glyph glyph-name="Icircumflex" unicode="&#xeb;" 
d="M856 1720v-946q0 -302 -107 -485.5t-287.5 -260.5t-412.5 -77v459q275 0 275 364v1405h1683v-2179h-573v1720h-578z" />
    <glyph glyph-name="Icircumflex" unicode="&#x43b;" 
d="M856 1720v-946q0 -302 -107 -485.5t-287.5 -260.5t-412.5 -77v459q275 0 275 364v1405h1683v-2179h-573v1720h-578z" />
    <glyph glyph-name="Idieresis" unicode="&#xec;" horiz-adv-x="3187" 
d="M2384 1487l-549 -1487h-483l-549 1487h-17q4 -35 10.5 -104.5t6.5 -153.5v-1229h-533v2179h783l532 -1483h17l532 1483h782v-2179h-532v1229q0 74 6 148.5t10 109.5h-16z" />
    <glyph glyph-name="Idieresis" unicode="&#x43c;" horiz-adv-x="3187" 
d="M2384 1487l-549 -1487h-483l-549 1487h-17q4 -35 10.5 -104.5t6.5 -153.5v-1229h-533v2179h783l532 -1483h17l532 1483h782v-2179h-532v1229q0 74 6 148.5t10 109.5h-16z" />
    <glyph glyph-name="Igrave" unicode="&#xed;" horiz-adv-x="2503" 
d="M2232 0h-573v860h-815v-860h-574v2179h574v-860h815v860h573v-2179z" />
    <glyph glyph-name="Igrave" unicode="&#x43d;" horiz-adv-x="2503" 
d="M2232 0h-573v860h-815v-860h-574v2179h574v-860h815v860h573v-2179z" />
    <glyph glyph-name="Oacute" unicode="&#xee;" horiz-adv-x="2503" 
d="M1253 -57q-302 0 -556 126.5t-406 384.5t-152 636q0 286 89.5 504.5t245 360.5t354.5 211.5t425 69.5q227 0 426.5 -69.5t355 -212t244 -360.5t88.5 -504q0 -285 -88.5 -503t-243 -360.5t-356.5 -213t-426 -70.5zM1253 1753q-296 0 -410 -197.5t-114 -465.5t114 -466
t410 -198q297 0 411 197t114 467q0 271 -114 467t-411 196z" />
    <glyph glyph-name="Oacute" unicode="&#x43e;" horiz-adv-x="2503" 
d="M1253 -57q-302 0 -556 126.5t-406 384.5t-152 636q0 286 89.5 504.5t245 360.5t354.5 211.5t425 69.5q227 0 426.5 -69.5t355 -212t244 -360.5t88.5 -504q0 -285 -88.5 -503t-243 -360.5t-356.5 -213t-426 -70.5zM1253 1753q-296 0 -410 -197.5t-114 -465.5t114 -466
t410 -198q297 0 411 197t114 467q0 271 -114 467t-411 196z" />
    <glyph glyph-name="Ocircumflex" unicode="&#xef;" horiz-adv-x="2503" 
d="M2232 0h-573v1716h-815v-1716h-574v2179h1962v-2179z" />
    <glyph glyph-name="Ocircumflex" unicode="&#x43f;" horiz-adv-x="2503" 
d="M2232 0h-573v1716h-815v-1716h-574v2179h1962v-2179z" />
    <glyph glyph-name="apple" unicode="&#xf0;" horiz-adv-x="2503" 
d="M803 1864h8q106 169 250.5 270.5t400.5 101.5q183 0 346 -70t289.5 -211t198 -352.5t71.5 -488.5q0 -312 -98 -580t-305 -429.5t-514 -161.5q-419 0 -614 336h-9v-1127h-573v3027h549v-315zM1307 414q170 0 276 104t150.5 254.5t44.5 300.5q0 288 -116.5 478t-371.5 190
q-487 0 -487 -701q0 -267 124.5 -446.5t379.5 -179.5z" />
    <glyph glyph-name="apple" unicode="&#x440;" horiz-adv-x="2503" 
d="M803 1864h8q106 169 250.5 270.5t400.5 101.5q183 0 346 -70t289.5 -211t198 -352.5t71.5 -488.5q0 -312 -98 -580t-305 -429.5t-514 -161.5q-419 0 -614 336h-9v-1127h-573v3027h549v-315zM1307 414q170 0 276 104t150.5 254.5t44.5 300.5q0 288 -116.5 478t-371.5 190
q-487 0 -487 -701q0 -267 124.5 -446.5t379.5 -179.5z" />
    <glyph glyph-name="Ograve" unicode="&#xf1;" 
d="M2142 795q-10 -109 -57.5 -246.5t-158 -277.5t-305 -234t-474.5 -94q-291 0 -490 99t-311.5 259t-159.5 348t-47 379q0 362 109.5 633.5t343.5 423t592 151.5q205 0 414.5 -73.5t366 -260.5t181.5 -501h-581q-63 352 -381 352q-167 0 -269.5 -95t-144 -237.5
t-41.5 -298.5q0 -177 24 -325.5t122.5 -265.5t295.5 -117q131 0 219.5 68t129.5 159t41 154h581z" />
    <glyph glyph-name="Ograve" unicode="&#x441;" 
d="M2142 795q-10 -109 -57.5 -246.5t-158 -277.5t-305 -234t-474.5 -94q-291 0 -490 99t-311.5 259t-159.5 348t-47 379q0 362 109.5 633.5t343.5 423t592 151.5q205 0 414.5 -73.5t366 -260.5t181.5 -501h-581q-63 352 -381 352q-167 0 -269.5 -95t-144 -237.5
t-41.5 -298.5q0 -177 24 -325.5t122.5 -265.5t295.5 -117q131 0 219.5 68t129.5 159t41 154h581z" />
    <glyph glyph-name="Uacute" unicode="&#xf2;" horiz-adv-x="2023" 
d="M721 0v1720h-651v459h1876v-459h-652v-1720h-573z" />
    <glyph glyph-name="Uacute" unicode="&#x442;" horiz-adv-x="2023" 
d="M721 0v1720h-651v459h1876v-459h-652v-1720h-573z" />
    <glyph glyph-name="Ucircumflex" unicode="&#xf3;" 
d="M1458 37q-108 -324 -181 -497t-155.5 -263.5t-196 -122t-311.5 -31.5q-73 0 -258 9v458q50 -8 111 -8q177 0 259 60t118 268l-803 2269h639l467 -1606h8l447 1606h606z" />
    <glyph glyph-name="Ucircumflex" unicode="&#x443;" 
d="M1458 37q-108 -324 -181 -497t-155.5 -263.5t-196 -122t-311.5 -31.5q-73 0 -258 9v458q50 -8 111 -8q177 0 259 60t118 268l-803 2269h639l467 -1606h8l447 1606h606z" />
    <glyph glyph-name="Ugrave" unicode="&#xf4;" horiz-adv-x="3412" 
d="M1421 -848v1127h-8q-24 -43 -61 -107t-87.5 -113.5t-135.5 -82.5t-207 -33q-415 0 -605 333t-190 838q0 364 102 617.5t280.5 379t399.5 125.5q122 0 205.5 -31.5t138 -82.5t85.5 -97.5t100 -160.5h8v1077h524v-1077h8q33 53 80 127.5t104.5 128t140.5 85t204 31.5
q166 0 308.5 -69.5t248.5 -209.5t165.5 -352t59.5 -491q0 -321 -79 -585t-257 -425t-459 -161q-122 0 -207 33t-135.5 82.5t-85.5 110t-63 110.5h-8v-1127h-574zM1446 1040v131q0 281 -66.5 425.5t-298.5 144.5q-207 0 -285.5 -182t-78.5 -486q0 -659 348 -659
q172 0 254.5 83.5t104.5 213t22 329.5zM2351 414q348 0 348 659q0 304 -78 486t-286 182q-231 0 -298 -144.5t-67 -425.5v-131q0 -200 22.5 -330t105.5 -213t253 -83z" />
    <glyph glyph-name="Ugrave" unicode="&#x444;" horiz-adv-x="3412" 
d="M1421 -848v1127h-8q-24 -43 -61 -107t-87.5 -113.5t-135.5 -82.5t-207 -33q-415 0 -605 333t-190 838q0 364 102 617.5t280.5 379t399.5 125.5q122 0 205.5 -31.5t138 -82.5t85.5 -97.5t100 -160.5h8v1077h524v-1077h8q33 53 80 127.5t104.5 128t140.5 85t204 31.5
q166 0 308.5 -69.5t248.5 -209.5t165.5 -352t59.5 -491q0 -321 -79 -585t-257 -425t-459 -161q-122 0 -207 33t-135.5 82.5t-85.5 110t-63 110.5h-8v-1127h-574zM1446 1040v131q0 281 -66.5 425.5t-298.5 144.5q-207 0 -285.5 -182t-78.5 -486q0 -659 348 -659
q172 0 254.5 83.5t104.5 213t22 329.5zM2351 414q348 0 348 659q0 304 -78 486t-286 182q-231 0 -298 -144.5t-67 -425.5v-131q0 -200 22.5 -330t105.5 -213t253 -83z" />
    <glyph glyph-name="dotlessi" unicode="&#xf5;" 
d="M2216 0h-709l-377 655l-376 -655h-693l742 1110l-713 1069h696l369 -635l361 635h675l-716 -1069z" />
    <glyph glyph-name="dotlessi" unicode="&#x445;" 
d="M2216 0h-709l-377 655l-376 -655h-693l742 1110l-713 1069h696l369 -635l361 635h675l-716 -1069z" />
    <glyph glyph-name="circumflex" unicode="&#xf6;" horiz-adv-x="2503" 
d="M1962 0h-1692v2175h574v-1716h815v1716h573v-1716h262v-1008h-532v549z" />
    <glyph glyph-name="circumflex" unicode="&#x446;" horiz-adv-x="2503" 
d="M1962 0h-1692v2175h574v-1716h815v1716h573v-1716h262v-1008h-532v549z" />
    <glyph glyph-name="tilde" unicode="&#xf7;" horiz-adv-x="2503" 
d="M2232 0h-573v897q-86 -50 -272 -125.5t-375 -75.5q-344 0 -543 182t-199 580v721h574v-704q0 -295 373 -295q115 0 247 50.5t195 84.5v864h573v-2179z" />
    <glyph glyph-name="tilde" unicode="&#x447;" horiz-adv-x="2503" 
d="M2232 0h-573v897q-86 -50 -272 -125.5t-375 -75.5q-344 0 -543 182t-199 580v721h574v-704q0 -295 373 -295q115 0 247 50.5t195 84.5v864h573v-2179z" />
    <glyph glyph-name="macron" unicode="&#xf8;" horiz-adv-x="3412" 
d="M1417 459v1720h574v-1720h577v1716h574v-2175h-2872v2175h574v-1716h573z" />
    <glyph glyph-name="macron" unicode="&#x448;" horiz-adv-x="3412" 
d="M1417 459v1720h574v-1720h577v1716h574v-2175h-2872v2175h574v-1716h573z" />
    <glyph glyph-name="breve" unicode="&#xf9;" horiz-adv-x="3412" 
d="M2871 0h-2601v2175h574v-1716h573v1720h574v-1720h577v1716h574v-1716h262v-1008h-533v549z" />
    <glyph glyph-name="breve" unicode="&#x449;" horiz-adv-x="3412" 
d="M2871 0h-2601v2175h574v-1716h573v1720h574v-1720h577v1716h574v-1716h262v-1008h-533v549z" />
    <glyph glyph-name="dotaccent" unicode="&#xfa;" horiz-adv-x="2503" 
d="M1061 2179v-848h344q913 0 913 -692q0 -313 -259.5 -476t-653.5 -163h-918v1720h-450v459h1024zM1061 926v-549h332q160 0 256 69.5t96 192.5q0 141 -94.5 214t-257.5 73h-332z" />
    <glyph glyph-name="dotaccent" unicode="&#x44a;" horiz-adv-x="2503" 
d="M1061 2179v-848h344q913 0 913 -692q0 -313 -259.5 -476t-653.5 -163h-918v1720h-450v459h1024zM1061 926v-549h332q160 0 256 69.5t96 192.5q0 141 -94.5 214t-257.5 73h-332z" />
    <glyph glyph-name="ring" unicode="&#xfb;" horiz-adv-x="3187" 
d="M844 1331h315q914 0 914 -692q0 -313 -259.5 -476t-654.5 -163h-889v2179h574v-848zM2916 0h-573v2179h573v-2179zM844 926v-549h303q160 0 256 69.5t96 192.5q0 141 -94.5 214t-257.5 73h-303z" />
    <glyph glyph-name="ring" unicode="&#x44b;" horiz-adv-x="3187" 
d="M844 1331h315q914 0 914 -692q0 -313 -259.5 -476t-654.5 -163h-889v2179h574v-848zM2916 0h-573v2179h573v-2179zM844 926v-549h303q160 0 256 69.5t96 192.5q0 141 -94.5 214t-257.5 73h-303z" />
    <glyph glyph-name="cedilla" unicode="&#xfc;" 
d="M844 1331h344q913 0 913 -692q0 -313 -259.5 -476t-653.5 -163h-918v2179h574v-848zM844 926v-549h332q158 0 255 69.5t97 192.5q0 141 -95.5 214t-256.5 73h-332z" />
    <glyph glyph-name="cedilla" unicode="&#x44c;" 
d="M844 1331h344q913 0 913 -692q0 -313 -259.5 -476t-653.5 -163h-918v2179h574v-848zM844 926v-549h332q158 0 255 69.5t97 192.5q0 141 -95.5 214t-256.5 73h-332z" />
    <glyph glyph-name="hungarumlaut" unicode="&#xfd;" 
d="M1536 1315q-34 192 -139.5 315t-298.5 123q-320 0 -381 -352h-582q36 456 330 645.5t633 189.5q357 0 591 -151.5t343.5 -423t109.5 -633.5q0 -191 -45.5 -378.5t-159 -348.5t-312.5 -259.5t-490 -98.5q-362 0 -581 151.5t-309.5 346.5t-105.5 354h582q0 -63 40 -154
t129 -159t220 -68q362 0 430 446h-647v459z" />
    <glyph glyph-name="hungarumlaut" unicode="&#x44d;" 
d="M1536 1315q-34 192 -139.5 315t-298.5 123q-320 0 -381 -352h-582q36 456 330 645.5t633 189.5q357 0 591 -151.5t343.5 -423t109.5 -633.5q0 -191 -45.5 -378.5t-159 -348.5t-312.5 -259.5t-490 -98.5q-362 0 -581 151.5t-309.5 346.5t-105.5 354h582q0 -63 40 -154
t129 -159t220 -68q362 0 430 446h-647v459z" />
    <glyph glyph-name="ogonek" unicode="&#xfe;" horiz-adv-x="3412" 
d="M1237 860h-393v-860h-574v2179h574v-860h393q42 302 188.5 508t362.5 307.5t461 101.5q204 0 386.5 -69.5t328 -213t227.5 -360.5t82 -503q0 -375 -141.5 -634.5t-375.5 -386t-507 -126.5q-245 0 -461 101.5t-362.5 307.5t-188.5 508zM2249 1753q-241 0 -344 -201.5
t-103 -461.5t103 -462t344 -202t343.5 201t102.5 463t-102.5 462.5t-343.5 200.5z" />
    <glyph glyph-name="ogonek" unicode="&#x44e;" horiz-adv-x="3412" 
d="M1237 860h-393v-860h-574v2179h574v-860h393q42 302 188.5 508t362.5 307.5t461 101.5q204 0 386.5 -69.5t328 -213t227.5 -360.5t82 -503q0 -375 -141.5 -634.5t-375.5 -386t-507 -126.5q-245 0 -461 101.5t-362.5 307.5t-188.5 508zM2249 1753q-241 0 -344 -201.5
t-103 -461.5t103 -462t344 -202t343.5 201t102.5 463t-102.5 462.5t-343.5 200.5z" />
    <glyph glyph-name="caron" unicode="&#xff;" 
d="M86 0l598 872q-102 0 -232.5 79t-223.5 231t-93 358q0 639 905 639h967v-2179h-573v872h-123l-541 -872h-684zM1434 1237v565h-381q-148 0 -242 -73t-94 -197q0 -142 89.5 -218.5t246.5 -76.5h381z" />
    <glyph glyph-name="caron" unicode="&#x44f;" 
d="M86 0l598 872q-102 0 -232.5 79t-223.5 231t-93 358q0 639 905 639h967v-2179h-573v872h-123l-541 -872h-684zM1434 1237v565h-381q-148 0 -242 -73t-94 -197q0 -142 89.5 -218.5t246.5 -76.5h381z" />
    <glyph glyph-name="ntilde" unicode="&#x2013;" 
d="M2277 1364v-434h-2277v434h2277z" />
    <glyph glyph-name="oacute" unicode="&#x2014;" horiz-adv-x="4096" 
d="M4096 1364v-434h-4096v434h4096z" />
    <glyph glyph-name="edieresis" unicode="&#x2018;" horiz-adv-x="1139" 
d="M856 2380v-520h-573v417q0 584 561 701v-209q-183 -58 -239.5 -150.5t-63.5 -238.5h315z" />
    <glyph glyph-name="iacute" unicode="&#x2019;" horiz-adv-x="1139" 
d="M283 2421v520h573v-418q0 -582 -561 -700v209q183 58 239 150t64 239h-315z" />
    <glyph glyph-name="Ccedilla" unicode="&#x201a;" horiz-adv-x="1139" 
d="M283 0v520h573v-418q0 -582 -561 -700v209q183 58 239 150t64 239h-315z" />
    <glyph glyph-name="igrave" unicode="&#x201c;" horiz-adv-x="2048" 
d="M836 2380v-520h-574v417q0 583 561 701v-209q-183 -58 -239.5 -150.5t-63.5 -238.5h316zM1786 2380v-520h-574v417q0 583 562 701v-209q-183 -58 -239 -150t-65 -239h316z" />
    <glyph glyph-name="icircumflex" unicode="&#x201d;" horiz-adv-x="2048" 
d="M262 2421v520h574v-418q0 -582 -562 -700v209q183 58 240 151t64 238h-316zM1212 2421v520h574v-418q0 -582 -561 -700v209q183 58 239 150t64 239h-316z" />
    <glyph glyph-name="Ntilde" unicode="&#x201e;" horiz-adv-x="2048" 
d="M262 0v520h574v-418q0 -582 -562 -700v209q183 58 240 151t64 238h-316zM1212 0v520h574v-418q0 -582 -561 -700v209q183 58 239 150t64 239h-316z" />
    <glyph glyph-name="Udieresis" unicode="&#x2020;" 
d="M2130 2044v-459h-717v-2285h-549v2285h-717v459h717v897h549v-897h717z" />
    <glyph glyph-name="aacute" unicode="&#x2021;" 
d="M2130 2085v-459h-721v-979h721v-459h-721v-888h-549v888h-713v459h713v979h-713v459h713v856h549v-856h721z" />
    <glyph glyph-name="idieresis" unicode="&#x2022;" horiz-adv-x="1434" 
d="M41 1475q0 185 90 339t246 243t340 89q182 0 338 -89t247 -242.5t91 -339.5q0 -188 -90.5 -343.5t-246.5 -246t-339 -90.5q-184 0 -340 89.5t-246 245.5t-90 345z" />
    <glyph glyph-name="Odieresis" unicode="&#x2026;" horiz-adv-x="4096" 
d="M991 598v-598h-614v598h614zM2355 598v-598h-614v598h614zM3719 598v-598h-614v598h614z" />
    <glyph glyph-name="acircumflex" unicode="&#x2030;" horiz-adv-x="4096" 
d="M1294 610q0 176 89 329t240.5 242t330.5 89q175 0 327.5 -89t242 -241.5t89.5 -329.5q0 -174 -88.5 -327.5t-240.5 -242.5t-330 -89t-330.5 88.5t-241 241t-88.5 329.5zM1704 610q0 -105 74 -177.5t176 -72.5t176 72.5t74 177.5q0 107 -73.5 178.5t-176.5 71.5
t-176.5 -71.5t-73.5 -178.5zM2789 610q0 176 89 329t240.5 242t330.5 89q175 0 327.5 -89t242 -241.5t89.5 -329.5q0 -174 -88.5 -327.5t-240.5 -242.5t-330 -89t-330.5 88.5t-241 241t-88.5 329.5zM3199 610q0 -105 74 -177.5t176 -72.5t176 72.5t74 177.5
q0 107 -73.5 178.5t-176.5 71.5t-176.5 -71.5t-73.5 -178.5zM-12 2249q0 174 88.5 327.5t240.5 242.5t330 89q177 0 329.5 -89.5t241.5 -242t89 -327.5q0 -176 -89 -329t-240.5 -242t-330.5 -89q-177 0 -329.5 88.5t-241 241t-88.5 330.5zM397 2249q0 -105 74 -177.5
t176 -72.5t176 72.5t74 177.5t-74 177.5t-176 72.5t-176 -72.5t-74 -177.5zM328 -78l1630 2986h303l-1630 -2986h-303z" />
    <glyph glyph-name="atilde" unicode="&#x2039;" horiz-adv-x="1364" 
d="M1024 1982v-475l-410 -360l410 -361v-475l-684 590v492z" />
    <glyph glyph-name="otilde" unicode="&#x203a;" horiz-adv-x="1364" 
d="M750 1147l-410 360v475l684 -589v-492l-684 -590v475z" />
    <glyph glyph-name="ocircumflex" unicode="&#x2122;" horiz-adv-x="4096" 
d="M2523 2941l385 -1024l381 1024h627v-1688h-434v1151h-9l-401 -1151h-332l-401 1151h-8v-1151h-435v1688h627zM1577 2941v-348h-471v-1340h-459v1340h-467v348h1397z" />
    </font>
</defs>
</svg>
