<?xml version="1.0" standalone="no"?>
<!DOCTYPE svg PUBLIC "-//W3C//DTD SVG 1.1//EN" "http://www.w3.org/Graphics/SVG/1.1/DTD/svg11.dtd" >
<svg>
<metadata>
Created by FontForge 20110222 at Thu Aug  8 06:00:17 2013
 By Orthosie Webhosting
(c) 1992, Tilde Ltd. AG Fonts Collection. Created by Andrejs Grinbergs.
</metadata>
<defs>
<font id="AGHelveticaCyrRoman" horiz-adv-x="2277" >
  <font-face 
    font-family="AGHelveticaCyrRoman"
    font-weight="400"
    font-stretch="normal"
    units-per-em="4096"
    panose-1="2 11 114 0 0 0 0 0 0 0"
    ascent="3276"
    descent="-820"
    x-height="2142"
    cap-height="2941"
    bbox="-70 -901 4096 3690"
    underline-thickness="20"
    underline-position="-123"
    unicode-range="U+0020-2122"
  />
<missing-glyph horiz-adv-x="3072" 
d="M512 0v2560h2048v-2560h-2048zM2494 66v2428h-1916v-2428h1916z" />
    <glyph glyph-name=".notdef" horiz-adv-x="3072" 
d="M512 0v2560h2048v-2560h-2048zM2494 66v2428h-1916v-2428h1916z" />
    <glyph glyph-name=".null" horiz-adv-x="0" 
 />
    <glyph glyph-name="nonmarkingreturn" horiz-adv-x="0" 
 />
    <glyph glyph-name="space" unicode=" " horiz-adv-x="2048" 
 />
    <glyph glyph-name="exclam" unicode="!" horiz-adv-x="1139" 
d="M766 418v-418h-397v418h397zM668 700h-201l-98 1270v971h397v-971z" />
    <glyph glyph-name="quotedbl" unicode="&#x22;" horiz-adv-x="1454" 
d="M287 1896v1045h299v-1045h-299zM868 1896v1045h299v-1045h-299z" />
    <glyph glyph-name="numbersign" unicode="#" 
d="M1589 860l-119 -860h-270l119 860h-512l-119 -860h-270l119 860h-422l37 258h421l78 582h-422l37 258h422l119 860h274l-118 -860h507l119 860h275l-119 -860h422l-37 -258h-422l-82 -582h422l-37 -258h-422zM1434 1700h-508l-82 -582h512z" />
    <glyph glyph-name="dollar" unicode="$" 
d="M1036 1675v938q-226 0 -356.5 -138.5t-130.5 -336.5q0 -201 138.5 -314t348.5 -149zM1229 1262v-1041q172 0 295 71.5t184 188.5t61 256q0 166 -92 290t-227 165zM2060 2134h-348q-24 193 -124.5 313t-358.5 166v-979q262 -76 410.5 -131t260.5 -139t171 -218.5
t59 -342.5q0 -247 -87.5 -420t-226.5 -274t-293.5 -144t-293.5 -43v-393h-193v393q-273 16 -473 108t-316 298t-116 544h361q12 -223 62.5 -352t163 -197.5t318.5 -101.5v1086q-198 48 -334.5 97.5t-255 138.5t-188.5 229.5t-70 341.5q0 218 110.5 401.5t304.5 290
t433 106.5v262h193v-262q305 -24 560 -186t271 -592z" />
    <glyph glyph-name="percent" unicode="%" horiz-adv-x="3641" 
d="M160 2154q0 189 94 349t255 252t351 92q187 0 348 -93t254.5 -252t93.5 -348q0 -190 -93.5 -351t-253.5 -255t-349 -94t-350.5 93t-255.5 255t-94 352zM446 2154q0 -123 56 -216.5t151.5 -145t202.5 -51.5q177 0 295.5 121t118.5 292q0 173 -120 289.5t-290 116.5
q-174 0 -294 -118.5t-120 -287.5zM2085 672q0 189 94 348.5t255 251.5t351 92q187 0 347.5 -92t255 -252t94.5 -348q0 -189 -93.5 -351t-254.5 -256t-349 -94q-190 0 -351 93.5t-255 254.5t-94 353zM2372 672q0 -184 120 -299t289 -115q177 0 295.5 121.5t118.5 292.5
t-119.5 288t-290.5 117q-174 0 -293.5 -118.5t-119.5 -286.5zM2740 2879l-1622 -2957h-221l1618 2957h225z" />
    <glyph glyph-name="ampersand" unicode="&#x26;" horiz-adv-x="2732" 
d="M1708 578l-664 811q-276 -175 -389.5 -305t-113.5 -347q0 -169 91.5 -279t215 -159t221.5 -49q399 0 639 328zM1171 1798q169 117 269 230t100 278q0 175 -98.5 249.5t-216.5 74.5q-197 0 -270.5 -102.5t-73.5 -217.5q0 -219 290 -512zM2118 635l524 -635h-467l-274 336
q-168 -194 -363 -295.5t-494 -101.5q-333 0 -527 133.5t-265.5 309.5t-71.5 327q0 154 29 275.5t100 225t202 207.5t333 217q-121 149 -184.5 242t-95.5 190t-32 220q0 270 187 462.5t510 192.5t491 -180t168 -426q0 -190 -79.5 -335t-185 -236t-263.5 -199l536 -639
q76 209 119 458h340q-29 -367 -237 -749z" />
    <glyph glyph-name="quotesingle" unicode="'" horiz-adv-x="782" 
d="M242 1896v1045h299v-1045h-299z" />
    <glyph glyph-name="parenleft" unicode="(" horiz-adv-x="1364" 
d="M971 3002h250q-156 -293 -249.5 -487t-163.5 -416.5t-107 -495.5t-37 -632q0 -239 39 -464t113 -441t169.5 -423.5t239.5 -490.5h-242q-186 280 -304.5 486.5t-210 433t-140.5 475t-49 522.5q0 520 172 978t520 955z" />
    <glyph glyph-name="parenright" unicode=")" horiz-adv-x="1364" 
d="M393 -848h-250q154 287 250 489.5t164.5 421t105.5 491.5t37 630q0 317 -67.5 607t-185.5 565t-308 646h242q174 -258 301 -480t217 -443t138 -467t48 -527q0 -519 -171 -977t-521 -956z" />
    <glyph glyph-name="asterisk" unicode="*" horiz-adv-x="1593" 
d="M160 2421l82 225l430 -156v451h246v-451l430 156l82 -225l-443 -140l275 -376l-201 -140l-266 385l-267 -385l-200 140l274 376z" />
    <glyph glyph-name="plus" unicode="+" horiz-adv-x="2392" 
d="M1049 1184v884h299v-884h884v-299h-884v-885h-299v885h-889v299h889z" />
    <glyph glyph-name="comma" unicode="," horiz-adv-x="1139" 
d="M356 0v434h426v-401q0 -355 -142 -484.5t-284 -150.5v188q217 21 217 414h-217z" />
    <glyph glyph-name="hyphen" unicode="-" horiz-adv-x="1364" 
d="M1184 1319v-369h-1004v369h1004z" />
    <glyph glyph-name="period" unicode="." horiz-adv-x="1139" 
d="M782 434v-434h-426v434h426z" />
    <glyph glyph-name="slash" unicode="/" horiz-adv-x="1139" 
d="M1208 3019l-1003 -3097h-275l1008 3097h270z" />
    <glyph glyph-name="zero" unicode="0" 
d="M1741 1401q0 363 -65 622.5t-199.5 396t-337.5 136.5q-602 0 -602 -1155t602 -1155q302 0 452 300t150 855zM2126 1401q0 -257 -42.5 -510t-150.5 -473.5t-304 -358t-490 -137.5q-293 0 -490 137.5t-305 360.5t-150 473.5t-42 507.5q0 258 42 508t149.5 472t305 360
t490.5 138q294 0 491 -138t304 -357.5t149.5 -472t42.5 -510.5z" />
    <glyph glyph-name="one" unicode="1" 
d="M1470 2879v-2879h-385v2044h-671v287q265 19 402 57.5t226.5 149.5t145.5 341h282z" />
    <glyph glyph-name="two" unicode="2" 
d="M541 1847h-361q0 612 312.5 822t683.5 210q250 0 456 -104t325.5 -299.5t119.5 -456.5q0 -245 -97 -416t-257 -290.5t-416 -255.5l-299 -164q-452 -249 -496 -553h1565v-340h-1971q10 288 95.5 503.5t231 367.5t349.5 272l381 221q190 108 295.5 184.5t169.5 193
t64 294.5q0 127 -58 245.5t-186.5 196.5t-325.5 78q-189 0 -307.5 -76t-175 -188t-74 -218t-24.5 -227z" />
    <glyph glyph-name="three" unicode="3" 
d="M918 1327v311q122 -8 188 -8q236 0 392.5 111t156.5 360q0 102 -47.5 205.5t-167.5 176.5t-318 73q-333 0 -435.5 -180t-125.5 -439h-352q0 241 80.5 452.5t288 350.5t561.5 139q272 0 474 -97t308.5 -269.5t106.5 -390.5q0 -174 -56.5 -298t-141.5 -197t-171 -99v-8
q479 -155 479 -672q0 -248 -110.5 -458.5t-344.5 -339t-581 -128.5q-293 0 -533 127q-220 116 -313.5 327t-116.5 505h373q8 -171 53.5 -308.5t179 -232t381.5 -94.5q278 0 452.5 154.5t174.5 402.5q0 528 -672 528q-27 0 -82 -2t-81 -2z" />
    <glyph glyph-name="four" unicode="4" 
d="M2142 700h-422v-700h-360v700h-1258v353l1319 1826h299v-1867h422v-312zM1352 2318l-918 -1306h926v1306h-8z" />
    <glyph glyph-name="five" unicode="5" 
d="M725 2466l-123 -791q236 180 557 180q239 0 457.5 -109.5t353.5 -319.5t135 -492q0 -210 -83 -439t-316 -401t-645 -172q-154 0 -304.5 36.5t-284.5 126.5t-224.5 246.5t-116.5 385.5h373q28 -243 191.5 -363.5t418.5 -120.5q180 0 318.5 88t213 240t74.5 332
q0 200 -84 345t-229.5 219.5t-325.5 74.5q-322 0 -532 -275l-311 17l217 1544h1491v-352h-1221z" />
    <glyph glyph-name="six" unicode="6" 
d="M2060 2114h-352q-79 442 -496 442q-257 0 -410.5 -187t-213.5 -433.5t-60 -444.5l9 -8q83 145 250.5 248.5t433.5 103.5q198 0 406.5 -91t351.5 -298t143 -524q0 -225 -64.5 -394t-210.5 -327q-126 -141 -286 -210t-443 -69q-192 0 -396 99.5t-345 318.5
q-221 347 -221 999q0 369 94.5 717t333.5 585.5t637 237.5q136 0 274.5 -39.5t263.5 -129.5t206.5 -238t94.5 -358zM578 885q0 -163 66 -308.5t203.5 -238t336.5 -92.5q169 0 297.5 83.5t198 232.5t69.5 343q0 141 -56 280.5t-188 232.5t-338 93q-189 0 -323 -83.5
t-200 -225.5t-66 -317z" />
    <glyph glyph-name="seven" unicode="7" 
d="M152 2466v352h1990v-315q-129 -134 -296.5 -363.5t-341.5 -548t-323 -729t-223 -862.5h-397q48 386 221 837.5t427.5 882t527.5 746.5h-1585z" />
    <glyph glyph-name="eight" unicode="8" 
d="M2015 2138q0 -269 -106.5 -397.5t-261.5 -208.5q261 -110 366 -302.5t105 -398.5q0 -240 -105.5 -448t-325.5 -334.5t-544 -126.5q-158 0 -348.5 50.5t-343.5 170.5q-191 152 -243 327t-52 357q0 503 487 701q-185 71 -287 216t-102 345q0 176 81.5 356.5t277.5 307
t513 126.5q298 0 499.5 -110t295.5 -280.5t94 -350.5zM1135 1352q-195 0 -328.5 -75t-199.5 -197.5t-66 -260.5q0 -222 139.5 -397.5t474.5 -175.5q242 0 410 119.5t168 425.5q0 186 -79 313t-214.5 187.5t-304.5 60.5zM1130 1663q152 0 268.5 60t180 166.5t63.5 236.5
q0 99 -50 198t-170.5 165.5t-315.5 66.5q-259 0 -369 -138t-110 -313q0 -197 148.5 -319.5t354.5 -122.5z" />
    <glyph glyph-name="nine" unicode="9" 
d="M1077 963q-265 0 -470.5 113t-320 323.5t-114.5 492.5q0 200 60 378t178 315t293 215.5t395 78.5q419 0 643 -217.5t294 -511.5t70 -606q0 -192 -30.5 -440t-132.5 -522t-319.5 -467t-561.5 -193q-311 0 -503.5 125.5t-272.5 303.5t-80 341h360q17 -221 143.5 -346
t344.5 -125q196 0 334 114t225.5 352t132.5 611l-8 9q-52 -107 -155.5 -185t-235 -118.5t-269.5 -40.5zM1130 1286q206 0 379.5 140.5t173.5 515.5q0 266 -144.5 440t-436.5 174q-251 0 -404 -179t-153 -468q0 -623 585 -623z" />
    <glyph glyph-name="colon" unicode=":" horiz-adv-x="1139" 
d="M782 434v-434h-426v434h426zM782 2114v-435h-426v435h426z" />
    <glyph glyph-name="semicolon" unicode=";" horiz-adv-x="1139" 
d="M356 0v434h426v-401q0 -355 -142 -484.5t-284 -150.5v188q217 21 217 414h-217zM782 1679h-426v435h426v-435z" />
    <glyph glyph-name="less" unicode="&#x3c;" horiz-adv-x="2392" 
d="M2195 373v-328l-1998 848v287l1998 848v-328l-1597 -664z" />
    <glyph glyph-name="equal" unicode="=" horiz-adv-x="2392" 
d="M2232 1597v-299h-2072v299h2072zM2232 770v-299h-2072v299h2072z" />
    <glyph glyph-name="greater" unicode="&#x3e;" horiz-adv-x="2392" 
d="M197 1700v328l1998 -848v-287l-1998 -848v328l1597 663z" />
    <glyph glyph-name="question" unicode="?" 
d="M590 2019h-361q7 173 27.5 296.5t88.5 245t208 228.5q244 189 594 189q232 0 431.5 -93t318 -276t118.5 -434q0 -194 -82 -330t-303 -346q-153 -147 -220.5 -232.5t-101.5 -202.5t-34 -314h-361q0 231 36.5 367.5t111 238t242.5 274.5q157 162 217 234t85 144.5t25 191.5
q0 102 -45 208.5t-155.5 182t-294.5 75.5q-545 0 -545 -647zM1303 418v-418h-398v418h398z" />
    <glyph glyph-name="at" unicode="@" horiz-adv-x="4157" 
d="M2503 1671q0 151 -101 264t-235 113q-171 0 -314 -124.5t-224 -312.5t-81 -362q0 -176 95.5 -286.5t248.5 -110.5q164 0 305 131.5t223.5 326t82.5 361.5zM2630 2023l82 254h278q-53 -195 -166 -578.5t-158 -544t-45 -212.5q0 -119 86 -119q137 0 272.5 129.5t222.5 336
t87 419.5q0 317 -153.5 557.5t-415 370t-574.5 129.5q-270 0 -498.5 -100.5t-396 -281t-259 -420t-91.5 -509.5q0 -356 168.5 -649.5t461.5 -461t644 -167.5q188 0 373.5 56.5t345.5 162t276 248.5h275q-132 -219 -332 -383t-443 -251t-503 -87q-432 0 -791 206.5
t-566.5 564.5t-207.5 786q0 418 209 773t565 561t770 206q283 0 538 -93.5t453 -267.5t308 -408.5t110 -508.5q0 -265 -95.5 -485t-249.5 -377t-324 -239.5t-310 -82.5q-109 0 -182.5 66.5t-79.5 191.5l-8 -4q-238 -254 -491 -254q-171 0 -310 89t-216 240t-77 326
q0 278 120.5 541.5t337.5 426.5t489 163q322 0 471 -320z" />
    <glyph glyph-name="A" unicode="A" horiz-adv-x="2732" 
d="M1954 856h-1180l-307 -856h-410l1106 2941h451l1065 -2941h-434zM897 1208h913l-434 1295h-8z" />
    <glyph glyph-name="B" unicode="B" horiz-adv-x="2732" 
d="M700 2601v-905h717q302 0 458.5 108t156.5 367q0 213 -144.5 321.5t-466.5 108.5h-721zM303 0v2941h1294q265 0 453 -99.5t283.5 -267.5t95.5 -374q0 -430 -393 -615q231 -94 381.5 -241t150.5 -476q0 -240 -115.5 -437.5t-343.5 -314t-540 -116.5h-1266zM700 1372v-1032
h848q305 0 464 143t159 394q0 495 -688 495h-783z" />
    <glyph glyph-name="C" unicode="C" horiz-adv-x="2957" 
d="M2761 2056h-385q-74 345 -309.5 477.5t-514.5 132.5q-272 0 -490.5 -133t-345 -396.5t-126.5 -637.5q0 -562 229.5 -893.5t745.5 -331.5q157 0 324 66t310 246.5t205 494.5h385q-73 -498 -321.5 -756.5t-504.5 -330.5t-460 -72q-261 0 -496 88.5t-422.5 277.5t-296 490
t-108.5 709q0 340 94 622t272.5 485.5t433.5 314t572 110.5q360 0 624 -133.5t409.5 -353.5t175.5 -476z" />
    <glyph glyph-name="D" unicode="D" horiz-adv-x="2957" 
d="M332 0v2941h1192q285 0 514.5 -103t390 -291.5t246.5 -452t86 -583.5q0 -267 -64 -530.5t-209 -485.5t-390.5 -358.5t-590.5 -136.5h-1175zM729 2601v-2261h770q257 0 450 132.5t297.5 391.5t104.5 623q0 365 -106 614.5t-304.5 374.5t-470.5 125h-741z" />
    <glyph glyph-name="E" unicode="E" horiz-adv-x="2732" 
d="M2523 352v-352h-2171v2941h2142v-352h-1744v-901h1609v-353h-1609v-983h1773z" />
    <glyph glyph-name="F" unicode="F" horiz-adv-x="2503" 
d="M750 1335v-1335h-398v2941h2036v-352h-1638v-901h1441v-353h-1441z" />
    <glyph glyph-name="G" unicode="G" horiz-adv-x="3187" 
d="M1593 1233v340h1291v-1573h-258l-95 381q-97 -137 -249.5 -242t-337.5 -161t-383 -56q-337 0 -545 93.5t-357 238.5q-158 151 -254.5 318.5t-141 331t-55.5 300t-11 291.5q0 377 154.5 728t470 573.5t767.5 222.5q286 0 557 -109t459 -329t229 -533h-385
q-85 346 -331 482t-549 136q-269 0 -488 -139.5t-347 -410t-128 -641.5q0 -330 87 -601.5t306 -441.5t586 -170q364 0 602 189q182 144 253 333.5t71 448.5h-918z" />
    <glyph glyph-name="H" unicode="H" horiz-adv-x="2957" 
d="M2249 1724v1217h397v-2941h-397v1372h-1536v-1372h-398v2941h398v-1217h1536z" />
    <glyph glyph-name="I" unicode="I" horiz-adv-x="1139" 
d="M770 2941v-2941h-397v2941h397z" />
    <glyph glyph-name="J" unicode="J" horiz-adv-x="2048" 
d="M70 946h372v-205q0 -254 114 -366.5t329 -112.5q471 0 471 508v2171h397v-2146q0 -321 -122 -517t-312.5 -276t-413.5 -80q-313 0 -501 117t-261 285t-73 331v291z" />
    <glyph glyph-name="K" unicode="K" horiz-adv-x="2732" 
d="M709 1032v-1032h-398v2941h398v-1425l1425 1425h549l-1225 -1188l1258 -1753h-516l-1029 1475z" />
    <glyph glyph-name="L" unicode="L" 
d="M709 2941v-2589h1491v-352h-1889v2941h398z" />
    <glyph glyph-name="M" unicode="M" horiz-adv-x="3412" 
d="M3117 0h-385v1737q0 20 4 296t4 437h-8l-827 -2470h-394l-827 2466h-8q0 -158 4 -433t4 -296v-1737h-385v2941h569l840 -2486h8l836 2486h565v-2941z" />
    <glyph glyph-name="N" unicode="N" horiz-adv-x="2957" 
d="M2261 565v2376h385v-2941h-446l-1495 2376h-9v-2376h-385v2941h471l1471 -2376h8z" />
    <glyph glyph-name="O" unicode="O" horiz-adv-x="3187" 
d="M2617 1470q0 347 -123.5 618.5t-356 424.5t-544.5 153t-544.5 -153t-356 -424.5t-123.5 -618.5t124 -619t357 -424.5t543 -152.5t543 152.5t357 424.5t124 619zM3027 1470q0 -259 -74 -527t-241.5 -500t-447 -376.5t-671.5 -144.5q-391 0 -670 144.5t-447.5 378.5
t-242 500t-73.5 525q0 260 73.5 526t242 500.5t448.5 378.5t669 144q390 0 671 -144t448 -376.5t241 -500.5t74 -528z" />
    <glyph glyph-name="P" unicode="P" horiz-adv-x="2732" 
d="M750 2601v-1020h790q598 0 598 528q0 492 -582 492h-806zM750 1241v-1241h-398v2941h1323q265 0 463.5 -106t304 -295t105.5 -426q0 -220 -89.5 -420t-286 -326.5t-497.5 -126.5h-925z" />
    <glyph glyph-name="Q" unicode="Q" horiz-adv-x="3187" 
d="M1720 606l201 246l373 -291q156 156 239.5 390t83.5 519q0 347 -123.5 618.5t-356 424.5t-544.5 153t-544.5 -153t-356 -424.5t-123.5 -618.5t124 -619t357 -424.5t543 -152.5q247 0 435 95zM3002 8l-200 -237l-451 348q-308 -197 -758 -197q-391 0 -670 144.5
t-447.5 378.5t-242 500t-73.5 525q0 260 73.5 526t242 500.5t448.5 378.5t669 144q390 0 671 -144t448 -376.5t241 -500.5t74 -528q0 -308 -104.5 -619.5t-321.5 -531.5z" />
    <glyph glyph-name="R" unicode="R" horiz-adv-x="2957" 
d="M758 1262v-1262h-398v2941h1360q421 0 694 -181t273 -610q0 -290 -112 -443.5t-298 -260.5q167 -69 254.5 -174.5t98.5 -378.5l24 -533q3 -128 31 -185.5t117 -108.5v-66h-488q-26 82 -41 226t-21.5 283.5t-6.5 227.5q0 235 -103.5 380t-421.5 145h-962zM758 2601v-999
h921q267 0 432.5 106t165.5 401q0 492 -528 492h-991z" />
    <glyph glyph-name="S" unicode="S" horiz-adv-x="2732" 
d="M2458 2081h-373q-10 213 -117 347.5t-269.5 192.5t-342.5 58q-155 0 -306 -40.5t-258.5 -155.5t-107.5 -320q0 -170 94.5 -252t253.5 -121l840 -193q668 -158 668 -786q0 -325 -172.5 -524t-433.5 -282t-545 -83q-361 0 -555 79t-334 204q-175 158 -237 335t-62 410h372
q0 -249 118 -403.5t301 -219.5t392 -65q294 0 532 108t238 388q0 155 -55.5 247t-186.5 152.5t-384 120.5l-602 139q-627 146 -627 692q0 241 108.5 448.5t337 334.5t566.5 127q469 0 721 -153.5t332.5 -356t93.5 -428.5z" />
    <glyph glyph-name="T" unicode="T" horiz-adv-x="2503" 
d="M57 2589v352h2388v-352h-995v-2589h-397v2589h-996z" />
    <glyph glyph-name="U" unicode="U" horiz-adv-x="2957" 
d="M2241 2941h397v-1909q0 -232 -72.5 -432t-219.5 -352.5t-373 -239t-519 -86.5q-377 0 -632 145t-376.5 385t-121.5 527v1962h397v-1851q0 -438 215.5 -627t529.5 -189q201 0 376.5 73t287 254t111.5 480v1860z" />
    <glyph glyph-name="V" unicode="V" horiz-adv-x="2732" 
d="M1372 434l832 2507h446l-1073 -2941h-422l-1073 2941h442l840 -2507h8z" />
    <glyph glyph-name="W" unicode="W" horiz-adv-x="3867" 
d="M1929 2437l-680 -2437h-418l-765 2941h430l548 -2392h9l659 2392h434l660 -2392h8l549 2392h438l-774 -2941h-418l-672 2437h-8z" />
    <glyph glyph-name="X" unicode="X" horiz-adv-x="2732" 
d="M1622 1507l1032 -1507h-491l-791 1208l-815 -1208h-479l1052 1507l-987 1434h500l746 -1126l745 1126h475z" />
    <glyph glyph-name="Y" unicode="Y" horiz-adv-x="2732" 
d="M1565 1184v-1184h-398v1184l-1110 1757h463l844 -1413l844 1413h467z" />
    <glyph glyph-name="Z" unicode="Z" horiz-adv-x="2503" 
d="M2408 352v-352h-2314v332l1802 2257h-1667v352h2179v-344l-1810 -2245h1810z" />
    <glyph glyph-name="bracketleft" unicode="[" horiz-adv-x="1139" 
d="M582 2666v-3178h442v-291h-766v3760h766v-291h-442z" />
    <glyph glyph-name="backslash" unicode="\" horiz-adv-x="1139" 
d="M934 -78l-1004 3097h271l1007 -3097h-274z" />
    <glyph glyph-name="bracketright" unicode="]" horiz-adv-x="1139" 
d="M557 -512v3178h-442v291h766v-3760h-766v291h442z" />
    <glyph glyph-name="asciicircum" unicode="^" horiz-adv-x="1921" 
d="M1978 1081h-315l-700 1409l-701 -1409h-319l872 1737h295z" />
    <glyph glyph-name="underscore" unicode="_" 
d="M2277 -512h-2277v205h2277v-205z" />
    <glyph glyph-name="grave" unicode="`" horiz-adv-x="1364" 
d="M590 2429l-533 577h443l364 -577h-274z" />
    <glyph glyph-name="a" unicode="a" 
d="M586 1491h-332q12 370 241 541.5t644 171.5q138 0 319 -42t328 -176t147 -380v-1233q0 -127 119 -127q37 0 119 16v-262q-40 -12 -66 -20t-61 -14.5t-70 -6.5q-215 0 -291.5 87t-89.5 241q-138 -152 -316.5 -250t-457.5 -98q-195 0 -348 77.5t-238.5 218.5t-85.5 322
q0 218 131 421t521 251l594 74q188 17 188 253q0 349 -504 349q-269 0 -367 -118.5t-124 -295.5zM1573 741v353q-48 -38 -167 -67t-427 -69q-122 -17 -218.5 -47t-168.5 -103.5t-72 -197.5q0 -372 389 -372q166 0 320.5 66.5t249 182.5t94.5 254z" />
    <glyph glyph-name="b" unicode="b" 
d="M578 0h-340v2941h360v-1069h8q226 326 619 332q277 0 479.5 -139.5t308 -384t105.5 -545.5q0 -290 -89.5 -561.5t-301 -453t-551.5 -181.5q-389 0 -590 327h-8v-266zM1745 1077q0 197 -35.5 368t-165.5 303t-385 132q-577 0 -577 -909q0 -383 182.5 -552t402.5 -169
q285 0 431.5 228.5t146.5 598.5z" />
    <glyph glyph-name="c" unicode="c" horiz-adv-x="2048" 
d="M1954 1421h-348q-72 459 -508 459q-308 0 -449 -238t-141 -569q0 -823 586 -823q186 0 326.5 134t185.5 374h348q-34 -320 -242 -569.5t-631 -249.5q-295 0 -511.5 137.5t-331.5 381t-115 554.5q0 342 112 611.5t343 425t573 155.5q263 0 438.5 -112t262 -289.5
t102.5 -381.5z" />
    <glyph glyph-name="d" unicode="d" 
d="M2044 2941v-2941h-340v295h-8q-191 -356 -611 -356q-339 0 -551 181.5t-301.5 453t-89.5 561.5q0 301 105.5 545.5t308 384t479.5 139.5q254 0 393 -105t246 -260l8 29v1073h361zM516 1077q0 -370 147.5 -598.5t430.5 -228.5q220 0 402.5 169t182.5 552q0 909 -577 909
q-364 0 -475 -240t-111 -563z" />
    <glyph glyph-name="e" unicode="e" 
d="M1724 672h361q-14 -115 -109 -291.5t-272 -294.5q-218 -147 -582 -147q-295 0 -511.5 137.5t-331.5 381t-115 554.5q0 342 112 611.5t343 425t573 155.5q303 0 510 -152.5t309.5 -435t102.5 -662.5h-1565q0 -339 158 -521.5t464 -182.5q157 0 281.5 68.5t195 168.5
t76.5 185zM549 1241h1192q-40 639 -598 639q-161 0 -298 -89.5t-216.5 -237t-79.5 -312.5z" />
    <glyph glyph-name="f" unicode="f" horiz-adv-x="1139" 
d="M1073 1843h-360v-1843h-361v1843h-295v299h295v369q0 471 557 471q50 0 164 -8v-324q-90 8 -147 8q-115 0 -164 -59t-49 -191v-266h360v-299z" />
    <glyph glyph-name="g" unicode="g" 
d="M537 1077q0 -370 146.5 -598.5t430.5 -228.5q220 0 403 169t183 552q0 909 -578 909q-255 0 -384.5 -131.5t-165 -303t-35.5 -368.5zM2044 2142v-1966q0 -182 -22.5 -343t-114.5 -332t-301.5 -286.5t-556.5 -115.5q-280 0 -527 133t-293 506h361q65 -340 483 -340
q212 0 339.5 72t184 183.5t71.5 231t15 267.5v90h-8v-17q-79 -126 -224 -206t-345 -80q-339 0 -551 181.5t-301.5 453t-89.5 561.5q0 301 105.5 545.5t308 384t479.5 139.5q254 0 393 -105t246 -260h8v303h340z" />
    <glyph glyph-name="h" unicode="h" 
d="M2011 1458v-1458h-360v1401q0 239 -91.5 359t-334.5 120q-253 0 -425.5 -169.5t-172.5 -543.5v-1167h-361v2941h361v-1086h8q262 349 627 349q189 0 357.5 -64.5t280 -230.5t111.5 -451z" />
    <glyph glyph-name="i" unicode="i" horiz-adv-x="909" 
d="M635 2142v-2142h-361v2142h361zM635 2531h-361v410h361v-410z" />
    <glyph glyph-name="j" unicode="j" horiz-adv-x="909" 
d="M635 2142v-2457q0 -223 -101.5 -384t-447.5 -161q-71 0 -152 12v311h74q117 0 169.5 16t74.5 71.5t22 175.5v2416h361zM635 2941v-410h-361v410h361z" />
    <glyph glyph-name="k" unicode="k" horiz-adv-x="2048" 
d="M1184 1343l868 -1343h-463l-667 1081l-299 -270v-811h-349v2941h349v-1704l921 905h459z" />
    <glyph glyph-name="l" unicode="l" horiz-adv-x="909" 
d="M635 2941v-2941h-361v2941h361z" />
    <glyph glyph-name="m" unicode="m" horiz-adv-x="3412" 
d="M266 0v2142h340v-303h8q248 365 648 365q250 0 370.5 -101.5t198.5 -247.5q113 127 193.5 195.5t192 111t269.5 42.5q143 0 294 -61t260.5 -222.5t109.5 -437.5v-1483h-361v1384q0 241 -89.5 368.5t-307.5 127.5q-217 0 -360.5 -174t-143.5 -399v-1307h-360v1483
q0 163 -77.5 280t-258.5 117q-124 0 -253 -63t-220.5 -223t-91.5 -427v-1167h-361z" />
    <glyph glyph-name="n" unicode="n" 
d="M2011 1458v-1458h-360v1319q0 292 -101.5 426.5t-357.5 134.5q-124 0 -253 -63t-220.5 -223t-91.5 -427v-1167h-361v2142h340v-303h8q248 365 648 365q189 0 357.5 -64.5t280 -230.5t111.5 -451z" />
    <glyph glyph-name="o" unicode="o" 
d="M143 1073q0 290 110 549t336.5 420.5t549.5 161.5t549 -161.5t336 -420.5t110 -549t-110 -548.5t-336 -420t-549 -161.5t-549.5 161.5t-336.5 420t-110 548.5zM516 1073q0 -176 53.5 -362.5t193 -321.5t376.5 -135q235 0 375 134t193.5 321.5t53.5 363.5t-53.5 363.5
t-193.5 321.5t-375 134q-237 0 -376.5 -135t-193 -321.5t-53.5 -362.5z" />
    <glyph glyph-name="p" unicode="p" 
d="M582 971q0 -383 182.5 -552t402.5 -169q285 0 431.5 228.5t146.5 598.5q0 197 -35.5 368t-165.5 303t-385 132q-577 0 -577 -909zM238 -848v2990h340v-303h8q106 153 245.5 259t393.5 106q277 0 479.5 -139.5t308 -384t105.5 -545.5q0 -290 -89.5 -561.5t-301 -453
t-551.5 -181.5q-200 0 -346 80.5t-224 205.5h-8v-1073h-360z" />
    <glyph glyph-name="q" unicode="q" 
d="M2023 2142v-2990h-360v1073h-8q-78 -125 -223 -205.5t-347 -80.5q-339 0 -551 181.5t-301.5 453t-89.5 561.5q0 301 105.5 545.5t308 384t479.5 139.5q254 0 393 -105t246 -260h8v303h340zM1679 971q0 909 -577 909q-364 0 -475 -240t-111 -563q0 -370 147.5 -598.5
t430.5 -228.5q220 0 402.5 169t182.5 552z" />
    <glyph glyph-name="r" unicode="r" horiz-adv-x="1364" 
d="M676 1245v-1245h-361v2142h340v-356h9q239 418 602 418q52 0 94 -13v-372h-135q-244 0 -396.5 -167t-152.5 -407z" />
    <glyph glyph-name="s" unicode="s" horiz-adv-x="2048" 
d="M1831 1532h-348q-11 360 -508 360q-143 0 -284.5 -65t-141.5 -238q0 -86 38.5 -136t117 -81t233.5 -69l360 -91q331 -81 467 -212t136 -353q0 -216 -110 -376.5t-302.5 -246t-435.5 -85.5q-386 0 -589 122t-263.5 282t-69.5 345h348q15 -185 126 -311.5t444 -126.5
q209 0 350 85.5t141 254.5q0 86 -41.5 138.5t-128.5 89t-256 79.5l-418 102q-495 123 -495 521q0 225 111 379.5t295 229.5t405 75q345 0 527 -131.5t237 -283.5t55 -257z" />
    <glyph glyph-name="t" unicode="t" horiz-adv-x="1139" 
d="M1053 1843h-344v-1392q0 -109 63 -138.5t154 -29.5h127v-283q-80 -7 -164 -18t-107 -11q-247 0 -340.5 120.5t-93.5 338.5v1413h-291v299h291v598h361v-598h344v-299z" />
    <glyph glyph-name="u" unicode="u" 
d="M2003 0h-340v311l-8 8q-120 -195 -276 -287.5t-404 -92.5q-282 0 -489 156.5t-207 506.5v1540h360v-1421q0 -471 414 -471q212 0 344 107t188.5 270t56.5 336v1179h361v-2142z" />
    <glyph glyph-name="v" unicode="v" horiz-adv-x="2048" 
d="M1016 397l606 1745h393l-815 -2142h-385l-782 2142h418l557 -1745h8z" />
    <glyph glyph-name="w" unicode="w" horiz-adv-x="2957" 
d="M1466 1659l-417 -1659h-373l-619 2142h394l409 -1683h8l414 1683h401l418 -1683h8l435 1683h360l-623 -2142h-372l-434 1659h-9z" />
    <glyph glyph-name="x" unicode="x" horiz-adv-x="2048" 
d="M1253 1102l754 -1102h-459l-532 807l-516 -807h-455l754 1102l-717 1040h463l495 -753l496 753h442z" />
    <glyph glyph-name="y" unicode="y" horiz-adv-x="2048" 
d="M1032 397l574 1745h397q-94 -263 -176 -493.5t-172.5 -481.5t-221.5 -601t-200 -525q-144 -369 -220.5 -534t-153.5 -250t-175 -109.5t-291 -24.5q-33 0 -151 33v328q104 -37 217 -37q96 0 146 31.5t95.5 126.5t139.5 338l-795 2199h410l569 -1745h8z" />
    <glyph glyph-name="z" unicode="z" horiz-adv-x="2048" 
d="M1884 1847l-1278 -1548h1315v-299h-1794v283l1290 1560h-1192v299h1659v-295z" />
    <glyph glyph-name="braceleft" unicode="{" horiz-adv-x="1368" 
d="M172 958v246q142 0 237 149t95 371v705q0 160 59.5 281t155.5 184t203 63h274v-266h-180q-189 0 -189 -336v-696q-11 -182 -77.5 -307t-146.5 -189t-136 -78v-8q59 -18 137.5 -78.5t145 -186.5t77.5 -320v-693q0 -336 189 -336h180v-266h-274q-167 0 -292.5 144.5
t-125.5 384.5v700q0 230 -95 381t-237 151z" />
    <glyph glyph-name="bar" unicode="|" horiz-adv-x="1065" 
d="M385 -78v3097h299v-3097h-299z" />
    <glyph glyph-name="braceright" unicode="}" horiz-adv-x="1368" 
d="M1196 1204v-246q-92 0 -168.5 -69t-120 -191t-43.5 -272v-700q0 -240 -125.5 -384.5t-292.5 -144.5h-274v266h180q189 0 189 336v693q15 274 134 414t226 171v8q-102 27 -223.5 171t-136.5 403v696q0 336 -189 336h-180v266h274q167 0 292.5 -143.5t125.5 -384.5v-705
q0 -223 95 -371.5t237 -148.5z" />
    <glyph glyph-name="asciitilde" unicode="~" horiz-adv-x="2392" 
d="M1995 1335l147 -229q-220 -352 -512 -352q-170 0 -418 135q-253 143 -471 143q-209 0 -344 -295l-147 230q184 352 512 352q159 0 455 -131q321 -148 417 -148q110 0 187.5 75t173.5 220z" />
    <glyph glyph-name="sterling" unicode="&#xa3;" horiz-adv-x="2048" 
d="M70 946h372v-205q0 -254 114 -366.5t329 -112.5q471 0 471 508v2171h397v-2146q0 -321 -122 -517t-312.5 -276t-413.5 -80q-313 0 -501 117t-261 285t-73 331v291z" />
    <glyph glyph-name="section" unicode="&#xa4;" 
d="M1966 2470l197 -197l-226 -221q101 -116 153 -276.5t52 -337.5q0 -367 -205 -619l222 -229l-185 -184l-225 237q-244 -225 -610 -225q-367 0 -611 225l-225 -237l-184 184l221 229q-205 254 -205 619q0 172 51.5 333.5t153.5 280.5l-225 221l196 197l234 -229
q239 208 594 208q354 0 594 -208zM434 1438q0 -196 94.5 -364.5t256.5 -268.5t354 -100q193 0 354.5 100.5t255.5 269t94 363.5q0 189 -94.5 356.5t-256.5 268t-353 100.5t-353 -100.5t-257 -267.5t-95 -357z" />
    <glyph glyph-name="paragraph" unicode="&#xa6;" horiz-adv-x="1065" 
d="M385 -78v1204h299v-1204h-299zM385 1884v1135h299v-1135h-299z" />
    <glyph glyph-name="germandbls" unicode="&#xa7;" 
d="M1884 2269h-348q-11 176 -85.5 307t-320.5 131q-143 0 -259.5 -82t-116.5 -249q0 -106 74 -191.5t225 -177.5l598 -352q217 -129 331.5 -277t114.5 -379q0 -234 -114 -383.5t-308 -271.5q106 -111 159.5 -216.5t53.5 -250.5q0 -201 -109 -351t-281 -229t-351 -79
q-237 0 -419 81t-285 253.5t-103 435.5h360q0 -169 79 -314t319 -145q163 0 296.5 73.5t133.5 266.5q0 175 -225 324l-861 573q-148 99 -207 237.5t-59 262.5q0 242 104.5 386t305.5 261q-108 117 -150.5 204t-42.5 205q0 166 76.5 326t243 265.5t417.5 105.5
q188 0 358 -66.5t283 -234.5t113 -449zM1503 1315l-712 438q-275 -141 -275 -397q0 -237 184 -348l775 -500q140 91 211 182t71 232q0 236 -254 393z" />
    <glyph glyph-name="registered" unicode="&#xa8;" horiz-adv-x="2732" 
d="M2482 0h-2171v2941h2143v-352h-1745v-901h1609v-353h-1609v-983h1773v-352zM1262 3273h-373v417h373v-417zM1925 3273h-373v417h373v-417z" />
    <glyph glyph-name="copyright" unicode="&#xa9;" horiz-adv-x="3019" 
d="M1516 -78q-317 0 -602 115t-505 326.5t-343 497t-123 614.5q0 433 213.5 787.5t576 555.5t783.5 201q312 0 598.5 -116t503.5 -325t339.5 -492.5t122.5 -610.5q0 -329 -122 -614t-341 -497t-503 -327t-598 -115zM254 1475q0 -365 166.5 -662t456.5 -465t639 -168
q345 0 633 168t454 465t166 662q0 273 -95.5 507.5t-268 410t-400.5 272t-489 96.5q-263 0 -492.5 -96t-404 -272.5t-270 -412.5t-95.5 -505zM2052 1184h279q-39 -201 -147.5 -350.5t-268 -229.5t-346.5 -80q-271 0 -479.5 125.5t-321.5 344t-113 485.5q0 274 108.5 488
t312.5 336t476 122q198 0 365 -75t275 -221t135 -347h-275q-24 110 -93 195.5t-172 131t-231 45.5q-187 0 -320.5 -87t-201 -238t-67.5 -346q0 -187 73.5 -344.5t210.5 -250.5t318 -93q192 0 324 108t159 281z" />
    <glyph glyph-name="acute" unicode="&#xab;" 
d="M1040 803v-361l-643 504v377l643 504v-361l-430 -331zM1880 803v-361l-643 504v377l643 504v-361l-430 -331z" />
    <glyph glyph-name="dieresis" unicode="&#xac;" horiz-adv-x="2392" 
d="M1933 442v856h-1773v299h2072v-1155h-299z" />
    <glyph glyph-name="notequal" unicode="&#xad;" horiz-adv-x="1364" 
d="M1323 2802v-234h-1282v234h1282z" />
    <glyph glyph-name="AE" unicode="&#xae;" horiz-adv-x="3019" 
d="M1516 -78q-317 0 -602 115t-505 326.5t-343 497t-123 614.5q0 433 213.5 787.5t576 555.5t783.5 201q312 0 598.5 -116t503.5 -325t339.5 -492.5t122.5 -610.5q0 -329 -122 -614t-341 -497t-503 -327t-598 -115zM254 1475q0 -365 166.5 -662t456.5 -465t639 -168
q345 0 633 168t454 465t166 662q0 273 -95.5 507.5t-268 410t-400.5 272t-489 96.5q-263 0 -492.5 -96t-404 -272.5t-270 -412.5t-95.5 -505zM1188 1352v-774h-270v1785h679q320 0 475.5 -122.5t155.5 -385.5q0 -433 -463 -491l508 -786h-303l-471 774h-311zM1188 1581h323
q139 0 230 17.5t148 81.5t57 192q0 262 -390 262h-368v-553z" />
    <glyph glyph-name="Oslash" unicode="&#xaf;" horiz-adv-x="1139" 
d="M770 2941v-2941h-397v2941h397zM426 3690v-417h-373v417h373zM1090 3690v-417h-373v417h373z" />
    <glyph glyph-name="infinity" unicode="&#xb0;" horiz-adv-x="1638" 
d="M819 2703q-161 0 -281 -128t-120 -294q0 -165 120 -293t281 -128q107 0 199.5 60t147.5 156t55 205q0 108 -55 205t-147 157t-200 60zM1417 2281q0 -255 -171.5 -426.5t-426.5 -171.5q-254 0 -426 172t-172 426q0 255 171.5 426.5t426.5 171.5q169 0 305.5 -78
t214.5 -214.5t78 -305.5z" />
    <glyph glyph-name="plusminus" unicode="&#xb1;" horiz-adv-x="2392" 
d="M1049 1413v660h299v-660h884v-299h-884v-659h-299v659h-889v299h889zM160 0v299h2072v-299h-2072z" />
    <glyph glyph-name="lessequal" unicode="&#xb2;" horiz-adv-x="1139" 
d="M770 2941v-2941h-397v2941h397z" />
    <glyph glyph-name="greaterequal" unicode="&#xb3;" horiz-adv-x="909" 
d="M635 2142v-2142h-361v2142h361zM635 2531h-361v410h361v-410z" />
    <glyph glyph-name="mu" unicode="&#xb5;" 
d="M2003 0h-340v311l-8 8q-120 -195 -276 -287.5t-404 -92.5q-222 0 -328 139h-8v-926h-360v1450v1540h360v-1421q0 -471 414 -471q212 0 344 107t188.5 270t56.5 336v1179h361v-2142z" />
    <glyph glyph-name="partialdiff" unicode="&#xb6;" horiz-adv-x="2200" 
d="M950 -709v2118q-256 0 -456 99t-310 272t-110 383q0 393 250 585.5t696 192.5h1016v-3650h-299v3404h-488v-3404h-299z" />
    <glyph glyph-name="summation" unicode="&#xb7;" horiz-adv-x="1139" 
d="M573 1290q99 0 176.5 -75t77.5 -183q0 -101 -74.5 -177.5t-183.5 -76.5q-103 0 -178.5 76.5t-75.5 177.5q0 111 76.5 184.5t181.5 73.5z" />
    <glyph glyph-name="product" unicode="&#xb8;" 
d="M995 2474h-372v418h372v-418zM1659 2474h-373v418h373v-418zM2085 672q-14 -115 -109 -291.5t-272 -294.5q-218 -147 -582 -147q-295 0 -511.5 137.5t-331.5 381t-115 554.5q0 342 112 611.5t343 425t573 155.5q303 0 510 -152.5t309.5 -435t102.5 -662.5h-1565
q0 -339 158 -521.5t464 -182.5q157 0 281.5 68.5t195 168.5t76.5 185h361zM1741 1241q-40 639 -598 639q-161 0 -298 -89.5t-216.5 -237t-79.5 -312.5h1192z" />
    <glyph glyph-name="pi" unicode="&#xb9;" horiz-adv-x="1495" 
d="M1397 2339q0 -364 -189.5 -522t-457.5 -158q-269 0 -458.5 158t-189.5 522t189.5 522t458.5 158q268 0 457.5 -158t189.5 -522zM1122 2339q0 179 -79 323t-293 144t-293.5 -144t-79.5 -323t80 -323t293 -144q148 0 231 75.5t112 179.5t29 212zM143 1442h1213v-197h-1213
v197z" />
    <glyph glyph-name="ordfeminine" unicode="&#xbb;" 
d="M1040 946l-643 -504v361l430 332l-430 331v361l643 -504v-377zM1880 946l-643 -504v361l430 332l-430 331v361l643 -504v-377z" />
    <glyph glyph-name="ordmasculine" unicode="&#xbc;" horiz-adv-x="909" 
d="M635 2142v-2457q0 -223 -101.5 -384t-447.5 -161q-71 0 -152 12v311h74q117 0 169.5 16t74.5 71.5t22 175.5v2416h361zM635 2941v-410h-361v410h361z" />
    <glyph glyph-name="Omega" unicode="&#xbd;" horiz-adv-x="2732" 
d="M2458 2081h-373q-10 213 -117 347.5t-269.5 192.5t-342.5 58q-155 0 -306 -40.5t-258.5 -155.5t-107.5 -320q0 -170 94.5 -252t253.5 -121l840 -193q668 -158 668 -786q0 -325 -172.5 -524t-433.5 -282t-545 -83q-361 0 -555 79t-334 204q-175 158 -237 335t-62 410h372
q0 -249 118 -403.5t301 -219.5t392 -65q294 0 532 108t238 388q0 155 -55.5 247t-186.5 152.5t-384 120.5l-602 139q-627 146 -627 692q0 241 108.5 448.5t337 334.5t566.5 127q469 0 721 -153.5t332.5 -356t93.5 -428.5z" />
    <glyph glyph-name="ae" unicode="&#xbe;" horiz-adv-x="2048" 
d="M1831 1532h-348q-11 360 -508 360q-143 0 -284.5 -65t-141.5 -238q0 -86 38.5 -136t117 -81t233.5 -69l360 -91q331 -81 467 -212t136 -353q0 -216 -110 -376.5t-302.5 -246t-435.5 -85.5q-386 0 -589 122t-263.5 282t-69.5 345h348q15 -185 126 -311.5t444 -126.5
q209 0 350 85.5t141 254.5q0 86 -41.5 138.5t-128.5 89t-256 79.5l-418 102q-495 123 -495 521q0 225 111 379.5t295 229.5t405 75q345 0 527 -131.5t237 -283.5t55 -257z" />
    <glyph glyph-name="oslash" unicode="&#xbf;" horiz-adv-x="1139" 
d="M750 2142v-2142h-361v2142h361zM426 2892v-418h-373v418h373zM1090 2892v-418h-373v418h373z" />
    <glyph glyph-name="questiondown" unicode="&#xc0;" horiz-adv-x="2732" 
d="M770 856l-307 -856h-410l1106 2941h451l1065 -2941h-434l-291 856h-1180zM1806 1208l-434 1295h-8l-471 -1295h913z" />
    <glyph glyph-name="questiondown" unicode="&#x410;" horiz-adv-x="2732" 
d="M770 856l-307 -856h-410l1106 2941h451l1065 -2941h-434l-291 856h-1180zM1806 1208l-434 1295h-8l-471 -1295h913z" />
    <glyph glyph-name="exclamdown" unicode="&#xc1;" horiz-adv-x="2732" 
d="M709 2589v-889h970q231 0 403 -71t280.5 -194t159 -276.5t50.5 -322.5q0 -231 -125 -423t-332 -302.5t-436 -110.5h-1368v2941h2073v-352h-1675zM709 340h872q265 0 423.5 120.5t158.5 379.5q0 288 -154.5 404t-443.5 116h-856v-1020z" />
    <glyph glyph-name="exclamdown" unicode="&#x411;" horiz-adv-x="2732" 
d="M709 2589v-889h970q231 0 403 -71t280.5 -194t159 -276.5t50.5 -322.5q0 -231 -125 -423t-332 -302.5t-436 -110.5h-1368v2941h2073v-352h-1675zM709 340h872q265 0 423.5 120.5t158.5 379.5q0 288 -154.5 404t-443.5 116h-856v-1020z" />
    <glyph glyph-name="logicalnot" unicode="&#xc2;" horiz-adv-x="2732" 
d="M311 2941h1295q265 0 452.5 -99.5t283 -267.5t95.5 -374q0 -430 -393 -615q231 -94 381.5 -241t150.5 -476q0 -240 -115.5 -437.5t-343.5 -314t-540 -116.5h-1266v2941zM709 1696h716q302 0 458.5 108t156.5 367q0 213 -144 321.5t-466 108.5h-721v-905zM709 340h847
q305 0 464 143t159 394q0 495 -688 495h-782v-1032z" />
    <glyph glyph-name="logicalnot" unicode="&#x412;" horiz-adv-x="2732" 
d="M311 2941h1295q265 0 452.5 -99.5t283 -267.5t95.5 -374q0 -430 -393 -615q231 -94 381.5 -241t150.5 -476q0 -240 -115.5 -437.5t-343.5 -314t-540 -116.5h-1266v2941zM709 1696h716q302 0 458.5 108t156.5 367q0 213 -144 321.5t-466 108.5h-721v-905zM709 340h847
q305 0 464 143t159 394q0 495 -688 495h-782v-1032z" />
    <glyph glyph-name="radical" unicode="&#xc3;" 
d="M709 4h-398v2937h1930v-352h-1532v-2585z" />
    <glyph glyph-name="radical" unicode="&#x413;" 
d="M709 4h-398v2937h1930v-352h-1532v-2585z" />
    <glyph glyph-name="florin" unicode="&#xc4;" horiz-adv-x="2732" 
d="M430 0v-549h-360v901h196q105 171 149 357t44 438v1794h1962v-2589h225v-901h-360v549h-1856zM643 352h1380v2237h-1187v-1442q0 -452 -193 -795z" />
    <glyph glyph-name="florin" unicode="&#x414;" horiz-adv-x="2732" 
d="M430 0v-549h-360v901h196q105 171 149 357t44 438v1794h1962v-2589h225v-901h-360v549h-1856zM643 352h1380v2237h-1187v-1442q0 -452 -193 -795z" />
    <glyph glyph-name="approxequal" unicode="&#xc5;" horiz-adv-x="2732" 
d="M2482 0h-2171v2941h2143v-352h-1745v-901h1609v-353h-1609v-983h1773v-352z" />
    <glyph glyph-name="approxequal" unicode="&#x415;" horiz-adv-x="2732" 
d="M2482 0h-2171v2941h2143v-352h-1745v-901h1609v-353h-1609v-983h1773v-352z" />
    <glyph glyph-name="Delta" unicode="&#xc6;" horiz-adv-x="4092" 
d="M2253 0h-398v1032l-364 418l-909 -1450h-516l1138 1729l-1106 1212h549l1208 -1425v1425h398v-1425l1208 1425h549l-1106 -1212l1139 -1729h-516l-910 1450l-364 -418v-1032z" />
    <glyph glyph-name="Delta" unicode="&#x416;" horiz-adv-x="4092" 
d="M2253 0h-398v1032l-364 418l-909 -1450h-516l1138 1729l-1106 1212h549l1208 -1425v1425h398v-1425l1208 1425h549l-1106 -1212l1139 -1729h-516l-910 1450l-364 -418v-1032z" />
    <glyph glyph-name="guillemotleft" unicode="&#xc7;" horiz-adv-x="2732" 
d="M1331 1700q281 0 503 118.5t222 335.5q0 297 -211.5 407t-484.5 110q-300 0 -519.5 -142t-234.5 -456h-373q0 199 102.5 413.5t366 369.5t703.5 155q298 0 536.5 -104t371 -293t132.5 -431q0 -279 -171.5 -426.5t-368.5 -187.5q148 -24 297.5 -113.5t251.5 -242.5
t102 -353q0 -312 -168.5 -525t-434 -313t-560.5 -100q-373 0 -618.5 112.5t-373 279.5t-174.5 334.5t-47 301.5h373q0 -366 240 -527t596 -161q170 0 348 61.5t297.5 193t119.5 327.5q0 294 -248.5 421.5t-602.5 127.5q-177 0 -291 -9v324q106 -8 319 -8z" />
    <glyph glyph-name="guillemotleft" unicode="&#x417;" horiz-adv-x="2732" 
d="M1331 1700q281 0 503 118.5t222 335.5q0 297 -211.5 407t-484.5 110q-300 0 -519.5 -142t-234.5 -456h-373q0 199 102.5 413.5t366 369.5t703.5 155q298 0 536.5 -104t371 -293t132.5 -431q0 -279 -171.5 -426.5t-368.5 -187.5q148 -24 297.5 -113.5t251.5 -242.5
t102 -353q0 -312 -168.5 -525t-434 -313t-560.5 -100q-373 0 -618.5 112.5t-373 279.5t-174.5 334.5t-47 301.5h373q0 -366 240 -527t596 -161q170 0 348 61.5t297.5 193t119.5 327.5q0 294 -248.5 421.5t-602.5 127.5q-177 0 -291 -9v324q106 -8 319 -8z" />
    <glyph glyph-name="guillemotright" unicode="&#xc8;" horiz-adv-x="2957" 
d="M696 565h9l1470 2376h471v-2941h-385v2376h-8l-1495 -2376h-447v2941h385v-2376z" />
    <glyph glyph-name="guillemotright" unicode="&#x418;" horiz-adv-x="2957" 
d="M696 565h9l1470 2376h471v-2941h-385v2376h-8l-1495 -2376h-447v2941h385v-2376z" />
    <glyph glyph-name="ellipsis" unicode="&#xc9;" horiz-adv-x="2957" 
d="M696 565h9l1470 2376h471v-2941h-385v2376h-8l-1495 -2376h-447v2941h385v-2376zM2118 3469q-63 -557 -652 -557q-548 0 -610 557h201q46 -140 98 -196q112 -127 344 -127q215 0 298 90t124 233h197z" />
    <glyph glyph-name="ellipsis" unicode="&#x419;" horiz-adv-x="2957" 
d="M696 565h9l1470 2376h471v-2941h-385v2376h-8l-1495 -2376h-447v2941h385v-2376zM2118 3469q-63 -557 -652 -557q-548 0 -610 557h201q46 -140 98 -196q112 -127 344 -127q215 0 298 90t124 233h197z" />
    <glyph glyph-name="nonbreakingspace" unicode="&#xca;" horiz-adv-x="2732" 
d="M709 0h-398v2941h398v-1425l1425 1425h549l-1225 -1188l1258 -1753h-516l-1029 1475l-462 -443v-1032z" />
    <glyph glyph-name="nonbreakingspace" unicode="&#x41a;" horiz-adv-x="2732" 
d="M709 0h-398v2941h398v-1425l1425 1425h549l-1225 -1188l1258 -1753h-516l-1029 1475l-462 -443v-1032z" />
    <glyph glyph-name="Agrave" unicode="&#xcb;" horiz-adv-x="2732" 
d="M840 2589v-1794q0 -343 -111 -532t-282.5 -254.5t-389.5 -65.5v356q239 0 322.5 128t83.5 368v2146h1966v-2941h-397v2589h-1192z" />
    <glyph glyph-name="Agrave" unicode="&#x41b;" horiz-adv-x="2732" 
d="M840 2589v-1794q0 -343 -111 -532t-282.5 -254.5t-389.5 -65.5v356q239 0 322.5 128t83.5 368v2146h1966v-2941h-397v2589h-1192z" />
    <glyph glyph-name="Atilde" unicode="&#xcc;" horiz-adv-x="3412" 
d="M2744 0v1737q0 251 3.5 450.5t5.5 282.5h-9l-827 -2470h-393l-828 2466h-8q8 0 8 -729v-1737h-385v2941h570l839 -2486h9l835 2486h565v-2941h-385z" />
    <glyph glyph-name="Atilde" unicode="&#x41c;" horiz-adv-x="3412" 
d="M2744 0v1737q0 251 3.5 450.5t5.5 282.5h-9l-827 -2470h-393l-828 2466h-8q8 0 8 -729v-1737h-385v2941h570l839 -2486h9l835 2486h565v-2941h-385z" />
    <glyph glyph-name="Otilde" unicode="&#xcd;" horiz-adv-x="2957" 
d="M2245 2941h397v-2941h-397v1372h-1536v-1372h-398v2941h398v-1217h1536v1217z" />
    <glyph glyph-name="Otilde" unicode="&#x41d;" horiz-adv-x="2957" 
d="M2245 2941h397v-2941h-397v1372h-1536v-1372h-398v2941h398v-1217h1536v1217z" />
    <glyph glyph-name="OE" unicode="&#xce;" horiz-adv-x="3187" 
d="M1593 -78q-390 0 -668 144.5t-443.5 377t-237.5 499t-72 527.5q0 262 72 528.5t237 499t444 377t668 144.5q390 0 668.5 -143.5t444 -377t237.5 -500t72 -528.5q0 -261 -72 -527.5t-238 -499.5t-443.5 -377t-668.5 -144zM1593 2666q-312 0 -544.5 -153t-356 -424.5
t-123.5 -618.5t124 -619t357 -424.5t543 -152.5t543 152.5t357 424.5t124 619t-123.5 618.5t-356 424.5t-544.5 153z" />
    <glyph glyph-name="OE" unicode="&#x41e;" horiz-adv-x="3187" 
d="M1593 -78q-390 0 -668 144.5t-443.5 377t-237.5 499t-72 527.5q0 262 72 528.5t237 499t444 377t668 144.5q390 0 668.5 -143.5t444 -377t237.5 -500t72 -528.5q0 -261 -72 -527.5t-238 -499.5t-443.5 -377t-668.5 -144zM1593 2666q-312 0 -544.5 -153t-356 -424.5
t-123.5 -618.5t124 -619t357 -424.5t543 -152.5t543 152.5t357 424.5t124 619t-123.5 618.5t-356 424.5t-544.5 153z" />
    <glyph glyph-name="oe" unicode="&#xcf;" horiz-adv-x="2957" 
d="M2642 2941v-2941h-397v2589h-1536v-2589h-398v2941h2331z" />
    <glyph glyph-name="oe" unicode="&#x41f;" horiz-adv-x="2957" 
d="M2642 2941v-2941h-397v2589h-1536v-2589h-398v2941h2331z" />
    <glyph glyph-name="emdash" unicode="&#xd0;" horiz-adv-x="2732" 
d="M709 -4h-398v2941h1368q265 0 463.5 -106t304 -295.5t105.5 -426.5q0 -352 -215.5 -612t-657.5 -260h-970v-1241zM709 1577h835q598 0 598 528q0 492 -581 492h-852v-1020z" />
    <glyph glyph-name="emdash" unicode="&#x420;" horiz-adv-x="2732" 
d="M709 -4h-398v2941h1368q265 0 463.5 -106t304 -295.5t105.5 -426.5q0 -352 -215.5 -612t-657.5 -260h-970v-1241zM709 1577h835q598 0 598 528q0 492 -581 492h-852v-1020z" />
    <glyph glyph-name="endash" unicode="&#xd1;" horiz-adv-x="2957" 
d="M2376 2056q-74 345 -309.5 477.5t-514.5 132.5q-272 0 -490.5 -133t-345 -396.5t-126.5 -637.5q0 -562 229.5 -893.5t745.5 -331.5q157 0 324 66t310 246.5t205 494.5h385q-73 -498 -321.5 -756.5t-504.5 -330.5t-460 -72q-261 0 -496 88.5t-422.5 277.5t-296 490
t-108.5 709q0 340 94 622t272.5 485.5t433.5 314t572 110.5q360 0 624 -133.5t409.5 -353.5t175.5 -476h-385z" />
    <glyph glyph-name="endash" unicode="&#x421;" horiz-adv-x="2957" 
d="M2376 2056q-74 345 -309.5 477.5t-514.5 132.5q-272 0 -490.5 -133t-345 -396.5t-126.5 -637.5q0 -562 229.5 -893.5t745.5 -331.5q157 0 324 66t310 246.5t205 494.5h385q-73 -498 -321.5 -756.5t-504.5 -330.5t-460 -72q-261 0 -496 88.5t-422.5 277.5t-296 490
t-108.5 709q0 340 94 622t272.5 485.5t433.5 314t572 110.5q360 0 624 -133.5t409.5 -353.5t175.5 -476h-385z" />
    <glyph glyph-name="quotedblleft" unicode="&#xd2;" horiz-adv-x="2503" 
d="M57 2941h2388v-352h-995v-2589h-397v2589h-996v352z" />
    <glyph glyph-name="quotedblleft" unicode="&#x422;" horiz-adv-x="2503" 
d="M57 2941h2388v-352h-995v-2589h-397v2589h-996v352z" />
    <glyph glyph-name="quotedblright" unicode="&#xd3;" horiz-adv-x="2732" 
d="M1065 -49q-45 -12 -131 -12q-135 6 -266 45v364q100 -57 200 -57q158 0 230 143l176 352l-1204 2155h495l922 -1720l745 1720h455l-1212 -2593q-166 -343 -410 -397z" />
    <glyph glyph-name="quotedblright" unicode="&#x423;" horiz-adv-x="2732" 
d="M1065 -49q-45 -12 -131 -12q-135 6 -266 45v364q100 -57 200 -57q158 0 230 143l176 352l-1204 2155h495l922 -1720l745 1720h455l-1212 -2593q-166 -343 -410 -397z" />
    <glyph glyph-name="quoteleft" unicode="&#xd4;" horiz-adv-x="3412" 
d="M1905 2634q334 0 592 -94t429.5 -257t257 -373t85.5 -440t-85 -439.5t-258 -374.5t-429 -259t-592 -94v-303h-394v303q-335 0 -592 94t-429 258.5t-257.5 374t-85.5 440.5t86.5 441.5t257.5 374t428.5 258t591.5 94.5v303h394v-307zM1905 2327v-1713q282 0 497 89.5
t336 282.5t121 484q0 292 -121 485t-336 282.5t-497 89.5zM1511 614v1713q-281 0 -496 -89.5t-336.5 -282t-121.5 -485.5q0 -292 121.5 -484.5t336.5 -282t496 -89.5z" />
    <glyph glyph-name="quoteleft" unicode="&#x424;" horiz-adv-x="3412" 
d="M1905 2634q334 0 592 -94t429.5 -257t257 -373t85.5 -440t-85 -439.5t-258 -374.5t-429 -259t-592 -94v-303h-394v303q-335 0 -592 94t-429 258.5t-257.5 374t-85.5 440.5t86.5 441.5t257.5 374t428.5 258t591.5 94.5v303h394v-307zM1905 2327v-1713q282 0 497 89.5
t336 282.5t121 484q0 292 -121 485t-336 282.5t-497 89.5zM1511 614v1713q-281 0 -496 -89.5t-336.5 -282t-121.5 -485.5q0 -292 121.5 -484.5t336.5 -282t496 -89.5z" />
    <glyph glyph-name="quoteright" unicode="&#xd5;" horiz-adv-x="2732" 
d="M2654 0h-491l-803 1208l-803 -1208h-479l1040 1507l-987 1434h500l741 -1126l754 1126h475l-995 -1434z" />
    <glyph glyph-name="quoteright" unicode="&#x425;" horiz-adv-x="2732" 
d="M2654 0h-491l-803 1208l-803 -1208h-479l1040 1507l-987 1434h500l741 -1126l754 1126h475l-995 -1434z" />
    <glyph glyph-name="divide" unicode="&#xd6;" horiz-adv-x="2957" 
d="M2507 0h-2196v2941h398v-2589h1536v2589h397v-2589h225v-901h-360v549z" />
    <glyph glyph-name="divide" unicode="&#x426;" horiz-adv-x="2957" 
d="M2507 0h-2196v2941h398v-2589h1536v2589h397v-2589h225v-901h-360v549z" />
    <glyph glyph-name="lozenge" unicode="&#xd7;" horiz-adv-x="2957" 
d="M2245 2941h397v-2941h-397v1372q-141 -58 -450 -145.5t-632 -87.5q-379 0 -615.5 181t-236.5 613v1008h398v-971q0 -450 569 -450q274 0 554.5 76.5t412.5 127.5v1217z" />
    <glyph glyph-name="lozenge" unicode="&#x427;" horiz-adv-x="2957" 
d="M2245 2941h397v-2941h-397v1372q-141 -58 -450 -145.5t-632 -87.5q-379 0 -615.5 181t-236.5 613v1008h398v-971q0 -450 569 -450q274 0 554.5 76.5t412.5 127.5v1217z" />
    <glyph glyph-name="ydieresis" unicode="&#xd8;" horiz-adv-x="3490" 
d="M1925 352h823v2589h398v-2941h-2835v2941h398v-2589h819v2589h397v-2589z" />
    <glyph glyph-name="ydieresis" unicode="&#x428;" horiz-adv-x="3490" 
d="M1925 352h823v2589h398v-2941h-2835v2941h398v-2589h819v2589h397v-2589z" />
    <glyph glyph-name="Ydieresis" unicode="&#xd9;" horiz-adv-x="3490" 
d="M3011 0h-2700v2941h398v-2589h819v2589h397v-2589h823v2589h398v-2589h225v-901h-360v549z" />
    <glyph glyph-name="Ydieresis" unicode="&#x429;" horiz-adv-x="3490" 
d="M3011 0h-2700v2941h398v-2589h819v2589h397v-2589h823v2589h398v-2589h225v-901h-360v549z" />
    <glyph glyph-name="fraction" unicode="&#xda;" horiz-adv-x="2957" 
d="M934 1700h971q301 0 497.5 -127t285.5 -327t89 -419q0 -236 -108.5 -425t-307.5 -295.5t-456 -106.5h-1368v2605h-541v336h938v-1241zM934 340h852q581 0 581 491q0 529 -598 529h-835v-1020z" />
    <glyph glyph-name="fraction" unicode="&#x42a;" horiz-adv-x="2957" 
d="M934 1700h971q301 0 497.5 -127t285.5 -327t89 -419q0 -236 -108.5 -425t-307.5 -295.5t-456 -106.5h-1368v2605h-541v336h938v-1241zM934 340h852q581 0 581 491q0 529 -598 529h-835v-1020z" />
    <glyph glyph-name="currency" unicode="&#xdb;" horiz-adv-x="3564" 
d="M709 1700h925q301 0 497.5 -126.5t286 -326.5t89.5 -420q0 -237 -105.5 -426t-304 -295t-463.5 -106h-1323v2941h398v-1241zM3252 0h-397v2941h397v-2941zM709 340h807q581 0 581 491q0 529 -598 529h-790v-1020z" />
    <glyph glyph-name="currency" unicode="&#x42b;" horiz-adv-x="3564" 
d="M709 1700h925q301 0 497.5 -126.5t286 -326.5t89.5 -420q0 -237 -105.5 -426t-304 -295t-463.5 -106h-1323v2941h398v-1241zM3252 0h-397v2941h397v-2941zM709 340h807q581 0 581 491q0 529 -598 529h-790v-1020z" />
    <glyph glyph-name="guilsinglleft" unicode="&#xdc;" horiz-adv-x="2732" 
d="M709 1700h970q301 0 497.5 -126.5t286 -326.5t89.5 -420q0 -237 -105.5 -426t-304 -295t-463.5 -106h-1368v2941h398v-1241zM709 340h852q581 0 581 491q0 529 -598 529h-835v-1020z" />
    <glyph glyph-name="guilsinglleft" unicode="&#x42c;" horiz-adv-x="2732" 
d="M709 1700h970q301 0 497.5 -126.5t286 -326.5t89.5 -420q0 -237 -105.5 -426t-304 -295t-463.5 -106h-1368v2941h398v-1241zM709 340h852q581 0 581 491q0 529 -598 529h-835v-1020z" />
    <glyph glyph-name="guilsinglright" unicode="&#xdd;" horiz-adv-x="2957" 
d="M2359 1667q-47 479 -288 739t-625 260q-293 0 -534 -131.5t-330 -478.5h-385q52 259 205.5 478t419 352t624.5 133q311 0 560.5 -112.5t420.5 -316t260.5 -485.5t89.5 -618q0 -536 -184 -888.5t-485.5 -514.5t-653.5 -162q-122 0 -302 35t-387 141.5t-373.5 319
t-223.5 540.5h385q52 -256 206 -410t336.5 -214t338.5 -60q449 0 673 285.5t256 775.5h-1605v332h1601z" />
    <glyph glyph-name="guilsinglright" unicode="&#x42d;" horiz-adv-x="2957" 
d="M2359 1667q-47 479 -288 739t-625 260q-293 0 -534 -131.5t-330 -478.5h-385q52 259 205.5 478t419 352t624.5 133q311 0 560.5 -112.5t420.5 -316t260.5 -485.5t89.5 -618q0 -536 -184 -888.5t-485.5 -514.5t-653.5 -162q-122 0 -302 35t-387 141.5t-373.5 319
t-223.5 540.5h385q52 -256 206 -410t336.5 -214t338.5 -60q449 0 673 285.5t256 775.5h-1605v332h1601z" />
    <glyph glyph-name="fi" unicode="&#xde;" horiz-adv-x="3944" 
d="M1077 1372h-368v-1372h-398v2941h398v-1217h372q34 243 123 470t247 413.5t400.5 299t569.5 112.5q373 0 637.5 -144t420 -375t224.5 -500t69 -530q0 -260 -71 -526.5t-232.5 -499.5t-433.5 -377.5t-655 -144.5q-337 0 -582.5 130.5t-399 345.5t-229.5 466t-92 508z
M2421 2666q-301 0 -513 -152t-320.5 -423.5t-108.5 -620.5q0 -530 254 -863t688 -333q297 0 511 152t322.5 423.5t108.5 620.5q0 259 -63.5 478.5t-186 380.5t-298.5 249t-394 88z" />
    <glyph glyph-name="fi" unicode="&#x42e;" horiz-adv-x="3944" 
d="M1077 1372h-368v-1372h-398v2941h398v-1217h372q34 243 123 470t247 413.5t400.5 299t569.5 112.5q373 0 637.5 -144t420 -375t224.5 -500t69 -530q0 -260 -71 -526.5t-232.5 -499.5t-433.5 -377.5t-655 -144.5q-337 0 -582.5 130.5t-399 345.5t-229.5 466t-92 508z
M2421 2666q-301 0 -513 -152t-320.5 -423.5t-108.5 -620.5q0 -530 254 -863t688 -333q297 0 511 152t322.5 423.5t108.5 620.5q0 259 -63.5 478.5t-186 380.5t-298.5 249t-394 88z" />
    <glyph glyph-name="fl" unicode="&#xdf;" horiz-adv-x="2957" 
d="M2208 1262h-602l-889 -1262h-520l917 1266q-194 0 -385.5 88t-320.5 283.5t-129 496.5q0 294 134 474t351 256.5t481 76.5h1360v-2941h-397v1262zM2208 2601h-991q-529 0 -529 -492q0 -202 84 -315t214.5 -152.5t299.5 -39.5h922v999z" />
    <glyph glyph-name="fl" unicode="&#x42f;" horiz-adv-x="2957" 
d="M2208 1262h-602l-889 -1262h-520l917 1266q-194 0 -385.5 88t-320.5 283.5t-129 496.5q0 294 134 474t351 256.5t481 76.5h1360v-2941h-397v1262zM2208 2601h-991q-529 0 -529 -492q0 -202 84 -315t214.5 -152.5t299.5 -39.5h922v999z" />
    <glyph glyph-name="daggerdbl" unicode="&#xe0;" 
d="M254 1491q12 370 241 541.5t644 171.5q138 0 319 -42t328 -176t147 -380v-1233q0 -127 119 -127q37 0 119 16v-262q-40 -12 -66 -20t-61 -14.5t-70 -6.5q-215 0 -291.5 87t-89.5 241q-138 -152 -316.5 -250t-457.5 -98q-195 0 -348 77.5t-238.5 218.5t-85.5 322
q0 218 131 421t521 251l594 74q188 17 188 253q0 349 -504 349q-269 0 -367 -118.5t-124 -295.5h-332zM1573 1094q-48 -38 -167 -67t-427 -69q-122 -17 -218.5 -47t-168.5 -103.5t-72 -197.5q0 -372 389 -372q166 0 320.5 66.5t249 182.5t94.5 254v353z" />
    <glyph glyph-name="daggerdbl" unicode="&#x430;" 
d="M254 1491q12 370 241 541.5t644 171.5q138 0 319 -42t328 -176t147 -380v-1233q0 -127 119 -127q37 0 119 16v-262q-40 -12 -66 -20t-61 -14.5t-70 -6.5q-215 0 -291.5 87t-89.5 241q-138 -152 -316.5 -250t-457.5 -98q-195 0 -348 77.5t-238.5 218.5t-85.5 322
q0 218 131 421t521 251l594 74q188 17 188 253q0 349 -504 349q-269 0 -367 -118.5t-124 -295.5h-332zM1573 1094q-48 -38 -167 -67t-427 -69q-122 -17 -218.5 -47t-168.5 -103.5t-72 -197.5q0 -372 389 -372q166 0 320.5 66.5t249 182.5t94.5 254v353z" />
    <glyph glyph-name="periodcentered" unicode="&#xe1;" 
d="M1753 2945h254q0 -211 -106 -303q-101 -89 -346 -114t-479.5 -53t-358.5 -136q-182 -154 -266 -541h12q102 121 193.5 193.5t221 111.5t322.5 39q290 0 503.5 -157.5t324 -412t110.5 -532.5q0 -284 -111.5 -535.5t-344.5 -408.5t-572 -157q-170 0 -338.5 66t-312.5 216.5
t-230 400t-86 599.5q0 227 20 433t80 405t177 370.5t305 290.5q207 131 811 131h123q94 11 94 94zM1765 1040q0 148 -52.5 330.5t-191.5 321.5t-378 139q-240 0 -379 -139t-191.5 -321.5t-52.5 -330.5t52.5 -330t191.5 -321t379 -139q239 0 378 139t191.5 321t52.5 330z" />
    <glyph glyph-name="periodcentered" unicode="&#x431;" 
d="M1753 2945h254q0 -211 -106 -303q-101 -89 -346 -114t-479.5 -53t-358.5 -136q-182 -154 -266 -541h12q102 121 193.5 193.5t221 111.5t322.5 39q290 0 503.5 -157.5t324 -412t110.5 -532.5q0 -284 -111.5 -535.5t-344.5 -408.5t-572 -157q-170 0 -338.5 66t-312.5 216.5
t-230 400t-86 599.5q0 227 20 433t80 405t177 370.5t305 290.5q207 131 811 131h123q94 11 94 94zM1765 1040q0 148 -52.5 330.5t-191.5 321.5t-378 139q-240 0 -379 -139t-191.5 -321.5t-52.5 -330.5t52.5 -330t191.5 -321t379 -139q239 0 378 139t191.5 321t52.5 330z" />
    <glyph glyph-name="quotesinglbase" unicode="&#xe2;" horiz-adv-x="2261" 
d="M279 2142h1052q334 0 484.5 -149t150.5 -391q0 -134 -80.5 -265.5t-279.5 -206.5q205 -51 346 -154.5t141 -344.5q0 -179 -76.5 -321t-252.5 -226t-457 -84h-1028v2142zM639 1241h528q158 0 253 30.5t138.5 105t43.5 204.5q0 142 -90.5 202t-340.5 60h-532v-602zM639 299
h647q242 0 342.5 79.5t100.5 260.5q0 174 -113 244.5t-391 70.5h-586v-655z" />
    <glyph glyph-name="quotesinglbase" unicode="&#x432;" horiz-adv-x="2261" 
d="M279 2142h1052q334 0 484.5 -149t150.5 -391q0 -134 -80.5 -265.5t-279.5 -206.5q205 -51 346 -154.5t141 -344.5q0 -179 -76.5 -321t-252.5 -226t-457 -84h-1028v2142zM639 1241h528q158 0 253 30.5t138.5 105t43.5 204.5q0 142 -90.5 202t-340.5 60h-532v-602zM639 299
h647q242 0 342.5 79.5t100.5 260.5q0 174 -113 244.5t-391 70.5h-586v-655z" />
    <glyph glyph-name="quotedblbase" unicode="&#xe3;" horiz-adv-x="1667" 
d="M639 1843v-1843h-360v2142h1392v-299h-1032z" />
    <glyph glyph-name="quotedblbase" unicode="&#x433;" horiz-adv-x="1667" 
d="M639 1843v-1843h-360v2142h1392v-299h-1032z" />
    <glyph glyph-name="perthousand" unicode="&#xe4;" horiz-adv-x="2109" 
d="M319 0v-549h-319v848h147q49 26 100.5 147.5t51.5 262.5v1433h1532v-1843h192v-848h-319v549h-1385zM1470 299v1544h-831v-1134q0 -267 -143 -410h974z" />
    <glyph glyph-name="perthousand" unicode="&#x434;" horiz-adv-x="2109" 
d="M319 0v-549h-319v848h147q49 26 100.5 147.5t51.5 262.5v1433h1532v-1843h192v-848h-319v549h-1385zM1470 299v1544h-831v-1134q0 -267 -143 -410h974z" />
    <glyph glyph-name="Acircumflex" unicode="&#xe5;" 
d="M2085 672q-14 -115 -109 -291.5t-272 -294.5q-218 -147 -582 -147q-295 0 -511.5 137.5t-331.5 381t-115 554.5q0 342 112 611.5t343 425t573 155.5q303 0 510 -152.5t309.5 -435t102.5 -662.5h-1565q0 -339 158 -521.5t464 -182.5q157 0 281.5 68.5t195 168.5t76.5 185
h361zM1741 1241q-40 639 -598 639q-161 0 -298 -89.5t-216.5 -237t-79.5 -312.5h1192z" />
    <glyph glyph-name="Acircumflex" unicode="&#x435;" 
d="M2085 672q-14 -115 -109 -291.5t-272 -294.5q-218 -147 -582 -147q-295 0 -511.5 137.5t-331.5 381t-115 554.5q0 342 112 611.5t343 425t573 155.5q303 0 510 -152.5t309.5 -435t102.5 -662.5h-1565q0 -339 158 -521.5t464 -182.5q157 0 281.5 68.5t195 168.5t76.5 185
h361zM1741 1241q-40 639 -598 639q-161 0 -298 -89.5t-216.5 -237t-79.5 -312.5h1192z" />
    <glyph glyph-name="Ecircumflex" unicode="&#xe6;" horiz-adv-x="2957" 
d="M1651 2142v-905l798 905h459l-860 -880l909 -1262h-463l-708 999l-135 -188v-811h-348v811l-136 188l-708 -999h-463l909 1262l-860 880h459l799 -905v905h348z" />
    <glyph glyph-name="Ecircumflex" unicode="&#x436;" horiz-adv-x="2957" 
d="M1651 2142v-905l798 905h459l-860 -880l909 -1262h-463l-708 999l-135 -188v-811h-348v811l-136 188l-708 -999h-463l909 1262l-860 880h459l799 -905v905h348z" />
    <glyph glyph-name="Aacute" unicode="&#xe7;" horiz-adv-x="2048" 
d="M991 1253q210 0 338.5 80t128.5 236q0 336 -438 336q-500 0 -500 -394h-340q0 138 61.5 290.5t256.5 271t555 118.5q233 0 409 -81t268.5 -212.5t92.5 -275.5q0 -246 -121 -343t-293 -132q512 -76 512 -520q0 -216 -116 -371.5t-315.5 -234t-440.5 -78.5
q-383 0 -588.5 133t-267.5 300t-62 316h340q0 -166 64.5 -268t191 -146.5t317.5 -44.5q508 0 508 390q0 226 -154 299t-431 73q-55 -2 -133 -4t-134 -4v270q55 0 155 -2t136 -2z" />
    <glyph glyph-name="Aacute" unicode="&#x437;" horiz-adv-x="2048" 
d="M991 1253q210 0 338.5 80t128.5 236q0 336 -438 336q-500 0 -500 -394h-340q0 138 61.5 290.5t256.5 271t555 118.5q233 0 409 -81t268.5 -212.5t92.5 -275.5q0 -246 -121 -343t-293 -132q512 -76 512 -520q0 -216 -116 -371.5t-315.5 -234t-440.5 -78.5
q-383 0 -588.5 133t-267.5 300t-62 316h340q0 -166 64.5 -268t191 -146.5t317.5 -44.5q508 0 508 390q0 226 -154 299t-431 73q-55 -2 -133 -4t-134 -4v270q55 0 155 -2t136 -2z" />
    <glyph glyph-name="Edieresis" unicode="&#xe8;" 
d="M639 537h8l918 1605h438v-2142h-361v1606h-8l-938 -1606h-417v2142h360v-1605z" />
    <glyph glyph-name="Edieresis" unicode="&#x438;" 
d="M639 537h8l918 1605h438v-2142h-361v1606h-8l-938 -1606h-417v2142h360v-1605z" />
    <glyph glyph-name="Egrave" unicode="&#xe9;" 
d="M639 537h8l918 1605h438v-2142h-361v1606h-8l-938 -1606h-417v2142h360v-1605zM1774 2994q-63 -557 -652 -557q-548 0 -610 557h201q46 -140 98 -196q111 -127 344 -127q215 0 298 90t124 233h197z" />
    <glyph glyph-name="Egrave" unicode="&#x439;" 
d="M639 537h8l918 1605h438v-2142h-361v1606h-8l-938 -1606h-417v2142h360v-1605zM1774 2994q-63 -557 -652 -557q-548 0 -610 557h201q46 -140 98 -196q111 -127 344 -127q215 0 298 90t124 233h197z" />
    <glyph glyph-name="Iacute" unicode="&#xea;" horiz-adv-x="2048" 
d="M2052 0h-463l-790 999l-176 -188v-811h-349v2142h349v-905l921 905h459l-942 -880z" />
    <glyph glyph-name="Iacute" unicode="&#x43a;" horiz-adv-x="2048" 
d="M2052 0h-463l-790 999l-176 -188v-811h-349v2142h349v-905l921 905h459l-942 -880z" />
    <glyph glyph-name="Icircumflex" unicode="&#xeb;" horiz-adv-x="2109" 
d="M639 1843v-1265q0 -236 -125 -423.5t-465 -187.5v332q146 0 198 55t52 224v1564h1532v-2142h-361v1843h-831z" />
    <glyph glyph-name="Icircumflex" unicode="&#x43b;" horiz-adv-x="2109" 
d="M639 1843v-1265q0 -236 -125 -423.5t-465 -187.5v332q146 0 198 55t52 224v1564h1532v-2142h-361v1843h-831z" />
    <glyph glyph-name="Idieresis" unicode="&#xec;" horiz-adv-x="2957" 
d="M1483 459l659 1683h537v-2142l-348 -4v1245q0 140 7.5 270.5t12.5 188.5h-29l-671 -1700h-344l-672 1700h-29q5 -55 13 -175.5t8 -283.5v-1241h-348v2142h536z" />
    <glyph glyph-name="Idieresis" unicode="&#x43c;" horiz-adv-x="2957" 
d="M1483 459l659 1683h537v-2142l-348 -4v1245q0 140 7.5 270.5t12.5 188.5h-29l-671 -1700h-344l-672 1700h-29q5 -55 13 -175.5t8 -283.5v-1241h-348v2142h536z" />
    <glyph glyph-name="Igrave" unicode="&#xed;" 
d="M1642 2142h361v-2142h-361v971h-1003v-971h-360v2142h360v-885h1003v885z" />
    <glyph glyph-name="Igrave" unicode="&#x43d;" 
d="M1642 2142h361v-2142h-361v971h-1003v-971h-360v2142h360v-885h1003v885z" />
    <glyph glyph-name="Oacute" unicode="&#xee;" 
d="M1139 2204q323 0 549 -161.5t336 -420.5t110 -549t-110 -548.5t-336 -420t-549 -161.5t-549.5 161.5t-336.5 420t-110 548.5t110 549t336.5 420.5t549.5 161.5zM1139 254q235 0 375 134t193.5 321.5t53.5 363.5t-53.5 363.5t-193.5 321.5t-375 134q-237 0 -376.5 -135
t-193 -321.5t-53.5 -362.5t53.5 -362.5t193 -321.5t376.5 -135z" />
    <glyph glyph-name="Oacute" unicode="&#x43e;" 
d="M1139 2204q323 0 549 -161.5t336 -420.5t110 -549t-110 -548.5t-336 -420t-549 -161.5t-549.5 161.5t-336.5 420t-110 548.5t110 549t336.5 420.5t549.5 161.5zM1139 254q235 0 375 134t193.5 321.5t53.5 363.5t-53.5 363.5t-193.5 321.5t-375 134q-237 0 -376.5 -135
t-193 -321.5t-53.5 -362.5t53.5 -362.5t193 -321.5t376.5 -135z" />
    <glyph glyph-name="Ocircumflex" unicode="&#xef;" 
d="M2003 2142v-2142h-361v1843h-1003v-1843h-360v2142h1724z" />
    <glyph glyph-name="Ocircumflex" unicode="&#x43f;" 
d="M2003 2142v-2142h-361v1843h-1003v-1843h-360v2142h1724z" />
    <glyph glyph-name="apple" unicode="&#xf0;" 
d="M270 2142h340v-303h8q112 157 249.5 261t389.5 104q277 0 479.5 -139.5t308 -384t105.5 -545.5q0 -290 -89.5 -561.5t-301 -453t-551.5 -181.5q-200 0 -345.5 81t-223.5 205h-8v-1073h-361v2990zM1200 250q190 0 320 106t194 292.5t64 428.5q0 197 -35.5 368t-165.5 303
t-385 132q-578 0 -578 -909q0 -383 183 -552t403 -169z" />
    <glyph glyph-name="apple" unicode="&#x440;" 
d="M270 2142h340v-303h8q112 157 249.5 261t389.5 104q277 0 479.5 -139.5t308 -384t105.5 -545.5q0 -290 -89.5 -561.5t-301 -453t-551.5 -181.5q-200 0 -345.5 81t-223.5 205h-8v-1073h-361v2990zM1200 250q190 0 320 106t194 292.5t64 428.5q0 197 -35.5 368t-165.5 303
t-385 132q-578 0 -578 -909q0 -383 183 -552t403 -169z" />
    <glyph glyph-name="Ograve" unicode="&#xf1;" horiz-adv-x="2048" 
d="M1606 1421q-72 459 -508 459q-308 0 -449 -238t-141 -569q0 -823 586 -823q186 0 326.5 134t185.5 374h348q-34 -320 -242 -569.5t-631 -249.5q-295 0 -511.5 137.5t-331.5 381t-115 554.5q0 342 112 611.5t343 425t573 155.5q263 0 438.5 -112t262 -289.5t102.5 -381.5
h-348z" />
    <glyph glyph-name="Ograve" unicode="&#x441;" horiz-adv-x="2048" 
d="M1606 1421q-72 459 -508 459q-308 0 -449 -238t-141 -569q0 -823 586 -823q186 0 326.5 134t185.5 374h348q-34 -320 -242 -569.5t-631 -249.5q-295 0 -511.5 137.5t-331.5 381t-115 554.5q0 342 112 611.5t343 425t573 155.5q263 0 438.5 -112t262 -289.5t102.5 -381.5
h-348z" />
    <glyph glyph-name="Uacute" unicode="&#xf2;" horiz-adv-x="1819" 
d="M1090 1843v-1843h-361v1843h-684v299h1729v-299h-684z" />
    <glyph glyph-name="Uacute" unicode="&#x442;" horiz-adv-x="1819" 
d="M1090 1843v-1843h-361v1843h-684v299h1729v-299h-684z" />
    <glyph glyph-name="Ucircumflex" unicode="&#xf3;" horiz-adv-x="2048" 
d="M1606 2142h397q-94 -263 -176 -493.5t-172.5 -481.5t-221.5 -601t-200 -525q-144 -369 -220.5 -534t-153.5 -250t-175 -109.5t-291 -24.5q-33 0 -151 33v328q104 -37 217 -37q96 0 146 31.5t95.5 126.5t139.5 338l-795 2199h410l569 -1745h8z" />
    <glyph glyph-name="Ucircumflex" unicode="&#x443;" horiz-adv-x="2048" 
d="M1606 2142h397q-94 -263 -176 -493.5t-172.5 -481.5t-221.5 -601t-200 -525q-144 -369 -220.5 -534t-153.5 -250t-175 -109.5t-291 -24.5q-33 0 -151 33v328q104 -37 217 -37q96 0 146 31.5t95.5 126.5t139.5 338l-795 2199h410l569 -1745h8z" />
    <glyph glyph-name="Ugrave" unicode="&#xf4;" horiz-adv-x="2957" 
d="M1298 225h-8q-178 -286 -405 -286q-746 0 -746 1196q0 281 67.5 523.5t225 394t404.5 151.5q114 0 190.5 -28.5t125.5 -72t91 -105.5t68 -102h8l-21 246v656h361v-656l-21 -246h9q32 48 70.5 105.5t88.5 102t126 72.5t190 28q248 0 404.5 -151.5t224 -394t67.5 -523.5
q0 -498 -158 -847t-587 -349q-228 0 -406 286h-8v-1073h-361v1073zM1331 971q0 279 -31.5 475.5t-123 315t-258.5 118.5q-169 0 -259 -120.5t-118.5 -297.5t-28.5 -385q0 -259 31.5 -439.5t120.5 -284t254 -103.5q413 0 413 721zM2040 250q238 0 321.5 211.5t83.5 615.5
q0 342 -81.5 571t-323.5 232q-168 0 -259.5 -119t-123 -315t-31.5 -475q0 -721 414 -721z" />
    <glyph glyph-name="Ugrave" unicode="&#x444;" horiz-adv-x="2957" 
d="M1298 225h-8q-178 -286 -405 -286q-746 0 -746 1196q0 281 67.5 523.5t225 394t404.5 151.5q114 0 190.5 -28.5t125.5 -72t91 -105.5t68 -102h8l-21 246v656h361v-656l-21 -246h9q32 48 70.5 105.5t88.5 102t126 72.5t190 28q248 0 404.5 -151.5t224 -394t67.5 -523.5
q0 -498 -158 -847t-587 -349q-228 0 -406 286h-8v-1073h-361v1073zM1331 971q0 279 -31.5 475.5t-123 315t-258.5 118.5q-169 0 -259 -120.5t-118.5 -297.5t-28.5 -385q0 -259 31.5 -439.5t120.5 -284t254 -103.5q413 0 413 721zM2040 250q238 0 321.5 211.5t83.5 615.5
q0 342 -81.5 571t-323.5 232q-168 0 -259.5 -119t-123 -315t-31.5 -475q0 -721 414 -721z" />
    <glyph glyph-name="dotlessi" unicode="&#xf5;" horiz-adv-x="2048" 
d="M2007 0h-459l-532 807l-516 -807h-455l754 1102l-717 1040h463l495 -753l496 753h442l-725 -1040z" />
    <glyph glyph-name="dotlessi" unicode="&#x445;" horiz-adv-x="2048" 
d="M2007 0h-459l-532 807l-516 -807h-455l754 1102l-717 1040h463l495 -753l496 753h442l-725 -1040z" />
    <glyph glyph-name="circumflex" unicode="&#xf6;" 
d="M1880 0h-1601v2142h360v-1843h1003v1843h361v-1843h197v-848h-320v549z" />
    <glyph glyph-name="circumflex" unicode="&#x446;" 
d="M1880 0h-1601v2142h360v-1843h1003v1843h361v-1843h197v-848h-320v549z" />
    <glyph glyph-name="tilde" unicode="&#xf7;" 
d="M1642 0v967q-95 -37 -304 -92.5t-433 -55.5q-626 0 -626 561v762h360v-708q0 -299 397 -299q173 0 349 43t257 71v893h361v-2142h-361z" />
    <glyph glyph-name="tilde" unicode="&#x447;" 
d="M1642 0v967q-95 -37 -304 -92.5t-433 -55.5q-626 0 -626 561v762h360v-708q0 -299 397 -299q173 0 349 43t257 71v893h361v-2142h-361z" />
    <glyph glyph-name="macron" unicode="&#xf8;" horiz-adv-x="2957" 
d="M1659 299h659v1843h361v-2142h-2400v2142h360v-1843h659v1843h361v-1843z" />
    <glyph glyph-name="macron" unicode="&#x448;" horiz-adv-x="2957" 
d="M1659 299h659v1843h361v-2142h-2400v2142h360v-1843h659v1843h361v-1843z" />
    <glyph glyph-name="breve" unicode="&#xf9;" horiz-adv-x="2957" 
d="M2556 0h-2277v2142h360v-1843h659v1843h361v-1843h659v1843h361v-1843h196v-848h-319v549z" />
    <glyph glyph-name="breve" unicode="&#x449;" horiz-adv-x="2957" 
d="M2556 0h-2277v2142h360v-1843h659v1843h361v-1843h659v1843h361v-1843h196v-848h-319v549z" />
    <glyph glyph-name="dotaccent" unicode="&#xfa;" 
d="M2134 631q0 -274 -197 -452.5t-606 -178.5h-819v1843h-512v299h872v-901h459q410 0 606.5 -160.5t196.5 -449.5zM872 299h455q242 0 342 79t100 261q0 170 -99 242.5t-339 72.5h-459v-655z" />
    <glyph glyph-name="dotaccent" unicode="&#x44a;" 
d="M2134 631q0 -274 -197 -452.5t-606 -178.5h-819v1843h-512v299h872v-901h459q410 0 606.5 -160.5t196.5 -449.5zM872 299h455q242 0 342 79t100 261q0 170 -99 242.5t-339 72.5h-459v-655z" />
    <glyph glyph-name="ring" unicode="&#xfb;" horiz-adv-x="2884" 
d="M2605 0h-360v2142h360v-2142zM1905 631q0 -176 -82.5 -318t-263.5 -227.5t-457 -85.5h-823v2142h360v-901h463q803 0 803 -610zM639 299h459q241 0 341.5 79.5t100.5 260.5q0 167 -104 241t-334 74h-463v-655z" />
    <glyph glyph-name="ring" unicode="&#x44b;" horiz-adv-x="2884" 
d="M2605 0h-360v2142h360v-2142zM1905 631q0 -176 -82.5 -318t-263.5 -227.5t-457 -85.5h-823v2142h360v-901h463q803 0 803 -610zM639 299h459q241 0 341.5 79.5t100.5 260.5q0 167 -104 241t-334 74h-463v-655z" />
    <glyph glyph-name="cedilla" unicode="&#xfc;" horiz-adv-x="2048" 
d="M1905 631q0 -176 -82.5 -318t-263.5 -227.5t-457 -85.5h-823v2142h360v-901h463q803 0 803 -610zM639 299h459q241 0 341.5 79.5t100.5 260.5q0 167 -104 241t-334 74h-463v-655z" />
    <glyph glyph-name="cedilla" unicode="&#x44c;" horiz-adv-x="2048" 
d="M1905 631q0 -176 -82.5 -318t-263.5 -227.5t-457 -85.5h-823v2142h360v-901h463q803 0 803 -610zM639 299h459q241 0 341.5 79.5t100.5 260.5q0 167 -104 241t-334 74h-463v-655z" />
    <glyph glyph-name="hungarumlaut" unicode="&#xfd;" horiz-adv-x="2236" 
d="M1667 1241q0 169 -68.5 318.5t-208 241t-337.5 91.5q-237 0 -378 -145.5t-188 -325.5h-335q27 160 136 338t304 303t461 129q340 0 569 -165t335.5 -418t106.5 -514q0 -342 -118 -604t-352 -406.5t-570 -144.5q-249 0 -438 126t-298.5 296.5t-140.5 310.5h357
q12 -80 91.5 -180t194.5 -171t230 -71q311 0 483 191.5t172 516.5h-1011v283h1003z" />
    <glyph glyph-name="hungarumlaut" unicode="&#x44d;" horiz-adv-x="2236" 
d="M1667 1241q0 169 -68.5 318.5t-208 241t-337.5 91.5q-237 0 -378 -145.5t-188 -325.5h-335q27 160 136 338t304 303t461 129q340 0 569 -165t335.5 -418t106.5 -514q0 -342 -118 -604t-352 -406.5t-570 -144.5q-249 0 -438 126t-298.5 296.5t-140.5 310.5h357
q12 -80 91.5 -180t194.5 -171t230 -71q311 0 483 191.5t172 516.5h-1011v283h1003z" />
    <glyph glyph-name="ogonek" unicode="&#xfe;" horiz-adv-x="3072" 
d="M1008 971h-369v-971h-360v2142h360v-885h377q26 197 91.5 364.5t180 299.5t282 207.5t388.5 75.5q323 0 538 -160.5t315.5 -419t100.5 -551.5t-100 -551t-315.5 -418.5t-538.5 -160.5q-231 0 -406 83.5t-290.5 228.5t-177.5 330t-76 386zM1958 254q340 0 461 252t121 567
q0 302 -128.5 560.5t-453.5 258.5q-339 0 -460.5 -253t-121.5 -566t121.5 -566t460.5 -253z" />
    <glyph glyph-name="ogonek" unicode="&#x44e;" horiz-adv-x="3072" 
d="M1008 971h-369v-971h-360v2142h360v-885h377q26 197 91.5 364.5t180 299.5t282 207.5t388.5 75.5q323 0 538 -160.5t315.5 -419t100.5 -551.5t-100 -551t-315.5 -418.5t-538.5 -160.5q-231 0 -406 83.5t-290.5 228.5t-177.5 330t-76 386zM1958 254q340 0 461 252t121 567
q0 302 -128.5 560.5t-453.5 258.5q-339 0 -460.5 -253t-121.5 -566t121.5 -566t460.5 -253z" />
    <glyph glyph-name="caron" unicode="&#xff;" 
d="M164 0l663 909q-109 0 -235 76.5t-213.5 216t-87.5 314.5q0 300 209.5 463t576.5 163h914v-2142h-361v901h-389l-635 -901h-442zM1630 1843h-553q-401 0 -401 -327q0 -328 401 -328h553v655z" />
    <glyph glyph-name="caron" unicode="&#x44f;" 
d="M164 0l663 909q-109 0 -235 76.5t-213.5 216t-87.5 314.5q0 300 209.5 463t576.5 163h914v-2142h-361v901h-389l-635 -901h-442zM1630 1843h-553q-401 0 -401 -327q0 -328 401 -328h553v655z" />
    <glyph glyph-name="ntilde" unicode="&#x2013;" 
d="M2277 1282v-299h-2277v299h2277z" />
    <glyph glyph-name="oacute" unicode="&#x2014;" horiz-adv-x="4096" 
d="M4096 1282v-299h-4096v299h4096z" />
    <glyph glyph-name="edieresis" unicode="&#x2018;" horiz-adv-x="909" 
d="M692 2359v-434h-426v402q0 258 96 423t330 220v-193q-140 -21 -178.5 -138t-38.5 -280h217z" />
    <glyph glyph-name="iacute" unicode="&#x2019;" horiz-adv-x="909" 
d="M217 2507v434h426v-401q0 -259 -95.5 -424t-330.5 -220v193q140 22 178.5 138.5t38.5 279.5h-217z" />
    <glyph glyph-name="Ccedilla" unicode="&#x201a;" horiz-adv-x="909" 
d="M217 0v434h426v-401q0 -259 -96 -423.5t-330 -219.5v192q140 22 178.5 138.5t38.5 279.5h-217z" />
    <glyph glyph-name="igrave" unicode="&#x201c;" horiz-adv-x="1364" 
d="M1257 2359v-434h-426v402q0 258 96 423t330 220v-193q-140 -21 -178.5 -138t-38.5 -280h217zM582 2359v-434h-426v402q0 258 96 423t330 220v-193q-140 -21 -178.5 -138t-38.5 -280h217z" />
    <glyph glyph-name="icircumflex" unicode="&#x201d;" horiz-adv-x="1364" 
d="M106 2507v434h426v-401q0 -259 -95.5 -424t-330.5 -220v193q139 22 178.5 138.5t39.5 279.5h-218zM782 2507v434h426v-401q0 -259 -95.5 -424t-330.5 -220v193q140 22 178.5 138.5t38.5 279.5h-217z" />
    <glyph glyph-name="Ntilde" unicode="&#x201e;" horiz-adv-x="1364" 
d="M106 0v434h426v-401q0 -259 -96 -423.5t-330 -219.5v192q139 22 178.5 138.5t39.5 279.5h-218zM782 0v434h426v-401q0 -259 -96 -423.5t-330 -219.5v192q140 22 178.5 138.5t38.5 279.5h-217z" />
    <glyph glyph-name="Udieresis" unicode="&#x2020;" 
d="M1335 1765v-2416h-385v2416h-774v312h774v864h385v-864h770v-312h-770z" />
    <glyph glyph-name="aacute" unicode="&#x2021;" 
d="M1335 1798v-1311h770v-311h-770v-827h-385v827h-774v311h774v1311h-774v311h774v832h385v-832h770v-311h-770z" />
    <glyph glyph-name="idieresis" unicode="&#x2022;" horiz-adv-x="1434" 
d="M1364 1470q0 -175 -87 -322.5t-237 -234t-323 -86.5q-267 0 -455 187t-188 456q0 176 85 324.5t233 236t325 87.5q174 0 323.5 -87.5t236.5 -236.5t87 -324z" />
    <glyph glyph-name="Odieresis" unicode="&#x2026;" horiz-adv-x="4096" 
d="M897 434v-434h-426v434h426zM2261 434v-434h-426v434h426zM3625 434v-434h-426v434h426z" />
    <glyph glyph-name="acircumflex" unicode="&#x2030;" horiz-adv-x="4096" 
d="M29 2208q0 173 85.5 320.5t232.5 233t321 85.5q172 0 319.5 -86t233.5 -233.5t86 -319.5q0 -174 -85.5 -321t-233 -232.5t-320.5 -85.5t-320.5 85t-233 231.5t-85.5 322.5zM287 2208q0 -158 109.5 -269.5t271.5 -111.5q157 0 269 112t112 269q0 160 -111.5 270.5
t-269.5 110.5q-106 0 -193 -51.5t-137.5 -139.5t-50.5 -190zM1307 610q0 174 85.5 321t232.5 232.5t321 85.5q172 0 319 -85.5t233.5 -233.5t86.5 -320q0 -174 -85.5 -320.5t-233 -232.5t-320.5 -86t-320.5 85t-233 232t-85.5 322zM1565 610q0 -158 109.5 -269.5
t271.5 -111.5q156 0 268.5 111.5t112.5 269.5q0 103 -51.5 191t-140.5 139t-189 51q-106 0 -193 -51.5t-137.5 -139.5t-50.5 -190zM2793 610q0 174 86 321t232.5 232.5t320.5 85.5q172 0 319.5 -86t233.5 -233.5t86 -319.5q0 -174 -85.5 -320.5t-232.5 -232.5t-321 -86
q-173 0 -320 84.5t-233 232t-86 322.5zM3052 610q0 -158 109.5 -269.5t270.5 -111.5q157 0 269 112t112 269q0 160 -111.5 270.5t-269.5 110.5q-107 0 -193.5 -52t-136.5 -139.5t-50 -189.5zM2228 2879l-1626 -2957h-225l1626 2957h225z" />
    <glyph glyph-name="atilde" unicode="&#x2039;" horiz-adv-x="1364" 
d="M1004 803v-361l-644 504v377l644 504v-361l-431 -331z" />
    <glyph glyph-name="otilde" unicode="&#x203a;" horiz-adv-x="1364" 
d="M360 442v361l431 332l-431 331v361l644 -504v-377z" />
    <glyph glyph-name="ocircumflex" unicode="&#x2122;" horiz-adv-x="4096" 
d="M2281 2941l484 -1241l475 1241h459v-1688h-299v1373h-9l-528 -1373h-205l-528 1373h-8v-1373h-299v1688h458zM1528 2941v-246h-520v-1442h-299v1442h-521v246h1340z" />
    </font>
</defs>
</svg>
